<svg width="167" height="167" viewBox="0 0 167 167" fill="none" xmlns="http://www.w3.org/2000/svg">
<g filter="url(#filter0_d_796_1664)">
<path d="M9 19C9 13.4771 13.4772 9 19 9H146C151.523 9 156 13.4772 156 19V146C156 151.523 151.523 156 146 156H19C13.4772 156 9 151.523 9 146V19Z" fill="#0A97D9"/>
<path d="M28.1858 21.4252V51.0262H23.161V28.3686L19.6892 32.023H19.5979V26.8155L24.166 21.4252H28.1858ZM43.3518 51.0262V46.184H45.3617V42.2555H43.3518V21.3338H38.4183L29.8303 43.0778V46.184H38.601V51.0262H43.3518ZM34.2157 42.3469L38.6924 30.1045V42.3469H34.2157ZM122.196 116.349C120.369 113.883 108.401 98.6253 91.6818 98.6253C77.1554 98.6253 61.5326 111.781 61.5326 111.781C61.5326 111.781 55.6855 99.813 43.7172 98.6253H43.4431C43.169 98.6253 42.9863 98.8994 42.9863 99.0821C42.9863 99.2648 43.1691 99.5389 43.1691 99.5389C44.7222 102.097 48.6507 109.406 48.6507 116.623C48.6507 123.932 44.7222 131.241 43.1691 133.799L43.0777 133.982C43.0777 134.073 42.9863 134.165 42.9863 134.256C42.9863 134.53 43.169 134.713 43.4431 134.713H43.6259C55.5942 133.617 61.5326 121.557 61.5326 121.557C61.5326 121.557 77.064 134.713 91.6818 134.713C108.401 134.713 120.369 119.456 122.196 116.989C122.288 116.897 122.288 116.898 122.288 116.806V116.623V116.441L122.196 116.349ZM100.909 118.633C98.1684 118.633 95.9758 116.441 95.9758 113.7C95.9758 110.959 98.1684 108.858 100.909 108.858C103.65 108.858 105.843 111.05 105.843 113.7C105.843 116.441 103.65 118.633 100.909 118.633ZM43.2604 69.9379H43.1691C42.895 69.9379 42.7122 70.1206 42.7122 70.3947V73.7751C42.7122 73.9578 42.8036 74.0492 42.895 74.1405C51.0261 81.1753 58.6091 74.5973 60.4363 72.8615C60.4363 72.7701 60.5277 72.7701 60.5277 72.7701C60.619 72.6787 60.7104 72.6787 60.8017 72.6787C60.8931 72.6787 61.0758 72.7701 61.1672 72.7701C70.3033 81.4494 79.8962 74.4146 81.9062 72.7701L82.0889 72.5874H82.4543L82.6371 72.7701C84.647 74.4146 94.2399 81.4494 103.376 72.7701C103.467 72.6787 103.559 72.6787 103.741 72.6787C103.833 72.6787 103.924 72.6787 104.016 72.7701C104.107 72.7701 104.107 72.8615 104.107 72.8615C105.843 74.5973 113.517 81.1753 121.648 74.1405C121.74 74.0492 121.831 73.9578 121.831 73.7751V70.3947C121.831 70.1206 121.648 69.9379 121.374 69.9379H121.283C121.191 69.9379 121.1 70.0293 121.009 70.0293C118.542 71.3083 110.776 74.2319 103.833 67.6539L103.65 67.4712H103.285C103.193 67.4712 103.102 67.5625 103.011 67.6539C100.909 69.207 91.3163 75.6937 82.8198 67.7453L82.7284 67.6539C82.637 67.5625 82.5457 67.4712 82.363 67.4712C82.2716 67.4712 82.0889 67.5625 81.9975 67.6539L81.9062 67.7453C73.4096 75.6937 63.8166 69.207 61.7153 67.6539C61.624 67.5625 61.624 67.4712 61.4413 67.4712H61.0758L60.8931 67.6539C53.8583 74.3232 46.184 71.3083 43.7172 70.0293C43.4431 70.0293 43.3518 69.9379 43.2604 69.9379ZM60.3449 84.9211C60.3449 84.8298 60.4363 84.8298 60.4363 84.8298C60.5277 84.7384 60.619 84.7384 60.7104 84.7384C60.8018 84.7384 60.9845 84.8298 61.0758 84.8298C70.2119 93.5091 79.8048 86.4743 81.8148 84.8298L81.9975 84.6471H82.363L82.5457 84.8298C84.5556 86.4743 94.1485 93.5091 103.285 84.8298C103.376 84.7384 103.467 84.7384 103.65 84.7384C103.741 84.7384 103.833 84.7384 103.924 84.8298C104.016 84.8298 104.016 84.9211 104.016 84.9211C105.751 86.657 113.426 93.235 121.557 86.2002C121.648 86.1088 121.74 86.0175 121.74 85.8347V82.4544C121.74 82.1803 121.557 81.9976 121.283 81.9976H121.191C121.1 81.9976 121.009 82.089 120.917 82.089C118.451 83.368 110.685 86.2915 103.741 79.7135L103.559 79.5308C103.467 79.5308 103.467 79.4395 103.376 79.4395H103.193C103.102 79.4395 103.011 79.5308 102.919 79.6222C100.818 81.1753 91.225 87.6619 82.7284 79.7135L82.6371 79.6222C82.5457 79.5308 82.4543 79.5308 82.2716 79.5308C82.1802 79.5308 81.9975 79.6222 81.9062 79.6222L81.8148 79.7135C73.3182 87.6619 63.7253 81.1753 61.624 79.6222C61.5326 79.5308 61.5326 79.4395 61.3499 79.4395H61.1672C61.0758 79.4395 61.0758 79.4394 60.9845 79.5308L60.8017 79.7135C53.7669 86.2915 46.0926 83.368 43.6259 82.089C43.5345 82.089 43.4431 81.9976 43.3518 81.9976H43.2604C42.9863 81.9976 42.8036 82.1803 42.8036 82.4544V85.8347C42.8036 86.0175 42.895 86.1088 42.9863 86.2002C50.9347 93.235 58.6091 86.657 60.3449 84.9211ZM55.9596 21.3338H57.9696V31.6576H60.3449V33.3021H55.9596V21.3338ZM61.3499 21.3338H63.3599V33.3021H61.3499V21.3338ZM64.6389 21.3338H69.3897V22.9783H66.6489V26.45H68.6588V28.0945H66.6489V33.3934H64.6389V21.3338ZM70.3033 21.3338H75.1454V22.9783H72.3132V26.45H74.3232V28.0945H72.3132V31.749H75.1454V33.3934H70.3033V21.3338ZM78.8912 21.3338H81.8148C83.8247 21.3338 84.4643 22.2474 84.4643 23.9833V25.1709C84.4643 26.1759 84.0988 26.8155 83.2766 27.0896C84.2815 27.3636 84.7383 28.0032 84.7383 29.0995V30.6526C84.7383 32.3885 84.0075 33.3021 81.9975 33.3021H78.8912V21.3338ZM80.9012 26.45H81.6321C82.2716 26.45 82.5457 26.0846 82.5457 25.4451V23.9833C82.5457 23.3437 82.2716 22.9783 81.5407 22.9783H80.8098V26.45H80.9012ZM80.9012 28.0032V31.749H81.8148C82.4543 31.749 82.8198 31.3835 82.8198 30.744V28.9168C82.8198 28.2773 82.5457 27.9118 81.8148 27.9118L80.9012 28.0032ZM85.652 21.3338H90.4941V22.9783H87.6619V26.45H89.6718V28.0945H87.6619V31.749H90.4941V33.3934H85.652V21.3338ZM91.7732 21.3338H93.7831V31.6576H96.1585V33.3021H91.7732V21.3338ZM96.9807 30.2872V24.4401C96.9807 22.5215 97.8944 21.2424 99.9957 21.2424C102.097 21.2424 103.102 22.6128 103.102 24.4401V30.2872C103.102 32.1144 102.188 33.4848 99.9957 33.4848C97.8944 33.4848 96.9807 32.1144 96.9807 30.2872ZM101.001 30.5613V24.0747C101.001 23.3438 100.727 22.7956 99.9957 22.7956C99.2648 22.7956 98.9907 23.3438 98.9907 24.0747V30.5613C98.9907 31.2922 99.2648 31.8404 99.9957 31.8404C100.727 31.8404 101.001 31.2922 101.001 30.5613ZM108.401 25.9019L107.305 33.3021H105.386L103.741 21.3338H105.66L106.574 28.9168L107.579 21.3338H109.223L110.319 28.9168L111.233 21.3338H112.969L111.416 33.3021H109.497L108.401 25.9019Z" fill="white"/>
<path d="M60.3449 43.5346L59.2486 50.9348H57.33L55.6855 38.9666H57.6041L58.5177 46.5495L59.5227 38.9666H61.1672L62.2635 46.5495L63.1771 38.9666H64.913L63.3599 50.9348H61.4413L60.3449 43.5346ZM64.8217 51.0262L67.1057 39.0579H69.3897L71.6737 51.0262H69.5724L69.207 48.8335H67.1057L66.7402 51.0262H64.8217ZM67.2884 47.1891H68.9329L68.1106 42.3469L67.2884 47.1891ZM71.2169 38.9666H76.6072V40.611H74.9627V50.9348H72.9528V40.611H71.3083V38.9666H71.2169ZM77.5208 38.9666H82.363V40.611H79.5308V44.0828H81.5407V45.7272H79.5308V49.3817H82.363V51.0262H77.5208V38.9666ZM85.4692 45.4532V50.9348H83.4593V38.9666H86.3829C88.3928 38.9666 89.1237 39.9715 89.1237 41.616V43.1691C89.1237 44.4482 88.6669 45.1791 87.4792 45.4532L89.3978 50.9348H87.2965L85.4692 45.4532ZM85.4692 40.611V44.3568H86.1088C86.8397 44.3568 87.1138 43.9914 87.1138 43.3519V41.616C87.1138 40.9765 86.8397 40.611 86.1088 40.611H85.4692Z" fill="white"/>
</g>
<defs>
<filter id="filter0_d_796_1664" x="0" y="0" width="167" height="167" filterUnits="userSpaceOnUse" color-interpolation-filters="sRGB">
<feFlood flood-opacity="0" result="BackgroundImageFix"/>
<feColorMatrix in="SourceAlpha" type="matrix" values="0 0 0 0 0 0 0 0 0 0 0 0 0 0 0 0 0 0 127 0" result="hardAlpha"/>
<feOffset dx="1" dy="1"/>
<feGaussianBlur stdDeviation="5"/>
<feComposite in2="hardAlpha" operator="out"/>
<feColorMatrix type="matrix" values="0 0 0 0 0 0 0 0 0 0 0 0 0 0 0 0 0 0 0.15 0"/>
<feBlend mode="normal" in2="BackgroundImageFix" result="effect1_dropShadow_796_1664"/>
<feBlend mode="normal" in="SourceGraphic" in2="effect1_dropShadow_796_1664" result="shape"/>
</filter>
</defs>
</svg>
