<svg width="167" height="167" viewBox="0 0 167 167" fill="none" xmlns="http://www.w3.org/2000/svg">
<g filter="url(#filter0_d_796_361)">
<path d="M9 19C9 13.4771 13.4772 9 19 9H146C151.523 9 156 13.4772 156 19V146C156 151.523 151.523 156 146 156H19C13.4772 156 9 151.523 9 146V19Z" fill="#00689D"/>
<path d="M20.3291 26.7242V31.9318H20.4204L23.8922 28.2774V51.0263H28.917V21.3339H24.8972L20.3291 26.7242ZM46.367 43.9001V39.5148C46.367 34.6726 44.4484 32.2059 40.8853 32.2059C38.784 32.2059 37.505 33.2109 36.7741 34.5813V28.186C36.7741 26.3588 37.3222 25.0797 39.1495 25.0797C40.9767 25.0797 41.4335 26.0847 41.4335 28.0033V30.0132H46.0015V28.4601C46.0015 24.0748 44.5398 21.0598 39.0581 21.0598C33.8505 21.0598 31.8406 24.4402 31.8406 29.0996V43.5347C31.8406 48.1027 33.8505 51.4831 39.0581 51.4831C44.2657 51.3917 46.367 48.4681 46.367 43.9001ZM41.4335 44.3569C41.4335 46.2755 40.7026 47.3718 39.0581 47.3718C37.4136 47.3718 36.7741 46.2755 36.7741 44.3569V38.9666C36.8655 37.3221 37.5963 36.2258 39.1495 36.2258C40.8853 36.2258 41.5249 37.2307 41.5249 39.2407L41.4335 44.3569Z" fill="white"/>
<path d="M55.96 21.3339H58.9749C60.9848 21.3339 61.7157 22.3388 61.7157 23.9833V26.5414C61.7157 28.1859 60.9848 29.2823 58.9749 29.2823H57.9699V33.3935H55.96V21.3339ZM57.9699 22.9784V27.7292H58.7008C59.4317 27.7292 59.7057 27.3637 59.7057 26.7242V23.9833C59.7057 23.3438 59.4317 22.9784 58.7008 22.9784H57.9699ZM62.7206 21.3339H67.5628V22.9784H64.7306V26.4501H66.7406V28.0946H64.7306V31.749H67.5628V33.3935H62.7206V21.3339ZM68.385 33.3935L70.6691 21.4252H72.9531L75.2371 33.3935H73.1358L72.7704 31.2009H70.6691L70.3037 33.3935H68.385ZM70.9431 29.5564H72.5877L71.7654 24.7142L70.9431 29.5564ZM75.968 30.2873V24.4401C75.968 22.5215 76.8817 21.2425 78.983 21.2425C81.1756 21.2425 81.8151 22.5215 81.8151 24.2574V25.7192H79.9879V24.1661C79.9879 23.4352 79.7139 22.9784 78.983 22.9784C78.2521 22.9784 77.978 23.5265 77.978 24.2574V30.7441C77.978 31.475 78.2521 32.0231 78.983 32.0231C79.7139 32.0231 79.9879 31.5663 79.9879 30.8354V28.6428H81.8151V30.7441C81.8151 32.4799 81.0843 33.759 78.983 33.759C76.8817 33.4849 75.968 32.1145 75.968 30.2873ZM83.0942 21.3339H87.9363V22.9784H85.1041V26.4501H87.1141V28.0946H85.1041V31.749H87.9363V33.3935H83.0942V21.3339ZM91.2253 31.5663L90.2204 34.3071H89.124L89.3981 31.4749L91.2253 31.5663ZM99.996 21.3339V30.6527C99.996 32.3885 99.2651 33.4849 97.2552 33.4849C95.1539 33.4849 94.6057 32.2972 94.6057 30.8354V28.46H96.5242V30.9268C96.5242 31.5663 96.707 31.8404 97.2552 31.8404C97.8033 31.8404 97.9861 31.4749 97.9861 30.8354V21.3339H99.996ZM107.122 21.3339V30.3786C107.122 32.2058 106.3 33.4849 104.29 33.4849C102.189 33.4849 101.275 32.2972 101.275 30.3786V21.3339H103.285V30.6527C103.285 31.3836 103.559 31.8404 104.29 31.8404C105.021 31.8404 105.295 31.3836 105.295 30.6527V21.3339H107.122ZM108.401 30.7441V29.1909H110.32V30.8354C110.32 31.4749 110.594 31.9317 111.325 31.9317C111.964 31.9317 112.238 31.4749 112.238 30.8354V30.3786C112.238 29.6477 111.964 29.2823 111.325 28.6428L110.137 27.455C108.949 26.3587 108.493 25.6278 108.493 24.2574V23.892C108.493 22.4302 109.406 21.2425 111.325 21.2425C113.335 21.2425 114.157 22.2475 114.157 23.9833V24.9883H112.33V23.9833C112.33 23.2524 112.056 22.9784 111.416 22.9784C110.868 22.9784 110.503 23.2524 110.503 23.9833V24.2574C110.503 24.8969 110.868 25.3538 111.416 25.9019L112.695 27.181C113.792 28.2773 114.34 29.0082 114.34 30.2873V30.8354C114.34 32.4799 113.426 33.6676 111.416 33.6676C109.132 33.4849 108.401 32.3886 108.401 30.7441ZM115.162 21.3339H120.552V22.9784H118.908V33.3022H116.898V22.9784H115.162V21.3339ZM121.649 21.3339H123.659V33.3022H121.649V21.3339ZM125.029 30.2873V24.4401C125.029 22.5215 125.943 21.2425 128.044 21.2425C130.236 21.2425 130.876 22.5215 130.876 24.2574V25.7192H129.049V24.1661C129.049 23.4352 128.775 22.9784 128.044 22.9784C127.313 22.9784 127.039 23.5265 127.039 24.2574V30.7441C127.039 31.475 127.313 32.0231 128.044 32.0231C128.775 32.0231 129.049 31.5663 129.049 30.8354V28.6428H130.876V30.7441C130.876 32.4799 130.145 33.759 128.044 33.759C125.943 33.4849 125.029 32.1145 125.029 30.2873ZM132.155 21.3339H136.997V22.9784H134.165V26.4501H136.175V28.0946H134.165V31.749H136.997V33.3935H132.155V21.3339Z" fill="white"/>
<path d="M55.5942 51.3916L57.8783 39.4233H60.1623L62.4463 51.3916H60.345L59.9796 49.199H57.8783L57.5129 51.3916H55.5942ZM58.1523 47.5544H59.7969L58.9746 42.7123L58.1523 47.5544ZM65.1872 43.8087V51.3916H63.4513V39.4233H65.4612L67.6539 46.2754V39.4233H69.2984V51.3916H67.5626L65.1872 43.8087ZM76.6987 42.621V48.194C76.6987 50.0212 75.9678 51.3916 73.7751 51.3916H70.6688V39.4233H73.7751C75.9678 39.332 76.6987 40.7024 76.6987 42.621ZM73.5924 49.7471C74.4146 49.7471 74.7801 49.2903 74.7801 48.5594V42.2555C74.7801 41.5246 74.506 41.0678 73.5924 41.0678H72.7701V49.7471H73.5924ZM79.9877 48.8335V47.189H81.9062V48.8335C81.9062 49.473 82.1803 49.9299 82.9112 49.9299C83.5508 49.9299 83.8248 49.473 83.8248 48.8335V48.3767C83.8248 47.6458 83.5508 47.2804 82.9112 46.6408L81.7235 45.4531C80.5358 44.3568 80.079 43.6259 80.079 42.2555V41.8901C80.079 40.4283 80.9926 39.2406 82.9112 39.2406C84.9212 39.2406 85.7434 40.2456 85.7434 41.9814V42.9864H83.9162V41.9814C83.9162 41.2505 83.6421 40.9765 83.0026 40.9765C82.4544 40.9765 82.089 41.2505 82.089 41.9814V42.2555C82.089 42.895 82.4544 43.3518 83.0026 43.9L84.2816 45.1791C85.378 46.2754 85.9261 47.0063 85.9261 48.2854V48.8335C85.9261 50.478 85.0125 51.6657 83.0026 51.6657C80.8099 51.483 79.9877 50.3867 79.9877 48.8335ZM86.5657 39.3319H91.9559V40.9765H90.3115V51.3003H88.3015V40.9765H86.657V39.3319H86.5657ZM95.0622 45.9099V51.3916H93.0523V39.4233H95.9758C97.9858 39.4233 98.7167 40.4283 98.7167 42.0728V43.6259C98.7167 44.905 98.2599 45.6359 97.0722 45.9099L98.9908 51.3916H96.8895L95.0622 45.9099ZM95.0622 40.9765V44.7223H95.7018C96.4327 44.7223 96.7067 44.3568 96.7067 43.7173V41.9814C96.7067 41.3419 96.4327 40.9765 95.7018 40.9765H95.0622ZM99.9958 48.2854V42.4382C99.9958 40.5197 100.909 39.2406 103.011 39.2406C105.112 39.2406 106.117 40.611 106.117 42.4382V48.2854C106.117 50.1126 105.203 51.483 103.011 51.483C100.909 51.483 99.9958 50.1126 99.9958 48.2854ZM104.107 48.5594V42.0728C104.107 41.3419 103.833 40.7938 103.102 40.7938C102.371 40.7938 102.097 41.3419 102.097 42.0728V48.5594C102.097 49.2903 102.371 49.8385 103.102 49.8385C103.742 49.8385 104.107 49.2903 104.107 48.5594ZM109.132 43.8087V51.3916H107.396V39.4233H109.406L111.599 46.2754V39.4233H113.243V51.3916H111.507L109.132 43.8087ZM117.72 44.9963H120.552V51.3916H119.09V50.1126C118.816 51.0262 118.268 51.5743 117.172 51.5743C115.436 51.5743 114.614 50.2039 114.614 48.3767V42.5296C114.614 40.611 115.527 39.3319 117.628 39.3319C119.821 39.3319 120.552 40.611 120.552 42.3469V43.4432H118.725V42.2555C118.725 41.5246 118.451 41.0678 117.72 41.0678C116.989 41.0678 116.715 41.616 116.715 42.3469V48.8335C116.715 49.5644 116.989 50.1126 117.72 50.1126C118.359 50.1126 118.725 49.7471 118.725 48.9249V46.5495H117.811V44.9963H117.72Z" fill="white"/>
<path d="M55.96 56.5992H57.9699V68.5675H55.96V56.5992ZM61.0762 61.076V68.6589H59.4317V56.5992H61.4416L63.6343 63.4513V56.5992H65.2788V68.5675H63.5429L61.0762 61.076ZM66.4665 66.0094V64.3649H68.385V66.0094C68.385 66.6489 68.6592 67.1058 69.39 67.1058C70.0296 67.1058 70.3037 66.6489 70.3037 66.0094V65.5526C70.3037 64.8217 70.0296 64.4563 69.39 63.8168L68.2023 62.629C67.0146 61.5327 66.5578 60.8018 66.5578 59.4314V59.066C66.5578 57.6042 67.4715 56.4165 69.39 56.4165C71.4 56.4165 72.2222 57.4215 72.2222 59.1573V60.1623H70.395V59.1573C70.395 58.4264 70.1209 58.1524 69.4814 58.1524C68.9332 58.1524 68.5678 58.4264 68.5678 59.1573V59.4314C68.5678 60.0709 68.9332 60.5278 69.4814 61.076L70.7605 62.355C71.8568 63.4513 72.405 64.1822 72.405 65.4613V66.0094C72.405 67.6539 71.4913 68.8416 69.4814 68.8416C67.2887 68.7503 66.4665 67.5626 66.4665 66.0094ZM73.0445 56.5992H78.4348V58.2437H76.7903V68.5675H74.7803V58.2437H73.1358L73.0445 56.5992ZM79.5311 56.5992H81.5411V68.5675H79.5311V56.5992ZM82.6374 56.5992H88.0277V58.2437H86.3832V68.5675H84.3732V58.2437H82.7287V56.5992H82.6374ZM94.9712 56.5992V65.644C94.9712 67.4712 94.1489 68.7502 92.1389 68.7502C90.0376 68.7502 89.124 67.5626 89.124 65.644V56.5992H91.134V65.9181C91.134 66.649 91.408 67.1058 92.1389 67.1058C92.8698 67.1058 93.1439 66.649 93.1439 65.9181V56.5992H94.9712ZM96.0674 56.5992H101.458V58.2437H99.8133V68.5675H97.8033V58.2437H96.1588V56.5992H96.0674ZM102.554 56.5992H104.564V68.5675H102.554V56.5992ZM105.934 65.4613V59.6141C105.934 57.6956 106.848 56.4165 108.949 56.4165C111.051 56.4165 112.056 57.7869 112.056 59.6141V65.4613C112.056 67.2885 111.142 68.6589 108.949 68.6589C106.848 68.7503 105.934 67.3799 105.934 65.4613ZM110.046 65.8267V59.3401C110.046 58.6092 109.772 58.061 109.041 58.061C108.31 58.061 108.036 58.6092 108.036 59.3401V65.8267C108.036 66.5576 108.31 67.1058 109.041 67.1058C109.68 67.0144 110.046 66.5576 110.046 65.8267ZM115.071 61.076V68.6589H113.335V56.5992H115.345L117.537 63.4513V56.5992H119.182V68.5675H117.446L115.071 61.076ZM120.461 66.0094V64.3649H122.379V66.0094C122.379 66.6489 122.654 67.1058 123.384 67.1058C124.024 67.1058 124.298 66.6489 124.298 66.0094V65.5526C124.298 64.8217 124.024 64.4563 123.384 63.8168L122.197 62.629C121.009 61.5327 120.552 60.8018 120.552 59.4314V59.066C120.552 57.6042 121.466 56.4165 123.384 56.4165C125.394 56.4165 126.217 57.4215 126.217 59.1573V60.1623H124.389V59.1573C124.389 58.4264 124.115 58.1524 123.476 58.1524C122.928 58.1524 122.562 58.4264 122.562 59.1573V59.4314C122.562 60.0709 122.928 60.5278 123.476 61.076L124.755 62.355C125.851 63.4513 126.399 64.1822 126.399 65.4613V66.0094C126.399 67.6539 125.486 68.8416 123.476 68.8416C121.283 68.7503 120.461 67.5626 120.461 66.0094Z" fill="white"/>
<path d="M104.016 81.358C104.016 81.358 102.737 83.0026 103.102 84.6471C103.467 86.2916 105.295 87.2052 105.295 87.2052C105.295 87.2052 106.574 85.5607 106.208 83.9162C105.843 82.2717 104.016 81.358 104.016 81.358ZM102.006 90.6769C102.006 90.6769 103.285 89.0324 102.919 87.3879C102.554 85.7434 100.727 84.8298 100.727 84.8298C100.727 84.8298 99.4475 86.4743 99.813 88.0274C100.178 89.7633 102.006 90.6769 102.006 90.6769ZM107.122 88.941C107.122 88.941 108.401 90.2201 109.954 90.1287C111.416 90.0374 112.512 88.4842 112.512 88.4842C112.512 88.4842 111.233 87.2051 109.68 87.2965C108.218 87.3879 107.122 88.941 107.122 88.941ZM109.223 81.9062C108.035 83.0939 108.218 85.2866 108.218 85.2866C108.218 85.2866 110.319 85.4693 111.599 84.2816C112.786 83.0939 112.604 80.9012 112.604 80.9012C112.604 80.9012 110.411 80.7185 109.223 81.9062ZM106.574 93.8745C108.035 94.0572 109.406 92.7782 109.406 92.7782C109.406 92.7782 108.401 91.2251 106.939 91.0423C105.477 90.8596 104.107 92.1387 104.107 92.1387C104.107 92.1387 105.112 93.6918 106.574 93.8745ZM107.853 119.547H96.7981C95.9758 119.547 95.2449 120.278 95.2449 121.1C95.2449 121.922 95.9758 122.653 96.7981 122.653H107.853C108.675 122.653 109.406 121.922 109.406 121.1C109.497 120.278 108.766 119.547 107.853 119.547ZM107.853 136.906H96.7981C95.9758 136.906 95.2449 137.636 95.2449 138.459C95.2449 139.281 95.9758 140.012 96.7981 140.012H107.853C108.675 140.012 109.406 139.281 109.406 138.459C109.497 137.545 108.766 136.906 107.853 136.906ZM58.061 115.801C57.7869 115.71 57.5128 115.618 57.3301 115.618C57.3301 115.618 57.6042 115.71 58.061 115.801Z" fill="white"/>
<path d="M107.487 123.841H97.255C96.7982 123.841 96.3414 124.206 96.3414 124.755V127.861L89.672 128.592L79.8964 128.409V122.379C81.1754 122.196 82.4545 121.922 83.8249 121.557C93.2351 118.907 95.3364 111.142 95.0623 105.751C94.8796 100.27 96.6154 98.1685 99.1735 97.1635C99.9044 96.8894 100.635 96.7067 101.275 96.6153C101.275 97.9857 101.549 99.5389 102.188 101.366C102.371 101.366 102.645 101.366 102.828 101.275C102.188 99.3562 101.914 97.803 101.914 96.4326C103.193 96.2499 104.107 96.3412 104.107 96.3412C104.107 96.3412 103.193 95.8844 102.006 94.7881C102.463 92.23 104.016 90.5855 105.569 88.941C106.482 88.0274 107.396 87.1138 108.036 86.0174L107.487 85.652C106.848 86.7483 105.934 87.5706 105.112 88.4842C103.559 90.0373 102.006 91.6818 101.458 94.3313C100.909 93.8745 100.361 93.3263 99.8131 92.6868C97.529 90.0373 94.5141 91.9559 90.2201 95.9758C85.9262 99.9043 80.6272 100.087 75.3283 94.6967C68.3849 87.5706 62.355 87.662 58.2438 88.0274C61.076 89.2151 62.0809 91.8645 63.5427 98.6253C65.0045 105.66 68.8416 108.858 74.0492 109.315C71.1257 110.319 71.0343 111.964 67.1971 114.613C64.1822 116.715 59.9796 116.075 58.2438 115.618C61.4414 116.623 65.0959 119.912 68.4762 121.1C70.3948 121.74 72.4961 122.196 74.5974 122.379V128.135L57.0561 127.769V131.789L89.8547 131.058L96.524 131.789V134.896C96.524 135.352 96.8895 135.809 97.4376 135.809H107.67C108.127 135.809 108.584 135.444 108.584 134.896V124.663C108.401 124.206 107.944 123.841 107.487 123.841ZM76.0592 122.562C76.7901 122.562 77.5209 122.562 78.2518 122.47V128.226L76.0592 128.135V122.562ZM55.8684 131.15C55.8684 131.972 55.3202 132.703 54.5893 132.703H53.7671C53.0362 132.703 52.488 132.063 52.488 131.15V128.409C52.488 127.587 53.0362 126.856 53.7671 126.856H54.5893C55.3202 126.856 55.8684 127.495 55.8684 128.409V131.15Z" fill="white"/>
</g>
<defs>
<filter id="filter0_d_796_361" x="0" y="0" width="167" height="167" filterUnits="userSpaceOnUse" color-interpolation-filters="sRGB">
<feFlood flood-opacity="0" result="BackgroundImageFix"/>
<feColorMatrix in="SourceAlpha" type="matrix" values="0 0 0 0 0 0 0 0 0 0 0 0 0 0 0 0 0 0 127 0" result="hardAlpha"/>
<feOffset dx="1" dy="1"/>
<feGaussianBlur stdDeviation="5"/>
<feComposite in2="hardAlpha" operator="out"/>
<feColorMatrix type="matrix" values="0 0 0 0 0 0 0 0 0 0 0 0 0 0 0 0 0 0 0.15 0"/>
<feBlend mode="normal" in2="BackgroundImageFix" result="effect1_dropShadow_796_361"/>
<feBlend mode="normal" in="SourceGraphic" in2="effect1_dropShadow_796_361" result="shape"/>
</filter>
</defs>
</svg>
