<svg width="167" height="167" viewBox="0 0 167 167" fill="none" xmlns="http://www.w3.org/2000/svg">
<g filter="url(#filter0_d_796_362)">
<path d="M9 19C9 13.4772 13.4772 9 19 9H146C151.523 9 156 13.4772 156 19V146C156 151.523 151.523 156 146 156H19C13.4772 156 9 151.523 9 146V19Z" fill="#19486A"/>
<path d="M31.0178 21.3337V51.0261H25.993V28.2772L22.4299 31.9316V26.724L26.998 21.3337H31.0178ZM33.3019 21.3337H45.727V25.9931L39.2403 51.0261H34.3069L40.9762 25.445H33.3019V21.3337ZM119.821 98.1684C119.821 87.8446 111.598 79.4394 101.366 79.0739C98.7164 71.6737 91.5903 66.2834 83.2764 66.2834C74.9625 66.2834 67.8364 71.5823 65.1869 79.0739C54.9545 79.4394 46.732 87.8446 46.732 98.1684C46.732 104.29 49.6555 109.771 54.1322 113.243C53.6754 114.888 53.4013 116.715 53.4013 118.542C53.4013 129.14 61.9893 137.728 72.5871 137.728C76.607 137.728 80.3528 136.449 83.3677 134.347C86.3827 136.357 90.0371 137.545 93.9657 137.545C104.564 137.545 113.152 128.957 113.152 118.359C113.152 116.532 112.877 114.796 112.421 113.152C116.989 109.771 119.821 104.29 119.821 98.1684ZM98.6251 85.4692C98.6251 93.1435 92.9607 99.4474 85.5604 100.544C85.4691 99.8129 85.3777 98.9907 85.3777 98.1684C85.3777 90.4941 91.0421 84.1902 98.4423 83.0938C98.5337 83.8247 98.6251 84.6469 98.6251 85.4692ZM83.4591 129.414C80.6269 126.673 78.7997 122.745 78.7997 118.451C78.7997 114.248 80.5356 110.411 83.2764 107.579C86.1086 110.319 87.9358 114.248 87.9358 118.542C87.9358 122.836 86.2 126.673 83.4591 129.414ZM68.2932 83.0938C75.6934 84.1902 81.3578 90.4941 81.3578 98.1684C81.3578 98.9907 81.2665 99.7215 81.1751 100.544C73.7749 99.4474 68.1105 93.1435 68.1105 85.4692C68.1105 84.6469 68.1104 83.8247 68.2932 83.0938ZM79.7133 105.021C77.1552 110.045 72.039 113.517 66.1005 113.517C63.5424 113.517 61.167 112.878 59.0657 111.781C61.6238 106.756 66.74 103.285 72.7699 103.285C75.1453 103.285 77.612 103.924 79.7133 105.021ZM87.0222 104.929C89.1235 103.833 91.4989 103.193 94.057 103.193C100.087 103.193 105.294 106.665 107.761 111.781C105.66 112.878 103.193 113.517 100.726 113.517C94.6965 113.517 89.4889 110.045 87.0222 104.929ZM83.3677 70.1205C89.6717 70.1205 95.062 73.8664 97.346 79.348C91.1335 80.4444 85.9259 84.5556 83.3677 90.1286C80.8096 84.5556 75.6021 80.4444 69.3895 79.348C71.6735 73.9577 77.0638 70.1205 83.3677 70.1205ZM50.7519 98.1684C50.7519 90.3114 56.7817 83.8247 64.3646 83.0025C64.2733 83.8247 64.1819 84.6469 64.1819 85.4692C64.1819 91.0422 66.5574 96.0671 70.3945 99.6302C63.9992 100.361 58.6089 104.198 55.6853 109.589C52.6704 106.756 50.7519 102.736 50.7519 98.1684ZM57.3298 118.633C57.3298 117.537 57.4212 116.532 57.6953 115.436C60.2534 116.623 62.9942 117.354 66.0091 117.354C69.3895 117.354 72.4958 116.532 75.2366 114.979C75.0539 116.075 74.8712 117.263 74.8712 118.542C74.8712 123.75 76.9725 128.409 80.2615 131.881C77.9775 133.251 75.328 133.982 72.5871 133.982C64.1819 133.891 57.3298 127.039 57.3298 118.633ZM109.406 118.451C109.406 126.856 102.554 133.708 94.1484 133.708C91.4076 133.708 88.8494 132.977 86.5654 131.698C89.8544 128.226 91.8644 123.658 91.8644 118.542C91.8644 117.263 91.773 116.075 91.4989 114.887C94.2397 116.441 97.4374 117.263 100.818 117.263C103.833 117.263 106.665 116.532 109.132 115.344C109.223 116.441 109.406 117.446 109.406 118.451ZM96.341 99.4475C100.087 95.9758 102.462 90.9509 102.462 85.3779C102.462 84.5556 102.371 83.7333 102.28 82.9111C109.954 83.7333 115.892 90.22 115.892 98.0771C115.892 102.554 113.974 106.574 110.867 109.406C108.127 104.107 102.736 100.27 96.341 99.4475Z" fill="white"/>
<path d="M55.8682 21.3339H58.8831C60.893 21.3339 61.6239 22.3389 61.6239 23.9834V26.5415C61.6239 28.186 60.893 29.2823 58.8831 29.2823H57.8781V33.3936H55.8682V21.3339ZM57.9695 22.9784V27.7292H58.7003C59.4312 27.7292 59.7053 27.3637 59.7053 26.7242V23.9834C59.7053 23.3439 59.4312 22.9784 58.7003 22.9784H57.9695ZM61.898 33.3936L64.182 21.4253H66.466L68.7501 33.3936H66.6488L66.2834 31.2009H64.182L63.8166 33.3936H61.898ZM64.4561 29.5564H66.1006L65.2783 24.7143L64.4561 29.5564ZM71.8564 27.8206V33.3022H69.8464V21.3339H72.77C74.7799 21.3339 75.5108 22.3389 75.5108 23.9834V25.5365C75.5108 26.8156 75.054 27.5465 73.8663 27.8206L75.7849 33.3022H73.6836L71.8564 27.8206ZM71.8564 22.9784V26.7242H72.4959C73.2268 26.7242 73.5008 26.3588 73.5008 25.7193V23.9834C73.5008 23.3439 73.2268 22.9784 72.4959 22.9784H71.8564ZM76.2417 21.3339H81.632V22.9784H79.9875V33.3022H77.9776V22.9784H76.3331V21.3339H76.2417ZM84.5556 25.8106V33.3936H82.8197V21.4253H84.8296L87.0223 28.2774V21.4253H88.6668V33.3936H86.9309L84.5556 25.8106ZM90.4027 21.3339H95.2448V22.9784H92.4126V26.4501H94.4226V28.0946H92.4126V31.7491H95.2448V33.3936H90.4027V21.3339ZM98.5338 27.8206V33.3022H96.5239V21.3339H99.4474C101.457 21.3339 102.188 22.3389 102.188 23.9834V25.5365C102.188 26.8156 101.731 27.5465 100.544 27.8206L102.462 33.3022H100.361L98.5338 27.8206ZM98.5338 22.9784V26.7242H99.1734C99.9042 26.7242 100.178 26.3588 100.178 25.7193V23.9834C100.178 23.3439 99.9042 22.9784 99.1734 22.9784H98.5338ZM103.193 30.7441V29.191H105.112V30.8355C105.112 31.475 105.386 31.9318 106.117 31.9318C106.756 31.9318 107.03 31.475 107.03 30.8355V30.3787C107.03 29.6478 106.756 29.2824 106.117 28.6428L104.929 27.4551C103.741 26.3588 103.285 25.6279 103.285 24.2575V23.892C103.285 22.4303 104.198 21.2426 106.117 21.2426C108.127 21.2426 108.949 22.2475 108.949 23.9834V24.9884H107.122V23.9834C107.122 23.2525 106.848 22.9784 106.208 22.9784C105.66 22.9784 105.295 23.2525 105.295 23.9834V24.2575C105.295 24.897 105.66 25.3538 106.208 25.902L107.487 27.181C108.584 28.2774 109.132 29.0083 109.132 30.2873V30.8355C109.132 32.48 108.218 33.6677 106.208 33.6677C104.015 33.485 103.193 32.3886 103.193 30.7441ZM114.248 28.0946H112.329V33.3936H110.228V21.4253H112.238V26.5415H114.157V21.4253H116.166V33.3936H114.157V28.0946H114.248ZM117.628 21.3339H119.638V33.3022H117.628V21.3339ZM120.917 21.3339H123.932C125.942 21.3339 126.673 22.3389 126.673 23.9834V26.5415C126.673 28.186 125.942 29.2823 123.932 29.2823H123.019V33.3936H121.009L120.917 21.3339ZM123.019 22.9784V27.7292H123.749C124.48 27.7292 124.754 27.3637 124.754 26.7242V23.9834C124.754 23.3439 124.48 22.9784 123.749 22.9784H123.019ZM127.495 30.7441V29.191H129.414V30.8355C129.414 31.475 129.688 31.9318 130.419 31.9318C131.058 31.9318 131.332 31.475 131.332 30.8355V30.3787C131.332 29.6478 131.058 29.2824 130.419 28.6428L129.231 27.4551C128.043 26.3588 127.587 25.6279 127.587 24.2575V23.892C127.587 22.4303 128.5 21.2426 130.419 21.2426C132.429 21.2426 133.251 22.2475 133.251 23.9834V24.9884H131.424V23.9834C131.424 23.2525 131.15 22.9784 130.51 22.9784C129.962 22.9784 129.597 23.2525 129.597 23.9834V24.2575C129.597 24.897 129.962 25.3538 130.51 25.902L131.789 27.181C132.886 28.2774 133.434 29.0083 133.434 30.2873V30.8355C133.434 32.48 132.52 33.6677 130.51 33.6677C128.318 33.485 127.495 32.3886 127.495 30.7441Z" fill="white"/>
<path d="M55.8682 38.7839H60.619V40.4284H57.8781V43.9001H59.8881V45.5446H57.8781V50.8435H55.8682V38.7839ZM61.3498 47.7372V41.8902C61.3498 39.9716 62.2634 38.6925 64.3647 38.6925C66.466 38.6925 67.471 40.0629 67.471 41.8902V47.7372C67.471 49.5645 66.5574 50.9349 64.3647 50.9349C62.2634 50.9349 61.3498 49.5645 61.3498 47.7372ZM65.4611 48.0113V41.5247C65.4611 40.7938 65.187 40.2456 64.4561 40.2456C63.7252 40.2456 63.4511 40.7938 63.4511 41.5247V48.0113C63.4511 48.7422 63.7252 49.2904 64.4561 49.2904C65.0957 49.2904 65.4611 48.7422 65.4611 48.0113ZM70.76 45.2705V50.7522H68.7501V38.7839H71.6736C73.6836 38.7839 74.4145 39.7889 74.4145 41.4334V42.9865C74.4145 44.2655 73.9577 44.9964 72.77 45.2705L74.6885 50.7522H72.5872L70.76 45.2705ZM70.76 40.4284V44.1742H71.3996C72.1304 44.1742 72.4045 43.8087 72.4045 43.1692V41.4334C72.4045 40.7938 72.1304 40.4284 71.3996 40.4284H70.76ZM77.7035 38.7839H83.0938V40.4284H81.4493V50.7522H79.4393V40.4284H77.7948V38.7839H77.7035ZM87.9359 45.5446H86.0173V50.8435H84.0074V38.8752H86.0173V43.9915H87.9359V38.8752H89.9458V50.8435H87.9359V45.5446ZM91.3163 38.7839H96.1584V40.4284H93.3262V43.9001H95.3362V45.5446H93.3262V49.1991H96.1584V50.8435H91.3163V38.7839ZM102.645 44.4483H105.477V50.8435H104.015V49.5645C103.741 50.4781 103.193 51.0263 102.097 51.0263C100.361 51.0263 99.5388 49.6559 99.5388 47.8286V41.9815C99.5388 40.0629 100.452 38.7839 102.554 38.7839C104.746 38.7839 105.477 40.0629 105.477 41.7988V42.8951H103.65V41.7074C103.65 40.9765 103.376 40.5198 102.645 40.5198C101.914 40.5198 101.64 41.0679 101.64 41.7988V48.2854C101.64 49.0163 101.914 49.5645 102.645 49.5645C103.285 49.5645 103.65 49.199 103.65 48.3768V46.2755H102.736V44.4483H102.645ZM106.574 47.7372V41.8902C106.574 39.9716 107.487 38.6925 109.588 38.6925C111.69 38.6925 112.695 40.0629 112.695 41.8902V47.7372C112.695 49.5645 111.781 50.9349 109.588 50.9349C107.579 50.9349 106.574 49.5645 106.574 47.7372ZM110.685 48.0113V41.5247C110.685 40.7938 110.411 40.2456 109.68 40.2456C108.949 40.2456 108.675 40.7938 108.675 41.5247V48.0113C108.675 48.7422 108.949 49.2904 109.68 49.2904C110.411 49.2904 110.685 48.7422 110.685 48.0113ZM113.334 50.8435L115.618 38.8752H117.902L120.186 50.8435H118.085L117.72 48.6509H115.618L115.253 50.8435H113.334ZM115.801 47.0064H117.446L116.623 42.1642L115.801 47.0064ZM121.191 38.7839H123.201V49.1077H125.577V50.7522H121.191V38.7839ZM126.308 48.1941V46.5496H128.226V48.1941C128.226 48.8336 128.5 49.2904 129.231 49.2904C129.871 49.2904 130.145 48.8336 130.145 48.1941V47.7372C130.145 47.0064 129.871 46.6409 129.231 46.0014L128.043 44.8137C126.856 43.7173 126.399 42.9865 126.399 41.616V41.2506C126.399 39.7889 127.313 38.6011 129.231 38.6011C131.241 38.6011 132.063 39.6061 132.063 41.342V42.347H130.236V41.342C130.236 40.6111 129.962 40.337 129.323 40.337C128.774 40.337 128.409 40.6111 128.409 41.342V41.616C128.409 42.2556 128.774 42.7124 129.323 43.2606L130.602 44.5396C131.698 45.6359 132.246 46.3669 132.246 47.6459V48.1941C132.246 49.8386 131.332 51.0263 129.323 51.0263C127.13 50.9349 126.308 49.8386 126.308 48.1941Z" fill="white"/>
</g>
<defs>
<filter id="filter0_d_796_362" x="0" y="0" width="167" height="167" filterUnits="userSpaceOnUse" color-interpolation-filters="sRGB">
<feFlood flood-opacity="0" result="BackgroundImageFix"/>
<feColorMatrix in="SourceAlpha" type="matrix" values="0 0 0 0 0 0 0 0 0 0 0 0 0 0 0 0 0 0 127 0" result="hardAlpha"/>
<feOffset dx="1" dy="1"/>
<feGaussianBlur stdDeviation="5"/>
<feComposite in2="hardAlpha" operator="out"/>
<feColorMatrix type="matrix" values="0 0 0 0 0 0 0 0 0 0 0 0 0 0 0 0 0 0 0.15 0"/>
<feBlend mode="normal" in2="BackgroundImageFix" result="effect1_dropShadow_796_362"/>
<feBlend mode="normal" in="SourceGraphic" in2="effect1_dropShadow_796_362" result="shape"/>
</filter>
</defs>
</svg>
