<svg width="167" height="167" viewBox="0 0 167 167" fill="none" xmlns="http://www.w3.org/2000/svg">
<g filter="url(#filter0_d_796_1594)">
<path d="M9 19C9 13.4772 13.4772 9 19 9H146C151.523 9 156 13.4772 156 19V146C156 151.523 151.523 156 146 156H19C13.4772 156 9 151.523 9 146V19Z" fill="#E5243B"/>
<path d="M29.4649 28.3687H29.5562V51.0263H34.4897V21.4253H30.5612L25.9932 26.8156V32.0232L29.4649 28.3687ZM128.866 83.2767C131.15 83.2767 132.886 81.4495 132.886 79.1655C132.886 76.8815 131.058 75.0542 128.866 75.0542C126.582 75.0542 124.755 76.8815 124.755 79.1655C124.755 81.4495 126.582 83.2767 128.866 83.2767ZM133.617 84.8299H124.115C121.374 85.104 119.181 87.388 119.181 90.2202V101.458C119.181 102.28 119.912 103.011 120.735 103.011C121.648 103.011 122.288 102.28 122.288 101.458V91.7733C122.288 91.4079 122.379 90.9511 123.019 90.9511C123.475 90.9511 123.567 91.4079 123.567 91.7733V120.826C123.567 122.105 124.572 123.11 125.851 123.11C127.13 123.11 128.135 122.105 128.135 120.826V104.016C128.135 103.833 128.226 103.376 128.774 103.376C129.323 103.376 129.414 103.833 129.414 104.016V120.735C129.414 122.014 130.419 123.019 131.698 123.019C132.977 123.019 133.982 122.014 133.982 120.735V91.682C133.982 91.4079 134.073 90.8597 134.53 90.8597C135.17 90.8597 135.261 91.3165 135.261 91.682V101.366C135.261 102.189 135.992 102.919 136.814 102.919C137.728 102.919 138.367 102.189 138.367 101.366V90.2202C138.55 87.388 136.357 85.0126 133.617 84.8299ZM96.7067 85.1953C98.808 85.1953 100.544 83.4595 100.544 81.3582C100.544 79.2569 98.808 77.521 96.7067 77.521C94.6054 77.521 92.8695 79.2569 92.8695 81.3582C92.8695 83.4595 94.6054 85.1953 96.7067 85.1953ZM101.275 92.2301C101.823 92.0474 101.914 92.7783 101.914 92.7783L104.472 101.458C104.472 101.458 104.929 103.285 106.574 102.828C108.218 102.371 107.67 100.453 107.67 100.453L104.472 90.0375C104.472 90.0375 103.285 87.0226 100.818 87.0226H92.5954C90.0373 87.0226 88.941 90.0375 88.941 90.0375L85.7433 100.453C85.7433 100.453 85.1952 102.371 86.8397 102.828C88.4842 103.285 88.941 101.458 88.941 101.458L91.4991 92.7783C91.4991 92.7783 91.6818 92.1388 92.1386 92.2301C92.6868 92.4129 92.4127 93.0524 92.4127 93.0524L87.936 109.406H92.1386V121.1C92.1386 122.197 93.0522 123.11 94.1485 123.11C95.2449 123.11 96.1585 122.197 96.1585 121.1V109.406H97.2548V121.1C97.2548 122.197 98.1684 123.11 99.2648 123.11C100.361 123.11 101.275 122.197 101.275 121.1V109.406H105.477L101.001 93.0524C101.001 93.0524 100.818 92.4129 101.275 92.2301ZM73.5923 85.1953C75.6936 85.1953 77.4295 83.4595 77.4295 81.3582C77.4295 79.2569 75.6936 77.521 73.5923 77.521C71.491 77.521 69.7551 79.2569 69.7551 81.3582C69.7551 83.4595 71.491 85.1953 73.5923 85.1953ZM81.358 90.0375C81.358 90.0375 80.2617 87.0226 77.7035 87.0226H69.481C66.9229 87.0226 65.8266 90.0375 65.8266 90.0375L62.629 100.453C62.629 100.453 62.5376 100.727 62.5376 101.092C62.3549 100.818 61.9894 100.635 61.624 100.635C61.1672 100.635 60.8017 100.818 60.619 101.184C60.5277 101.275 59.0659 103.924 58.5177 104.381C57.9695 104.929 57.5127 104.838 57.5127 104.838H53.6756C53.6756 104.838 53.2188 104.929 52.6706 104.381C52.2138 103.924 50.6607 101.184 50.5693 101.184C50.3866 100.818 50.0211 100.635 49.5643 100.635C49.1989 100.635 48.8334 100.818 48.6507 101.184V90.2202C48.6507 87.388 46.4581 85.104 43.7172 84.8299H34.2157C31.4748 85.104 29.2822 87.388 29.2822 90.2202V101.458C29.2822 102.097 29.6476 102.554 30.1044 102.828C30.1044 102.828 30.0131 102.919 30.0131 103.011L26.3586 122.197C26.2672 122.562 26.5413 122.836 26.8154 122.927H26.9068C27.1809 122.927 27.4549 122.745 27.4549 122.471L31.1094 103.285V103.102C31.8403 102.919 32.2971 102.28 32.2971 101.549V91.8647C32.2971 91.4993 32.3884 91.0424 33.028 91.0424C33.4848 91.0424 33.5761 91.4993 33.5761 91.8647V120.918C33.5761 122.197 34.5811 123.202 35.8602 123.202C37.1392 123.202 38.1442 122.197 38.1442 120.918V104.016C38.1442 103.833 38.2356 103.376 38.7837 103.376C39.3319 103.376 39.4232 103.833 39.4232 104.016V120.735C39.4232 122.014 40.4282 123.019 41.7073 123.019C42.9863 123.019 43.9913 122.014 43.9913 120.735V91.682C43.9913 91.4079 44.0827 90.8597 44.5395 90.8597C45.179 90.8597 45.2704 91.3165 45.2704 91.682V101.366C45.2704 102.189 46.0012 102.919 46.8235 102.919C47.463 102.919 48.0112 102.554 48.2853 102.006C48.2853 102.097 48.3766 102.188 48.3766 102.188L51.5743 108.036C51.5743 108.036 51.757 108.401 51.757 108.767V109.954L50.0211 116.258H51.757V121.374C51.757 122.288 52.4879 122.927 53.3101 122.927C54.2237 122.927 54.8633 122.197 54.8633 121.374V116.441V116.258H55.7769V121.374C55.7769 122.288 56.5078 122.927 57.33 122.927C58.2436 122.927 58.8832 122.197 58.8832 121.374V116.258H60.619L58.8832 109.954V108.858C58.8832 108.492 59.0659 108.127 59.0659 108.127L62.0808 102.737C62.0808 102.737 62.2635 102.371 62.3549 102.006C62.5376 102.371 62.8117 102.645 63.2685 102.828C64.913 103.285 65.3698 101.458 65.3698 101.458L67.9279 92.7783C67.9279 92.7783 68.1106 92.1388 68.5674 92.2301C69.1156 92.4129 68.8415 93.0524 68.8415 93.0524L64.3648 109.406H68.5674V121.1C68.5674 122.197 69.481 123.11 70.5774 123.11C71.6737 123.11 72.5873 122.197 72.5873 121.1V109.406H73.6837V121.1C73.6837 122.197 74.5973 123.11 75.6936 123.11C76.7899 123.11 77.7035 122.197 77.7035 121.1V109.406H81.9062L77.4295 93.0524C77.4295 93.0524 77.2467 92.3215 77.7035 92.2301C78.2517 92.0474 78.3431 92.7783 78.3431 92.7783L80.9012 101.458C80.9012 101.458 81.358 103.285 83.0025 102.828C84.647 102.371 84.0988 100.453 84.0988 100.453L81.358 90.0375ZM113.517 102.828C115.253 102.828 116.715 101.366 116.715 99.6304C116.715 97.8945 115.253 96.4328 113.517 96.4328C111.781 96.4328 110.319 97.8945 110.319 99.6304C110.319 101.458 111.69 102.828 113.517 102.828ZM121.1 111.964C121.1 111.873 119.09 106.939 118.816 106.208C118.085 104.107 116.806 104.107 115.527 104.107H113.517H111.05C109.406 104.198 108.858 105.021 107.03 109.771C106.756 110.411 105.843 112.695 105.843 112.786C105.66 113.152 105.569 113.974 106.3 114.34C107.213 114.705 107.67 113.883 107.67 113.883L109.406 108.31C109.406 108.31 109.68 107.944 109.68 108.31V121.374C109.68 122.288 110.411 123.019 111.324 123.019C112.238 123.019 112.969 122.288 112.969 121.374V116.167C112.969 116.167 112.878 115.436 113.426 115.436C113.974 115.436 113.883 116.167 113.883 116.167V121.374C113.883 122.288 114.613 123.019 115.527 123.019C116.441 123.019 117.172 122.288 117.172 121.374V108.31C117.172 107.944 117.354 108.218 117.354 108.218L118.725 112.055C118.725 112.055 119.273 113.791 119.456 113.791C120.095 114.065 120.826 113.791 121.009 113.152C121.374 112.786 121.283 112.33 121.1 111.964ZM38.9664 83.2767C41.2505 83.2767 43.0777 81.4495 43.0777 79.1655C43.0777 76.8815 41.2505 75.0542 38.9664 75.0542C36.6824 75.0542 34.9465 76.8815 34.9465 79.1655C34.9465 81.4495 36.7738 83.2767 38.9664 83.2767Z" fill="white"/>
<path d="M55.5943 102.828C57.3302 102.828 58.792 101.366 58.792 99.6301C58.792 97.8943 57.3302 96.4325 55.5943 96.4325C53.8585 96.4325 52.3967 97.8943 52.3967 99.6301C52.3967 101.457 53.8585 102.828 55.5943 102.828ZM52.9448 25.6276V33.2106H51.209V21.2423H53.2189L55.4116 28.0944V21.2423H57.0561V33.2106H55.3202L52.9448 25.6276ZM58.4265 30.1043V24.2572C58.4265 22.3386 59.3401 21.0596 61.4414 21.0596C63.5427 21.0596 64.5477 22.43 64.5477 24.2572V30.1043C64.5477 31.9315 63.6341 33.302 61.4414 33.302C59.3401 33.302 58.4265 31.9315 58.4265 30.1043ZM62.5378 30.3784V23.8918C62.5378 23.1609 62.2637 22.6127 61.5328 22.6127C60.8019 22.6127 60.5278 23.1609 60.5278 23.8918V30.3784C60.5278 31.1093 60.8019 31.6575 61.5328 31.6575C62.1723 31.6575 62.5378 31.1093 62.5378 30.3784ZM51.3004 38.9664H54.3153C56.3252 38.9664 57.0561 39.9713 57.0561 41.6158V44.1739C57.0561 45.8184 56.3252 46.9148 54.3153 46.9148H53.3103V51.026H51.3004V38.9664ZM53.3103 40.6109V45.3616H54.0412C54.7721 45.3616 55.0461 44.9962 55.0461 44.3567V41.6158C55.0461 40.9763 54.7721 40.6109 54.0412 40.6109H53.3103ZM58.2438 47.9197V42.0726C58.2438 40.154 59.1574 38.875 61.2587 38.875C63.36 38.875 64.365 40.2454 64.365 42.0726V47.9197C64.365 49.747 63.4514 51.1174 61.2587 51.1174C59.1574 51.1174 58.2438 49.747 58.2438 47.9197ZM62.355 48.1938V41.7072C62.355 40.9763 62.081 40.4281 61.3501 40.4281C60.6192 40.4281 60.3451 40.9763 60.3451 41.7072V48.1938C60.3451 48.9247 60.6192 49.4729 61.3501 49.4729C61.9896 49.4729 62.355 48.9247 62.355 48.1938ZM71.8566 38.9664L69.5726 50.9346H67.3799L65.0959 38.9664H67.1058L68.4762 47.3716L69.938 38.9664H71.8566ZM72.8616 38.9664H77.7037V40.6109H74.8715V44.0826H76.8815V45.7271H74.8715V49.3815H77.7037V51.026H72.8616V38.9664ZM80.9013 45.453V50.9346H78.8914V38.9664H81.815C83.8249 38.9664 84.5558 39.9713 84.5558 41.6158V43.169C84.5558 44.448 84.099 45.1789 82.9113 45.453L84.8299 50.9346H82.7286L80.9013 45.453ZM80.9013 40.6109V44.3567H81.5409C82.2718 44.3567 82.5458 43.9912 82.5458 43.3517V41.6158C82.5458 40.9763 82.2718 40.6109 81.5409 40.6109H80.9013ZM85.4694 38.9664H90.8597V40.6109H89.2152V51.026H87.2052V40.7022H85.5608L85.4694 38.9664ZM95.8846 46.3666V50.9346H93.8746V46.3666L91.5906 38.9664H93.6919L94.8796 43.5344L96.0673 38.9664H97.9859L95.8846 46.3666Z" fill="white"/>
</g>
<defs>
<filter id="filter0_d_796_1594" x="0" y="0" width="167" height="167" filterUnits="userSpaceOnUse" color-interpolation-filters="sRGB">
<feFlood flood-opacity="0" result="BackgroundImageFix"/>
<feColorMatrix in="SourceAlpha" type="matrix" values="0 0 0 0 0 0 0 0 0 0 0 0 0 0 0 0 0 0 127 0" result="hardAlpha"/>
<feOffset dx="1" dy="1"/>
<feGaussianBlur stdDeviation="5"/>
<feComposite in2="hardAlpha" operator="out"/>
<feColorMatrix type="matrix" values="0 0 0 0 0 0 0 0 0 0 0 0 0 0 0 0 0 0 0.15 0"/>
<feBlend mode="normal" in2="BackgroundImageFix" result="effect1_dropShadow_796_1594"/>
<feBlend mode="normal" in="SourceGraphic" in2="effect1_dropShadow_796_1594" result="shape"/>
</filter>
</defs>
</svg>
