<svg width="167" height="167" viewBox="0 0 167 167" fill="none" xmlns="http://www.w3.org/2000/svg">
<g filter="url(#filter0_d_796_1772)">
<path d="M9 19C9 13.4771 13.4772 9 19 9H146C151.523 9 156 13.4772 156 19V146C156 151.523 151.523 156 146 156H19C13.4772 156 9 151.523 9 146V19Z" fill="#DD1367"/>
<path d="M23.2523 28.277V50.9346H28.1858V21.3336H24.2573L19.5979 26.6325V31.8401H19.6892L23.1609 28.277H23.2523ZM46.458 43.3516V29.0079C46.458 24.3485 44.174 20.9681 39.0578 20.9681C34.0329 20.9681 31.7489 24.3485 31.7489 29.0079V43.3516C31.7489 47.9197 34.0329 51.3914 39.0578 51.3914C44.0827 51.3 46.458 47.9197 46.458 43.3516ZM36.6824 44.0825V28.1857C36.6824 26.3584 37.3219 25.0794 39.0578 25.0794C40.7937 25.0794 41.4332 26.3584 41.4332 28.1857V44.0825C41.4332 45.9097 40.7937 47.1888 39.0578 47.1888C37.3219 47.1888 36.6824 45.9097 36.6824 44.0825Z" fill="white"/>
<path d="M57.9699 27.8203V33.3019H55.96V21.2422H58.8835C60.8935 21.2422 61.6244 22.2472 61.6244 23.8917V25.4449C61.6244 26.7239 61.1675 27.4548 59.9798 27.7289L61.8984 33.2106H59.7971L57.9699 27.8203ZM57.9699 22.8867V26.6325H58.6094C59.3403 26.6325 59.6144 26.2671 59.6144 25.6276V23.8917C59.6144 23.2522 59.3403 22.8867 58.6094 22.8867H57.9699ZM62.9948 21.2422H67.8369V22.8867H65.0047V26.3585H67.0146V28.003H65.0047V31.6574H67.8369V33.3019H62.9948V21.2422ZM74.689 24.5312V30.1043C74.689 31.9315 73.9581 33.3019 71.7654 33.3019H68.6591V21.2422H71.7654C73.9581 21.2422 74.689 22.6127 74.689 24.5312ZM71.4913 31.6574C72.3136 31.6574 72.679 31.2006 72.679 30.4697V24.1658C72.679 23.4349 72.405 22.9781 71.4913 22.9781H70.6691V31.6574H71.4913ZM81.9065 21.2422V30.287C81.9065 32.1142 81.0842 33.3933 79.0743 33.3933C76.973 33.3933 76.0594 32.2056 76.0594 30.287V21.2422H78.0694V30.5611C78.0694 31.292 78.3434 31.7488 79.0743 31.7488C79.8052 31.7488 80.0793 31.292 80.0793 30.5611V21.2422H81.9065ZM83.1856 30.1956V24.3485C83.1856 22.4299 84.0991 21.1509 86.2005 21.1509C88.3931 21.1509 89.0327 22.43 89.0327 24.1658V25.6276H87.2055V23.9831C87.2055 23.2522 86.9313 22.7954 86.2005 22.7954C85.4696 22.7954 85.1955 23.3436 85.1955 24.0744V30.5611C85.1955 31.292 85.4696 31.8401 86.2005 31.8401C86.9313 31.8401 87.2055 31.3833 87.2055 30.6524V28.4598H89.0327V30.5611C89.0327 32.2969 88.3018 33.576 86.2005 33.576C84.0991 33.3933 83.1856 32.0228 83.1856 30.1956ZM90.3117 21.2422H95.1538V22.8867H92.3217V26.3585H94.3316V28.003H92.3217V31.6574H95.1538V33.3019H90.3117V21.2422ZM102.463 24.5312V30.1043C102.463 31.9315 101.732 33.3019 99.5392 33.3019H96.4329V21.2422H99.5392C101.732 21.2422 102.463 22.6127 102.463 24.5312ZM99.2651 31.6574C100.087 31.6574 100.453 31.2006 100.453 30.4697V24.1658C100.453 23.4349 100.179 22.9781 99.2651 22.9781H98.4429V31.6574H99.2651Z" fill="white"/>
<path d="M55.96 38.7837H57.9699V50.752H55.96V38.7837ZM60.9848 43.169V50.752H59.2489V38.7837H61.2589L63.4516 45.6358V38.7837H65.0961V50.752H63.3602L60.9848 43.169ZM66.2838 38.7837H71.1259V40.4282H68.2937V43.8999H70.3037V45.5444H68.2937V49.1988H71.1259V50.8433H66.2838V38.7837ZM74.1408 51.5742V50.752C72.4963 50.4779 71.8568 49.2902 71.8568 47.6457V41.7986C71.8568 39.88 72.7704 38.601 74.8717 38.601C76.973 38.601 77.978 39.9714 77.978 41.7986V47.6457C77.978 48.9247 77.5212 50.0211 76.5162 50.4779L77.978 50.752V52.2137L74.1408 51.5742ZM75.968 48.1025V41.5245C75.968 40.7936 75.6939 40.2454 74.9631 40.2454C74.2322 40.2454 73.9581 40.7936 73.9581 41.5245V48.1025C73.9581 48.8334 74.2322 49.3815 74.9631 49.3815C75.6026 49.2902 75.968 48.8334 75.968 48.1025ZM84.9214 38.7837V47.8284C84.9214 49.6556 84.0992 50.9347 82.0892 50.9347C79.9879 50.9347 79.0743 49.747 79.0743 47.8284V38.7837H81.0843V48.1025C81.0843 48.8334 81.3583 49.2902 82.0892 49.2902C82.8201 49.2902 83.0942 48.8334 83.0942 48.1025V38.7837H84.9214ZM85.5609 50.752L87.8449 38.7837H90.129L92.413 50.752H90.3117L89.9463 48.5593H87.8449L87.4795 50.752H85.5609ZM88.1191 46.9148H89.7636L88.9413 42.0727L88.1191 46.9148ZM93.3266 38.7837H95.3366V49.1075H97.712V50.752H93.3266V38.7837ZM98.6256 38.7837H100.635V50.752H98.6256V38.7837ZM101.549 38.7837H106.939V40.4282H105.295V50.752H103.285V40.4282H101.641V38.7837H101.549ZM107.853 38.7837H109.863V50.752H107.853V38.7837ZM111.051 38.7837H115.893V40.4282H113.061V43.8999H115.071V45.5444H113.061V49.1988H115.893V50.8433H111.051V38.7837ZM116.715 48.1939V46.5494H118.634V48.1939C118.634 48.8334 118.908 49.2902 119.639 49.2902C120.278 49.2902 120.552 48.8334 120.552 48.1939V47.7371C120.552 47.0062 120.278 46.6407 119.639 46.0012L118.451 44.8135C117.263 43.7172 116.806 42.9863 116.806 41.6159V41.2504C116.806 39.7886 117.72 38.601 119.639 38.601C121.649 38.601 122.471 39.6059 122.471 41.3418V42.3468H120.644V41.3418C120.644 40.6109 120.37 40.3368 119.73 40.3368C119.182 40.3368 118.816 40.6109 118.816 41.3418V41.6159C118.816 42.2554 119.182 42.7122 119.73 43.2604L121.009 44.5394C122.105 45.6358 122.654 46.3666 122.654 47.6457V48.1939C122.654 49.8384 121.74 51.0261 119.73 51.0261C117.446 50.9347 116.715 49.747 116.715 48.1939Z" fill="white"/>
<path d="M57.5128 89.3062L43.7173 103.102L57.5128 116.989V89.3062ZM107.579 116.989L121.374 103.102L107.579 89.3062V116.989ZM96.4326 78.1601L82.5457 64.3646L68.7502 78.1601H96.4326ZM68.7502 128.135L82.5457 141.93L96.4326 128.135H68.7502ZM67.5626 90.2198H97.6203V98.5337H67.5626V90.2198ZM67.5626 107.396H97.6203V116.075H67.5626V107.396Z" fill="white"/>
</g>
<defs>
<filter id="filter0_d_796_1772" x="0" y="0" width="167" height="167" filterUnits="userSpaceOnUse" color-interpolation-filters="sRGB">
<feFlood flood-opacity="0" result="BackgroundImageFix"/>
<feColorMatrix in="SourceAlpha" type="matrix" values="0 0 0 0 0 0 0 0 0 0 0 0 0 0 0 0 0 0 127 0" result="hardAlpha"/>
<feOffset dx="1" dy="1"/>
<feGaussianBlur stdDeviation="5"/>
<feComposite in2="hardAlpha" operator="out"/>
<feColorMatrix type="matrix" values="0 0 0 0 0 0 0 0 0 0 0 0 0 0 0 0 0 0 0.15 0"/>
<feBlend mode="normal" in2="BackgroundImageFix" result="effect1_dropShadow_796_1772"/>
<feBlend mode="normal" in="SourceGraphic" in2="effect1_dropShadow_796_1772" result="shape"/>
</filter>
</defs>
</svg>
