<svg width="167" height="167" viewBox="0 0 167 167" fill="none" xmlns="http://www.w3.org/2000/svg">
<g filter="url(#filter0_d_796_1661)">
<path d="M9 19C9 13.4771 13.4772 9 19 9H146C151.523 9 156 13.4772 156 19V146C156 151.523 151.523 156 146 156H19C13.4772 156 9 151.523 9 146V19Z" fill="#3F7E44"/>
<path d="M27.5467 21.3339V51.0263H22.5218V28.2774L19.0501 31.9318H18.9587V26.7242L23.5268 21.3339H27.5467ZM43.9917 27.8206V30.3787C43.9917 32.8454 42.6213 34.4899 40.6113 35.2208C43.0781 35.769 44.2658 37.5048 44.2658 40.2456V44.631C44.2658 48.7423 42.0731 51.3917 37.0482 51.3917C32.0234 51.3917 30.1962 48.4682 30.1962 43.9915V40.063H34.7642V44.2656C34.7642 46.0014 35.4037 47.1891 37.0482 47.1891C38.6014 47.1891 39.2409 46.0928 39.2409 44.5396V39.6062C39.2409 38.053 38.51 37.2307 36.7742 37.2307H34.6729V33.3936H36.5914C38.2359 33.3936 39.2409 32.5713 39.2409 31.0182V27.8206C39.2409 26.1761 38.6927 25.1711 37.1396 25.1711C35.5865 25.1711 35.0383 26.176 35.0383 28.0946V31.1095H30.4702V28.4601C30.4702 24.0748 32.2975 21.0598 37.4137 21.0598C41.9817 21.0598 43.9917 23.6179 43.9917 27.8206ZM136.449 101.092C132.612 95.7019 115.071 73.9579 82.4547 73.9579C49.8388 73.9579 32.3888 95.6105 28.4603 101.092C28.2776 101.366 28.1862 101.549 28.0035 101.732C28.0949 101.914 28.2776 102.097 28.4603 102.371C32.2975 107.761 49.8388 129.505 82.4547 129.505C114.979 129.505 132.521 107.853 136.449 102.371C136.632 102.097 136.723 101.914 136.906 101.732C136.723 101.549 136.632 101.275 136.449 101.092ZM64.2738 87.6621C64.5479 87.2053 65.5529 86.0176 65.6443 85.8349C65.9184 85.4694 66.3752 85.4694 66.7406 85.3781C67.106 85.2867 67.5628 85.4694 67.5628 85.7435C67.6542 86.0176 67.4715 87.0226 67.2888 87.2053C66.832 87.6621 65.5529 88.393 64.9134 88.3016C64.4566 88.2103 64.1825 87.8448 64.2738 87.6621ZM63.1775 89.9461C63.2689 89.8547 63.2689 89.8547 63.2689 89.7634C63.6343 89.3066 64.4566 89.2152 65.0961 89.1238C65.6443 89.0325 66.3752 89.3066 66.4665 89.672C66.5579 90.0375 65.0961 90.7683 64.7307 90.9511C63.9084 91.6819 62.7207 93.1438 61.9898 93.3265C61.7157 93.4178 61.533 93.3264 61.4417 93.2351C61.8985 92.2301 62.538 91.0424 63.1775 89.9461ZM75.3285 114.979C74.8717 116.715 74.4149 117.354 73.9581 117.903C73.5013 118.451 71.8568 119.182 70.8518 119.09C69.8469 118.999 69.6642 116.258 69.6642 114.888C69.6642 114.431 68.9333 115.893 68.5678 112.878C68.2937 110.959 67.106 113.06 67.0147 111.781C66.9233 110.502 66.2838 110.776 65.6443 109.954C65.0047 109.132 64.1825 110.046 63.3602 110.411C62.4466 110.776 62.8121 111.05 61.6244 110.594H61.533C60.3453 107.853 59.7058 104.929 59.7058 101.732C59.7058 101.001 59.7058 100.179 59.7971 99.4477C59.7971 99.3563 59.8885 99.2649 59.9799 99.2649C61.1676 97.8032 61.1676 97.5291 61.1676 97.5291L62.538 97.0723C62.538 97.0723 64.6393 97.4377 66.2838 97.9859C67.5628 98.4427 69.6642 99.6304 70.8518 99.0822C71.7655 98.7168 72.405 98.26 72.3136 97.5291C72.2223 96.6155 71.4914 96.4328 70.6691 96.9809C70.3037 97.1636 69.6642 95.6105 69.116 95.7018C68.5678 95.7932 69.7555 97.6205 69.2987 97.6205C68.8419 97.7118 67.9283 95.7019 67.7456 95.4278C67.5629 95.1537 66.9233 94.3314 66.2838 94.971C64.9134 96.25 62.8121 96.1587 62.3553 96.5241C60.9848 97.5291 60.7108 96.1587 60.7108 95.4278C60.8021 95.245 60.8021 95.0623 60.8935 94.8796C61.3503 94.4228 62.9034 94.2401 63.4516 94.6055C63.9998 94.9709 64.4566 94.5142 64.7307 94.2401C65.0047 93.966 64.9134 93.6006 64.7307 93.3265C64.5479 93.0524 65.0047 92.7783 65.3702 92.6869C65.6443 92.5956 66.6492 91.8647 67.106 91.682C67.4715 91.4079 69.5728 91.2252 70.5778 91.682C71.4914 92.1388 72.405 91.7734 72.8618 91.2252C73.41 90.4943 74.1408 90.0375 74.5063 89.8548C74.8717 89.672 73.684 88.667 72.7704 89.7634C71.8568 90.9511 71.4 91.0424 70.9432 91.0424C70.4864 91.0424 67.9283 90.4029 67.5628 89.5806C67.2888 88.7584 68.3851 88.1189 69.3901 87.6621C70.395 87.2053 73.0445 87.2053 73.684 87.0225C75.0545 86.7485 76.7903 86.0176 77.7039 86.6571C78.6175 87.2053 74.0495 88.3016 75.5113 89.1238C76.0594 89.3979 78.4348 87.7534 79.2571 87.2966C81.1756 86.2916 77.3385 85.9262 77.8867 83.9163C78.4348 81.6323 73.1359 82.4545 70.5778 82.7286C74.1408 80.4445 78.2521 79.1655 82.8202 79.1655C93.5094 79.1655 102.463 86.5658 104.838 96.5241C104.838 96.9809 104.747 97.3463 104.747 97.5291C104.564 98.3513 103.011 99.0822 102.097 97.7118C101.823 97.3464 100.91 96.4328 100.91 98.0773C100.91 99.6304 102.463 99.8131 101.001 100.727C99.5392 101.64 99.2651 101.458 98.6256 101.64C97.9861 101.914 97.3466 103.468 97.4379 104.381C97.6207 105.203 99.6306 107.579 98.1688 107.487C97.8034 107.487 95.0625 105.569 94.6057 104.381C94.1489 103.102 93.6008 101.914 93.2353 100.909C92.8699 99.9958 91.8649 99.7217 91.134 100.27C90.3118 100.818 91.3167 101.366 90.7686 102.554C90.2204 103.742 89.7636 104.747 88.9413 103.833C86.7487 101.275 83.551 102.554 83.0029 99.7218C82.7288 98.1686 81.4497 98.3513 80.3534 97.4377C79.2571 96.6155 78.6175 96.0673 78.4348 96.7068C78.2521 97.255 81.9065 100.179 82.1806 100.909C82.5461 102.006 81.0843 103.011 79.988 103.193C78.8916 103.468 78.4348 102.554 77.3385 101.458C76.2422 100.361 75.7853 99.539 75.7853 100.453C75.694 101.732 76.7903 103.559 77.8867 104.198C78.8003 104.747 79.8052 105.021 79.5312 106.026C79.2571 106.939 79.5311 106.391 78.5262 107.487C77.5212 108.492 77.3385 108.858 77.3385 110.228C77.4299 111.69 77.0644 111.69 76.7903 112.878C76.3335 114.248 75.7853 113.243 75.3285 114.979ZM99.722 105.934C100.453 105.843 101.641 106.939 101.184 107.305C100.727 107.67 99.6306 107.579 98.9911 107.122C98.4429 106.665 99.3565 105.934 99.722 105.934ZM98.717 105.203C98.4429 105.112 98.2602 104.838 98.0775 104.29C97.8947 103.742 98.3515 103.376 98.8083 103.65C99.2652 103.924 99.9047 104.564 99.9047 104.929C99.9047 105.386 98.9911 105.386 98.717 105.203ZM88.6673 105.203C88.2105 105.569 87.1141 105.477 86.4746 105.021C85.9264 104.564 86.84 103.833 87.2055 103.833C88.0277 103.742 89.1241 104.838 88.6673 105.203ZM79.4398 109.68C79.1657 110.228 78.2521 113.974 77.7039 113.517C77.1558 113.06 77.978 109.132 78.0694 108.766C78.983 107.213 80.9016 107.305 79.4398 109.68ZM82.5461 124.481C80.3534 124.481 78.1607 124.115 76.1508 123.567C75.8767 123.293 75.694 122.927 75.8767 122.471C76.6076 120.643 78.7089 119.913 80.3534 119.73C84.0078 119.364 88.85 122.105 89.6722 121.648C90.4031 121.192 91.9563 119.182 94.2403 119.273C95.7934 119.364 95.7934 119.638 96.3416 119.821C92.5044 122.745 87.6623 124.481 82.5461 124.481ZM98.5343 117.903C98.3515 117.811 98.0775 117.72 97.8034 117.629C96.5243 116.989 96.707 117.994 96.0675 117.811C95.428 117.629 96.7984 116.167 94.8798 117.354C93.0526 118.542 93.5094 117.172 92.7785 115.162C91.9563 113.152 93.6921 110.868 95.1539 110.32C97.1638 109.589 98.3515 109.497 99.2652 109.223C102.006 108.584 102.554 106.939 103.102 107.944L103.376 108.492C103.559 108.766 103.742 109.406 103.742 109.954C102.554 112.969 100.818 115.619 98.5343 117.903ZM104.747 106.482C104.107 106.3 101.549 102.828 103.65 100.453C104.016 100.087 103.011 98.9908 103.285 98.8995C104.381 98.8081 104.93 99.539 105.295 100.453V101.732C105.204 103.376 105.021 104.929 104.747 106.482ZM55.8686 30.2873V24.4402C55.8686 22.5216 56.7822 21.2425 58.8835 21.2425C61.0762 21.2425 61.7157 22.5216 61.7157 24.2575V25.7193H59.8885V24.1661C59.8885 23.4352 59.6144 22.9784 58.8835 22.9784C58.1526 22.9784 57.8786 23.5266 57.8786 24.2575V30.7441C57.8786 31.475 58.1526 32.0231 58.8835 32.0231C59.6144 32.0231 59.8885 31.5664 59.8885 30.8355V28.6428H61.7157V30.7441C61.7157 32.48 60.9848 33.759 58.8835 33.759C56.7822 33.4849 55.8686 32.1145 55.8686 30.2873ZM62.9948 21.3339H65.0047V31.6577H67.3801V33.3022H62.9948V21.3339ZM68.5678 21.3339H70.5778V33.3022H68.5678V21.3339ZM77.6126 25.5365L76.1508 33.3022H75.2372L73.7754 25.5365V33.3022H72.1309V21.3339H74.5063L75.7853 28.0946L76.973 21.3339H79.5312V33.3022H77.7039L77.6126 25.5365ZM80.5361 33.3936L82.8202 21.4253H85.1042L87.3882 33.3936H85.2869L84.9214 31.2009H82.8202L82.4547 33.3936H80.5361ZM83.0029 29.5564H84.6474L83.8251 24.7143L83.0029 29.5564ZM87.1141 21.3339H92.5044V22.9784H90.8599V33.3022H88.85V22.9784H87.2055L87.1141 21.3339ZM93.6008 21.3339H98.4429V22.9784H95.6107V26.4501H97.6207V28.0946H95.6107V31.7491H98.4429V33.3936H93.6008V21.3339ZM55.5032 50.7522L57.7872 38.7839H60.0712L62.3553 50.7522H60.3453L59.9799 48.5595H57.8786L57.5131 50.7522H55.5032ZM58.0613 46.9151H59.7058L58.8835 42.0729L58.0613 46.9151ZM62.9948 47.6459V41.7988C62.9948 39.8802 63.9084 38.6012 66.0097 38.6012C68.2024 38.6012 68.8419 39.8802 68.8419 41.6161V43.0779H67.0147V41.5247C67.0147 40.7938 66.7406 40.337 66.0097 40.337C65.2788 40.337 65.0047 40.8852 65.0047 41.6161V48.1027C65.0047 48.8336 65.2788 49.3818 66.0097 49.3818C66.7406 49.3818 67.0147 48.925 67.0147 48.1941V46.0014H68.8419V48.1027C68.8419 49.8386 68.111 51.1176 66.0097 51.1176C63.817 50.9349 62.9948 49.4732 62.9948 47.6459ZM69.5728 38.7839H74.9631V40.4284H73.3186V50.7522H71.3087V40.4284H69.6642L69.5728 38.7839ZM76.0594 38.7839H78.0694V50.7522H76.0594V38.7839ZM79.4398 47.6459V41.7988C79.4398 39.8802 80.3534 38.6012 82.4547 38.6012C84.556 38.6012 85.561 39.9716 85.561 41.7988V47.6459C85.561 49.4732 84.6474 50.8436 82.4547 50.8436C80.3534 50.9349 79.4398 49.4732 79.4398 47.6459ZM83.4597 48.0113V41.5247C83.4597 40.7938 83.1856 40.2456 82.4547 40.2456C81.7238 40.2456 81.4497 40.7938 81.4497 41.5247V48.0113C81.4497 48.7422 81.7238 49.2904 82.4547 49.2904C83.1856 49.1991 83.4597 48.7422 83.4597 48.0113ZM88.5759 43.1692V50.7522H86.84V38.7839H88.85L91.0427 45.636V38.7839H92.6871V50.7522H90.9513L88.5759 43.1692Z" fill="white"/>
</g>
<defs>
<filter id="filter0_d_796_1661" x="0" y="0" width="167" height="167" filterUnits="userSpaceOnUse" color-interpolation-filters="sRGB">
<feFlood flood-opacity="0" result="BackgroundImageFix"/>
<feColorMatrix in="SourceAlpha" type="matrix" values="0 0 0 0 0 0 0 0 0 0 0 0 0 0 0 0 0 0 127 0" result="hardAlpha"/>
<feOffset dx="1" dy="1"/>
<feGaussianBlur stdDeviation="5"/>
<feComposite in2="hardAlpha" operator="out"/>
<feColorMatrix type="matrix" values="0 0 0 0 0 0 0 0 0 0 0 0 0 0 0 0 0 0 0.15 0"/>
<feBlend mode="normal" in2="BackgroundImageFix" result="effect1_dropShadow_796_1661"/>
<feBlend mode="normal" in="SourceGraphic" in2="effect1_dropShadow_796_1661" result="shape"/>
</filter>
</defs>
</svg>
