<svg width="167" height="167" viewBox="0 0 167 167" fill="none" xmlns="http://www.w3.org/2000/svg">
<g filter="url(#filter0_d_796_1652)">
<path d="M9 19C9 13.4771 13.4772 9 19 9H146C151.523 9 156 13.4772 156 19V146C156 151.523 151.523 156 146 156H19C13.4772 156 9 151.523 9 146V19Z" fill="#BF8B2E"/>
<path d="M23.7093 28.2771H23.8007V51.0261H28.7341V21.3337H24.8056L20.1462 26.724V31.9316H20.2376L23.7093 28.2771ZM31.7491 27.4549V31.018H36.3172V27.2722C36.3172 25.4449 37.2308 24.9881 38.2357 24.9881C39.2407 24.9881 40.0629 25.3536 40.0629 27.1808V29.6476C40.0629 32.1143 39.8802 33.0279 38.2357 34.7638L35.4036 37.7787C32.6627 40.7022 31.6577 42.6208 31.6577 45.5444V51.0261H44.631V46.9148H36.4085V45.5444C36.4085 43.2604 37.2307 42.3467 38.5098 40.9763L41.7074 37.596C44.2655 34.8551 44.8137 33.1193 44.8137 30.1044V27.1808C44.8137 22.9782 42.8038 20.9683 38.3271 20.9683C33.9417 20.9683 31.7491 23.3436 31.7491 27.4549ZM123.476 87.7532C117.446 83.0024 110.32 82.5456 107.487 82.5456C106.026 82.5456 104.655 82.637 103.65 82.9111L103.285 83.0024C99.4476 83.916 93.1437 85.3778 85.7435 94.6053L85.5608 94.8794C85.4694 95.0621 85.378 95.2448 85.378 95.4275C85.378 95.6103 85.378 95.793 85.4694 95.8843L85.6521 96.1584C86.8398 98.1684 87.8447 99.9956 88.667 101.457C88.9411 102.006 89.7634 102.188 90.2202 101.64C90.3116 101.549 90.3115 101.457 90.4029 101.457C96.7982 92.5953 101.823 91.4076 105.112 90.6768L105.477 90.5854C105.934 90.494 106.665 90.4027 107.487 90.4027C109.041 90.4027 114.34 90.6768 118.542 93.9658C122.288 96.8893 124.115 101.549 124.115 107.853C124.115 118.451 118.999 122.562 114.705 124.115C113.06 124.754 111.325 125.029 109.497 125.029C105.112 125.029 101.64 123.293 101.64 123.201L101.366 123.019C97.7118 121.374 92.1388 118.085 86.9312 107.579C76.242 86.1087 67.2886 84.0987 61.3501 82.7283L61.076 82.637C60.6192 82.5456 59.3402 82.2715 57.2389 82.2715C53.7672 82.2715 47.1891 82.9111 41.5247 87.4791C37.6875 90.5854 33.0281 96.6152 33.0281 107.579C33.0281 114.339 34.3986 118.725 37.9617 123.384C38.6012 124.298 44.8137 132.246 56.6906 132.246C58.4265 132.246 60.2537 132.063 62.0809 131.698C64.2736 131.241 67.5626 130.236 71.3084 127.495L74.4147 130.327C74.7801 130.602 75.3283 130.602 75.6938 130.236C75.8765 130.053 75.9678 129.871 75.8764 129.688L78.2519 114.796V114.613C78.2519 114.339 78.1605 114.157 77.9778 113.974C77.7951 113.791 77.6124 113.7 77.3383 113.7L62.8119 117.72H62.5378C62.355 117.72 62.1723 117.811 62.0809 117.994C61.8982 118.176 61.8069 118.451 61.8069 118.633C61.8069 118.907 61.8982 119.09 62.0809 119.273L65.0959 122.014C63.5428 123.019 61.8983 123.658 60.4365 123.932C59.1575 124.206 57.8783 124.298 56.5993 124.298C48.3768 124.298 44.3569 118.907 44.1742 118.633L44.0829 118.542C41.6161 115.253 40.7025 112.421 40.7025 107.487C40.7025 101.183 42.5297 96.4325 46.1841 93.509C50.2954 90.22 55.503 90.0372 56.9647 90.0372C57.787 90.0372 58.5178 90.1286 58.9746 90.2199L59.3401 90.3113C64.0909 91.4077 70.5776 92.8694 79.6223 110.959C84.3731 120.552 90.3115 126.764 97.8031 130.053C98.7167 130.51 103.285 132.703 109.315 132.703C112.056 132.703 114.796 132.246 117.354 131.241C121.74 129.597 131.881 124.024 131.881 107.487C132.155 96.8893 127.404 90.8595 123.476 87.7532Z" fill="white"/>
<path d="M57.9694 27.8203V33.3019H55.9595V21.3336H58.883C60.8929 21.3336 61.6238 22.3386 61.6238 23.9831V25.5362C61.6238 26.8153 61.1671 27.5462 59.9794 27.8203L61.8979 33.3019H59.7966L57.9694 27.8203ZM57.9694 22.9781V26.7239H58.609C59.3399 26.7239 59.6139 26.3585 59.6139 25.7189V23.9831C59.6139 23.3436 59.3399 22.9781 58.609 22.9781H57.9694ZM62.9942 21.3336H67.8364V22.9781H65.0042V26.4498H67.0141V28.0943H65.0042V31.7488H67.8364V33.3933H62.9942V21.3336ZM68.9327 30.7438V29.0993H70.8513V30.7438C70.8513 31.3833 71.1254 31.8401 71.8563 31.8401C72.4958 31.8401 72.7699 31.3833 72.7699 30.7438V30.287C72.7699 29.5561 72.4958 29.1907 71.8563 28.5511L70.6686 27.3634C69.4809 26.2671 69.024 25.5362 69.024 24.1658V23.8003C69.024 22.3386 69.9377 21.1509 71.8563 21.1509C73.8663 21.1509 74.6885 22.1559 74.6885 23.8917V24.8967H72.8613V23.8917C72.8613 23.1608 72.5872 22.8867 71.9477 22.8867C71.3995 22.8867 71.034 23.1608 71.034 23.8917V24.1658C71.034 24.8053 71.3995 25.2621 71.9477 25.8103L73.2267 27.0893C74.3231 28.1857 74.8712 28.9166 74.8712 30.1956V30.7438C74.8712 32.3883 73.9576 33.576 71.9477 33.576C69.755 33.4846 68.9327 32.2969 68.9327 30.7438ZM75.9676 21.3336H78.9824C80.9924 21.3336 81.7233 22.3386 81.7233 23.9831V26.5412C81.7233 28.1857 80.9924 29.282 78.9824 29.282H77.9775V33.3933H75.9676V21.3336ZM77.9775 22.9781V27.7289H78.7084C79.4393 27.7289 79.7134 27.3634 79.7134 26.7239V23.9831C79.7134 23.3436 79.4393 22.9781 78.7084 22.9781H77.9775ZM83.0023 30.1956V24.3485C83.0023 22.4299 83.916 21.1509 86.0173 21.1509C88.1186 21.1509 89.1235 22.5213 89.1235 24.3485V30.1956C89.1235 32.0228 88.21 33.3933 86.0173 33.3933C83.916 33.4846 83.0023 32.0228 83.0023 30.1956ZM87.1136 30.5611V24.0744C87.1136 23.3436 86.8395 22.7954 86.1086 22.7954C85.3777 22.7954 85.1037 23.3436 85.1037 24.0744V30.5611C85.1037 31.292 85.3777 31.8401 86.1086 31.8401C86.7482 31.7488 87.1136 31.292 87.1136 30.5611ZM92.1384 25.7189V33.3019H90.4026V21.3336H92.4126L94.6051 28.1857V21.3336H96.2497V33.3019H94.5138L92.1384 25.7189ZM97.6201 30.7438V29.0993H99.5387V30.7438C99.5387 31.3833 99.8127 31.8401 100.544 31.8401C101.183 31.8401 101.457 31.3833 101.457 30.7438V30.287C101.457 29.5561 101.183 29.1907 100.544 28.5511L99.356 27.3634C98.1683 26.2671 97.7114 25.5362 97.7114 24.1658V23.8003C97.7114 22.3386 98.625 21.1509 100.544 21.1509C102.554 21.1509 103.376 22.1559 103.376 23.8917V24.8967H101.549V23.8917C101.549 23.1608 101.275 22.8867 100.635 22.8867C100.087 22.8867 99.7215 23.1608 99.7215 23.8917V24.1658C99.7215 24.8053 100.087 25.2621 100.635 25.8103L101.914 27.0893C103.01 28.1857 103.559 28.9166 103.559 30.1956V30.7438C103.559 32.3883 102.645 33.576 100.635 33.576C98.351 33.4846 97.6201 32.2969 97.6201 30.7438ZM104.564 21.3336H106.574V33.3019H104.564V21.3336ZM107.944 21.3336H110.867C112.877 21.3336 113.517 22.2472 113.517 23.9831V25.1708C113.517 26.1757 113.151 26.8153 112.329 27.0893C113.334 27.3634 113.791 28.003 113.791 29.0993V30.6524C113.791 32.3883 113.06 33.3019 111.05 33.3019H107.944V21.3336ZM110.045 26.3585H110.776C111.416 26.3585 111.69 25.993 111.69 25.3535V23.8917C111.69 23.2522 111.416 22.8867 110.685 22.8867H109.954L110.045 26.3585ZM110.045 27.9116V31.6574H110.959C111.598 31.6574 111.964 31.292 111.964 30.6524V28.8252C111.964 28.1857 111.69 27.8203 110.959 27.8203H110.045V27.9116ZM115.07 21.3336H117.08V31.6574H119.455V33.3019H115.07V21.3336ZM120.643 21.3336H125.485V22.9781H122.653V26.4498H124.663V28.0943H122.653V31.7488H125.485V33.3933H120.643V21.3336Z" fill="white"/>
<path d="M55.9595 47.8284V41.9813C55.9595 40.0627 56.873 38.7837 58.9743 38.7837C61.167 38.7837 61.8066 40.0627 61.8066 41.7986V43.2604H59.9794V41.7072C59.9794 40.9763 59.7052 40.5195 58.9743 40.5195C58.2434 40.5195 57.9694 41.0677 57.9694 41.7986V48.2852C57.9694 49.0161 58.2434 49.5643 58.9743 49.5643C59.7052 49.5643 59.9794 49.1075 59.9794 48.3766V46.1839H61.8066V48.2852C61.8066 50.0211 61.0756 51.3001 58.9743 51.3001C56.873 51.1174 55.9595 49.747 55.9595 47.8284ZM63.0856 47.8284V41.9813C63.0856 40.0627 63.9992 38.7837 66.1005 38.7837C68.2018 38.7837 69.2068 40.1541 69.2068 41.9813V47.8284C69.2068 49.6557 68.2932 51.0261 66.1005 51.0261C63.9992 51.1174 63.0856 49.747 63.0856 47.8284ZM67.1968 48.1939V41.7072C67.1968 40.9763 66.9228 40.4282 66.1919 40.4282C65.461 40.4282 65.1869 40.9763 65.1869 41.7072V48.1939C65.1869 48.9248 65.461 49.4729 66.1919 49.4729C66.9228 49.3816 67.1968 48.9248 67.1968 48.1939ZM72.2217 43.4431V51.0261H70.4859V39.0578H72.4958L74.6885 45.9098V39.0578H76.3329V51.0261H74.5972L72.2217 43.4431ZM77.612 48.3766V46.7321H79.5306V48.3766C79.5306 49.0161 79.8047 49.4729 80.5356 49.4729C81.1752 49.4729 81.4492 49.0161 81.4492 48.3766V47.9198C81.4492 47.1889 81.1752 46.8234 80.5356 46.1839L79.3479 44.9962C78.1602 43.8999 77.7033 43.169 77.7033 41.7986V41.4332C77.7033 39.9714 78.617 38.7837 80.5356 38.7837C82.5456 38.7837 83.3678 39.7887 83.3678 41.5245V42.5295H81.5406V41.5245C81.5406 40.7936 81.2665 40.5195 80.627 40.5195C80.0788 40.5195 79.7134 40.7936 79.7134 41.5245V41.7986C79.7134 42.4381 80.0788 42.8949 80.627 43.4431L81.906 44.7222C83.0024 45.8185 83.5505 46.5494 83.5505 47.8284V48.3766C83.5505 50.0211 82.6369 51.2088 80.627 51.2088C78.4343 51.1174 77.612 49.9297 77.612 48.3766ZM90.4939 38.9664V48.0111C90.4939 49.8384 89.6717 51.1174 87.6617 51.1174C85.5604 51.1174 84.6469 49.9297 84.6469 48.0111V38.9664H86.6568V48.2852C86.6568 49.0161 86.9308 49.4729 87.6617 49.4729C88.3926 49.4729 88.6667 49.0161 88.6667 48.2852V38.9664H90.4939ZM97.4374 43.169L95.9756 50.9347H95.0619L93.6002 43.169V50.9347H91.9558V38.9664H94.3311L95.6102 45.7271L96.7978 38.9664H99.356V50.9347H97.5288V43.169H97.4374ZM100.635 38.9664H103.65C105.66 38.9664 106.391 39.9714 106.391 41.6159V44.174C106.391 45.8185 105.66 46.9148 103.65 46.9148H102.645V51.0261H100.635V38.9664ZM102.645 40.6109V45.3617H103.376C104.107 45.3617 104.381 44.9962 104.381 44.3567V41.6159C104.381 40.9763 104.107 40.6109 103.376 40.6109H102.645ZM107.03 38.9664H112.421V40.6109H110.776V50.9347H108.766V40.6109H107.122L107.03 38.9664ZM113.334 38.9664H115.344V50.9347H113.334V38.9664ZM116.532 47.8284V41.9813C116.532 40.0627 117.445 38.7837 119.547 38.7837C121.648 38.7837 122.653 40.1541 122.653 41.9813V47.8284C122.653 49.6557 121.739 51.0261 119.547 51.0261C117.445 51.1174 116.532 49.747 116.532 47.8284ZM120.643 48.1939V41.7072C120.643 40.9763 120.369 40.4282 119.638 40.4282C118.907 40.4282 118.633 40.9763 118.633 41.7072V48.1939C118.633 48.9248 118.907 49.4729 119.638 49.4729C120.278 49.3816 120.643 48.9248 120.643 48.1939ZM125.577 43.4431V51.0261H123.841V39.0578H125.851L128.043 45.9098V39.0578H129.688V51.0261H127.952L125.577 43.4431Z" fill="white"/>
<path d="M55.6855 68.5673L57.9696 56.599H60.2536L62.5376 68.5673H60.4364L60.0709 66.3746H57.9696L57.6041 68.5673H55.6855ZM58.1524 64.8215H59.7968L58.9745 59.9793L58.1524 64.8215ZM65.0958 61.0757V68.6586H63.3599V56.6903H65.3698L67.5625 63.5424V56.6903H69.207V68.6586H67.4711L65.0958 61.0757ZM76.5159 59.7966V65.3696C76.5159 67.1969 75.785 68.5673 73.5923 68.5673H70.4861V56.599H73.5923C75.6936 56.599 76.5159 57.9694 76.5159 59.7966ZM73.3183 66.9228C74.1405 66.9228 74.5059 66.466 74.5059 65.7351V59.4312C74.5059 58.7003 74.2319 58.2435 73.3183 58.2435H72.496V66.9228H73.3183ZM79.6222 56.599H82.6371C84.647 56.599 85.3779 57.604 85.3779 59.2485V61.8066C85.3779 63.4511 84.647 64.5474 82.6371 64.5474H81.6321V68.6586H79.6222V56.599ZM81.6321 58.2435V62.9943H82.3631C83.0939 62.9943 83.368 62.6288 83.368 61.9893V59.2485C83.368 58.6089 83.0939 58.2435 82.3631 58.2435H81.6321ZM88.4842 63.0856V68.5673H86.4743V56.599H89.3978C91.4078 56.599 92.1386 57.604 92.1386 59.2485V60.8016C92.1386 62.0806 91.6818 62.8115 90.4941 63.0856L92.4128 68.5673H90.3114L88.4842 63.0856ZM88.4842 58.2435V61.9893H89.1237C89.8546 61.9893 90.1287 61.6238 90.1287 60.9843V59.2485C90.1287 58.6089 89.8546 58.2435 89.1237 58.2435H88.4842ZM93.3264 65.461V59.6139C93.3264 57.6953 94.2399 56.4163 96.3412 56.4163C98.4425 56.4163 99.4475 57.7867 99.4475 59.6139V65.461C99.4475 67.2882 98.5339 68.6586 96.3412 68.6586C94.2399 68.75 93.3264 67.3796 93.3264 65.461ZM97.4376 65.8264V59.3398C97.4376 58.6089 97.1635 58.0607 96.4326 58.0607C95.7017 58.0607 95.4276 58.6089 95.4276 59.3398V65.8264C95.4276 66.5573 95.7017 67.1055 96.4326 67.1055C97.1635 67.0142 97.4376 66.5573 97.4376 65.8264ZM106.756 59.7966V65.3696C106.756 67.1969 106.026 68.5673 103.833 68.5673H100.727V56.599H103.833C105.934 56.599 106.756 57.9694 106.756 59.7966ZM103.559 66.9228C104.381 66.9228 104.747 66.466 104.747 65.7351V59.4312C104.747 58.7003 104.472 58.2435 103.559 58.2435H102.737V66.9228H103.559ZM113.791 56.599V65.6437C113.791 67.471 112.969 68.75 110.959 68.75C108.858 68.75 107.944 67.5623 107.944 65.6437V56.599H109.954V65.9178C109.954 66.6487 110.228 67.1055 110.959 67.1055C111.69 67.1055 111.964 66.6487 111.964 65.9178V56.599H113.791ZM114.979 65.461V59.6139C114.979 57.6953 115.893 56.4163 117.994 56.4163C120.187 56.4163 120.826 57.6953 120.826 59.4312V60.8929H118.999V59.3398C118.999 58.6089 118.725 58.1521 117.994 58.1521C117.263 58.1521 116.989 58.7003 116.989 59.4312V65.9178C116.989 66.6487 117.263 67.1969 117.994 67.1969C118.725 67.1969 118.999 66.7401 118.999 66.0092V63.8165H120.826V65.9178C120.826 67.6537 120.095 68.9327 117.994 68.9327C115.893 68.75 114.979 67.3796 114.979 65.461ZM121.831 56.599H127.221V58.2435H125.577V68.5673H123.567V58.2435H121.922L121.831 56.599ZM128.135 56.599H130.145V68.5673H128.135V56.599ZM131.333 65.461V59.6139C131.333 57.6953 132.246 56.4163 134.347 56.4163C136.449 56.4163 137.454 57.7867 137.454 59.6139V65.461C137.454 67.2882 136.54 68.6586 134.347 68.6586C132.246 68.75 131.333 67.3796 131.333 65.461ZM135.444 65.8264V59.3398C135.444 58.6089 135.17 58.0607 134.439 58.0607C133.708 58.0607 133.434 58.6089 133.434 59.3398V65.8264C133.434 66.5573 133.708 67.1055 134.439 67.1055C135.078 67.0142 135.444 66.5573 135.444 65.8264ZM140.286 61.0757V68.6586H138.55V56.6903H140.56L142.753 63.5424V56.6903H144.397V68.6586H142.661L140.286 61.0757Z" fill="white"/>
</g>
<defs>
<filter id="filter0_d_796_1652" x="0" y="0" width="167" height="167" filterUnits="userSpaceOnUse" color-interpolation-filters="sRGB">
<feFlood flood-opacity="0" result="BackgroundImageFix"/>
<feColorMatrix in="SourceAlpha" type="matrix" values="0 0 0 0 0 0 0 0 0 0 0 0 0 0 0 0 0 0 127 0" result="hardAlpha"/>
<feOffset dx="1" dy="1"/>
<feGaussianBlur stdDeviation="5"/>
<feComposite in2="hardAlpha" operator="out"/>
<feColorMatrix type="matrix" values="0 0 0 0 0 0 0 0 0 0 0 0 0 0 0 0 0 0 0.15 0"/>
<feBlend mode="normal" in2="BackgroundImageFix" result="effect1_dropShadow_796_1652"/>
<feBlend mode="normal" in="SourceGraphic" in2="effect1_dropShadow_796_1652" result="shape"/>
</filter>
</defs>
</svg>
