<svg width="167" height="167" viewBox="0 0 167 167" fill="none" xmlns="http://www.w3.org/2000/svg">
<g filter="url(#filter0_d_796_1643)">
<path d="M9 19C9 13.4772 13.4772 9 19 9H146C151.523 9 156 13.4772 156 19V146C156 151.523 151.523 156 146 156H19C13.4772 156 9 151.523 9 146V19Z" fill="#FD9D24"/>
<path d="M19.5974 26.724V31.9316L23.1605 28.2772V50.9347H28.1854V21.3337H24.1655L19.5974 26.724ZM30.9262 26.724V31.9316H31.0176L34.4893 28.2772V50.9347H39.5141V21.3337H35.4943L30.9262 26.724Z" fill="white"/>
<path d="M33.3019 120.917H55.4113C55.6854 120.917 55.9595 120.643 55.9595 120.369C55.9595 120.187 55.8682 120.095 55.7768 120.004L44.8135 105.752L44.7221 105.66C44.6307 105.569 44.448 105.477 44.3567 105.477C44.2653 105.477 44.0825 105.569 43.9912 105.66L43.8998 105.752L43.8085 105.843L33.0279 119.912L32.8451 120.095C32.7538 120.187 32.7538 120.278 32.7538 120.369C32.7538 120.643 33.0278 120.917 33.3019 120.917ZM55.32 122.927H33.1192C32.8451 122.927 32.571 123.201 32.571 123.476V140.834C32.571 141.108 32.8451 141.382 33.1192 141.382H40.2454V130.51C40.2454 130.236 40.5195 129.962 40.7935 129.962H47.3716C47.6456 129.962 47.9197 130.236 47.9197 130.51V141.382H55.2286C55.5027 141.382 55.7768 141.108 55.7768 140.834V123.476C55.8682 123.201 55.6854 122.927 55.32 122.927ZM131.881 118.359H109.954C109.68 118.359 109.406 118.633 109.406 118.908V141.017C109.406 141.291 109.68 141.565 109.954 141.565H131.881C132.155 141.565 132.429 141.291 132.429 141.017V118.908C132.429 118.633 132.246 118.359 131.881 118.359ZM119.912 132.886C119.912 133.16 119.638 133.434 119.364 133.434H112.786C112.512 133.434 112.238 133.16 112.238 132.886V128.866C112.238 128.592 112.512 128.318 112.786 128.318H119.364C119.638 128.318 119.912 128.592 119.912 128.866V132.886ZM119.912 125.486C119.912 125.76 119.638 126.034 119.364 126.034H112.786C112.512 126.034 112.238 125.76 112.238 125.486V121.466C112.238 121.192 112.512 120.917 112.786 120.917H119.364C119.638 120.917 119.912 121.192 119.912 121.466V125.486ZM129.962 132.886C129.962 133.16 129.688 133.434 129.414 133.434H122.836C122.562 133.434 122.288 133.16 122.288 132.886V128.866C122.288 128.592 122.562 128.318 122.836 128.318H129.414C129.688 128.318 129.962 128.592 129.962 128.866V132.886ZM129.962 125.486C129.962 125.76 129.688 126.034 129.414 126.034H122.836C122.562 126.034 122.288 125.76 122.288 125.486V121.466C122.288 121.192 122.562 120.917 122.836 120.917H129.414C129.688 120.917 129.962 121.192 129.962 121.466V125.486ZM80.9011 67.0144H59.5226C59.2485 67.0144 58.9744 67.2885 58.9744 67.5626V140.926C58.9744 141.2 59.2485 141.474 59.5226 141.474H80.9924C81.2665 141.474 81.5406 141.2 81.5406 140.926V67.5626C81.4492 67.1971 81.2665 67.0144 80.9011 67.0144ZM68.2019 133.068C68.2019 133.251 68.1105 133.343 67.9278 133.343H62.9943C62.8116 133.343 62.7202 133.251 62.7202 133.068V127.587C62.7202 127.404 62.8116 127.313 62.9943 127.313H67.9278C68.1105 127.313 68.2019 127.404 68.2019 127.587V133.068ZM68.2019 120.461C68.2019 120.643 68.1105 120.735 67.9278 120.735H62.9943C62.8116 120.735 62.7202 120.643 62.7202 120.461V114.979C62.7202 114.796 62.8116 114.705 62.9943 114.705H67.9278C68.1105 114.705 68.2019 114.796 68.2019 114.979V120.461ZM68.2019 107.853C68.2019 108.036 68.1105 108.127 67.9278 108.127H62.9943C62.8116 108.127 62.7202 108.036 62.7202 107.853V102.371C62.7202 102.188 62.8116 102.097 62.9943 102.097H67.9278C68.1105 102.097 68.2019 102.188 68.2019 102.371V107.853ZM68.2019 95.3363C68.2019 95.5191 68.1105 95.6104 67.9278 95.6104H62.9943C62.8116 95.6104 62.7202 95.5191 62.7202 95.3363V89.8547C62.7202 89.672 62.8116 89.5806 62.9943 89.5806H67.9278C68.1105 89.5806 68.2019 89.672 68.2019 89.8547V95.3363ZM68.2019 82.7285C68.2019 82.9112 68.1105 83.0026 67.9278 83.0026H62.9943C62.8116 83.0026 62.7202 82.9112 62.7202 82.7285V77.2468C62.7202 77.0641 62.8116 76.9728 62.9943 76.9728H67.9278C68.1105 76.9728 68.2019 77.0641 68.2019 77.2468V82.7285ZM77.7948 133.068C77.7948 133.251 77.7034 133.343 77.5207 133.343H72.5872C72.4045 133.343 72.3131 133.251 72.3131 133.068V127.587C72.3131 127.404 72.4045 127.313 72.5872 127.313H77.5207C77.7034 127.313 77.7948 127.404 77.7948 127.587V133.068ZM77.7948 120.461C77.7948 120.643 77.7034 120.735 77.5207 120.735H72.5872C72.4045 120.735 72.3131 120.643 72.3131 120.461V114.979C72.3131 114.796 72.4045 114.705 72.5872 114.705H77.5207C77.7034 114.705 77.7948 114.796 77.7948 114.979V120.461ZM77.7948 107.853C77.7948 108.036 77.7034 108.127 77.5207 108.127H72.5872C72.4045 108.127 72.3131 108.036 72.3131 107.853V102.371C72.3131 102.188 72.4045 102.097 72.5872 102.097H77.5207C77.7034 102.097 77.7948 102.188 77.7948 102.371V107.853ZM77.7948 95.3363C77.7948 95.5191 77.7034 95.6104 77.5207 95.6104H72.5872C72.4045 95.6104 72.3131 95.5191 72.3131 95.3363V89.8547C72.3131 89.672 72.4045 89.5806 72.5872 89.5806H77.5207C77.7034 89.5806 77.7948 89.672 77.7948 89.8547V95.3363ZM77.7948 82.7285C77.7948 82.9112 77.7034 83.0026 77.5207 83.0026H72.5872C72.4045 83.0026 72.3131 82.9112 72.3131 82.7285V77.2468C72.3131 77.0641 72.4045 76.9728 72.5872 76.9728H77.5207C77.7034 76.9728 77.7948 77.0641 77.7948 77.2468V82.7285ZM132.429 116.167C132.429 116.441 132.246 116.623 131.972 116.623H109.863C109.588 116.623 109.406 116.441 109.406 116.167V111.781C109.406 111.507 109.588 111.325 109.863 111.325H131.972C132.246 111.325 132.429 111.507 132.429 111.781V116.167ZM106.848 80.8099C106.756 80.5359 106.574 80.4445 106.299 80.4445C106.208 80.4445 106.117 80.4445 106.025 80.5358L105.843 80.7186L84.7382 107.487L84.6469 107.579C84.5555 107.67 84.4641 107.853 84.4641 108.036V140.926C84.4641 141.2 84.7383 141.474 85.0123 141.474H106.482C106.756 141.474 107.03 141.2 107.03 140.926V80.9926C106.939 80.9926 106.939 80.9013 106.848 80.8099ZM97.9856 95.3363L98.1683 95.1536C99.6301 93.3264 102.005 90.3115 103.193 88.8497L103.376 88.667C103.467 88.5756 103.65 88.4843 103.833 88.4843C104.107 88.4843 104.381 88.667 104.381 88.9411V95.7018C104.381 96.0672 104.107 96.25 103.833 96.3413H98.5338C98.1683 96.3413 97.9856 96.0672 97.9856 95.7018C97.8942 95.6104 97.8942 95.4277 97.9856 95.3363ZM94.6053 132.794C94.6053 133.068 94.3312 133.343 94.0571 133.343H87.6618C87.3877 133.343 87.1136 133.068 87.1136 132.794V128.775C87.1136 128.5 87.3877 128.226 87.6618 128.226H94.0571C94.3312 128.226 94.6053 128.5 94.6053 128.775V132.794ZM94.6053 125.486C94.6053 125.76 94.3312 126.034 94.0571 126.034H87.6618C87.3877 126.034 87.1136 125.76 87.1136 125.486V121.466C87.1136 121.192 87.3877 120.917 87.6618 120.917H94.0571C94.3312 120.917 94.6053 121.192 94.6053 121.466V125.486ZM94.6053 118.085C94.6053 118.359 94.3312 118.633 94.0571 118.633H87.6618C87.3877 118.633 87.1136 118.359 87.1136 118.085V114.065C87.1136 113.791 87.3877 113.517 87.6618 113.517H94.0571C94.3312 113.517 94.6053 113.791 94.6053 114.065V118.085ZM94.6966 101.823V110.594C94.6966 110.868 94.4225 111.142 94.1485 111.142H87.7532C87.4791 111.142 87.205 110.868 87.205 110.594V109.497V109.315V109.223C87.205 109.223 87.205 109.132 87.2964 109.132C87.2964 109.132 87.2964 109.041 87.3877 109.041C88.21 107.853 91.8644 103.285 93.4175 101.458L93.6003 101.275C93.6916 101.183 93.8743 101.092 94.0571 101.092C94.3312 101.092 94.6053 101.275 94.6053 101.549V101.823H94.6966ZM104.472 132.794C104.472 133.068 104.198 133.343 103.924 133.343H97.5288C97.2547 133.343 96.9806 133.068 96.9806 132.794V128.775C96.9806 128.5 97.2547 128.226 97.5288 128.226H103.924C104.198 128.226 104.472 128.5 104.472 128.775V132.794ZM104.472 125.486C104.472 125.76 104.198 126.034 103.924 126.034H97.5288C97.2547 126.034 96.9806 125.76 96.9806 125.486V121.466C96.9806 121.192 97.2547 120.917 97.5288 120.917H103.924C104.198 120.917 104.472 121.192 104.472 121.466V125.486ZM104.472 118.085C104.472 118.359 104.198 118.633 103.924 118.633H97.5288C97.2547 118.633 96.9806 118.359 96.9806 118.085V114.065C96.9806 113.791 97.2547 113.517 97.5288 113.517H103.924C104.198 113.517 104.472 113.791 104.472 114.065V118.085ZM104.472 110.685C104.472 110.959 104.198 111.233 103.924 111.233H97.5288C97.2547 111.233 96.9806 110.959 96.9806 110.685V106.665C96.9806 106.391 97.2547 106.117 97.5288 106.117H103.924C104.198 106.117 104.472 106.391 104.472 106.665V110.685ZM104.472 103.285C104.472 103.559 104.198 103.833 103.924 103.833H97.5288C97.2547 103.833 96.9806 103.559 96.9806 103.285V99.2649C96.9806 98.9908 97.2547 98.7167 97.5288 98.7167H103.924C104.198 98.7167 104.472 98.9908 104.472 99.2649V103.285Z" fill="white"/>
<path d="M49.199 30.7438V29.0993H51.1175V30.7438C51.1175 31.3833 51.3917 31.8401 52.1225 31.8401C52.7621 31.8401 53.0362 31.3833 53.0362 30.7438V30.287C53.0362 29.5561 52.7621 29.1907 52.1225 28.5511L50.9348 27.3635C49.7471 26.2671 49.2903 25.5362 49.2903 24.1658V23.8003C49.2903 22.3386 50.204 21.1509 52.1225 21.1509C54.1325 21.1509 54.9547 22.1559 54.9547 23.8917V24.8967H53.1275V23.8917C53.1275 23.1608 52.8534 22.8867 52.2139 22.8867C51.6657 22.8867 51.3003 23.1608 51.3003 23.8917V24.1658C51.3003 24.8053 51.6657 25.2621 52.2139 25.8103L53.493 27.0894C54.5893 28.1857 55.1374 28.9166 55.1374 30.1956V30.7438C55.1374 32.3883 54.2238 33.576 52.2139 33.576C50.2039 33.576 49.199 32.2969 49.199 30.7438ZM61.7155 21.3336V30.3784C61.7155 32.2056 60.8932 33.4846 58.8832 33.4846C56.7819 33.4846 55.8683 32.2969 55.8683 30.3784V21.3336H57.8783V30.6524C57.8783 31.3833 58.1523 31.8401 58.8832 31.8401C59.6141 31.8401 59.8882 31.3833 59.8882 30.6524V21.3336H61.7155ZM62.8117 30.7438V29.0993H64.7304V30.7438C64.7304 31.3833 65.0044 31.8401 65.7353 31.8401C66.3748 31.8401 66.6489 31.3833 66.6489 30.7438V30.287C66.6489 29.5561 66.3748 29.1907 65.7353 28.5511L64.5476 27.3635C63.3599 26.2671 62.9031 25.5362 62.9031 24.1658V23.8003C62.9031 22.3386 63.7254 21.1509 65.7353 21.1509C67.7453 21.1509 68.5675 22.1559 68.5675 23.8917V24.8967H66.7403V23.8917C66.7403 23.1608 66.4662 22.8867 65.8267 22.8867C65.2785 22.8867 64.9131 23.1608 64.9131 23.8917V24.1658C64.9131 24.8053 65.2785 25.2621 65.8267 25.8103L67.1057 27.0894C68.2021 28.1857 68.7502 28.9166 68.7502 30.1956V30.7438C68.7502 32.3883 67.8367 33.576 65.8267 33.576C63.5427 33.4846 62.8117 32.2969 62.8117 30.7438ZM69.0243 21.3336H74.4146V22.9781H72.7701V33.3019H70.7602V22.9781H69.1157V21.3336H69.0243ZM74.0492 33.3019L76.3332 21.3336H78.6173L80.9013 33.3019H78.7999L78.4345 31.1092H76.3332L75.9678 33.3019H74.0492ZM76.6073 29.4647H78.2518L77.4295 24.6226L76.6073 29.4647ZM81.7235 21.3336H83.7335V33.3019H81.7235V21.3336ZM86.5656 25.7189V33.3019H84.8298V21.3336H86.8398L89.0324 28.1857V21.3336H90.6769V33.3019H88.9411L86.5656 25.7189ZM91.4078 33.3019L93.6918 21.3336H95.9759L98.2599 33.3019H96.1586L95.7931 31.1092H93.6918L93.3264 33.3019H91.4078ZM93.9659 29.4647H95.6104L94.7881 24.6226L93.9659 29.4647ZM98.8994 21.3336H101.823C103.833 21.3336 104.472 22.2472 104.472 23.9831V25.1708C104.472 26.1757 104.107 26.8153 103.285 27.0894C104.29 27.3634 104.747 28.003 104.747 29.0993V30.6524C104.747 32.3883 104.016 33.3019 102.006 33.3019H98.8994V21.3336ZM100.909 26.3585H101.64C102.28 26.3585 102.554 25.993 102.554 25.3535V23.8917C102.554 23.2522 102.28 22.8867 101.549 22.8867H100.818L100.909 26.3585ZM100.909 27.9116V31.6574H101.823C102.462 31.6574 102.828 31.292 102.828 30.6524V28.8252C102.828 28.1857 102.554 27.8203 101.823 27.8203H100.909V27.9116ZM105.66 21.3336H107.67V31.6574H110.045V33.3019H105.66V21.3336ZM110.868 21.3336H115.71V22.9781H112.878V26.4498H114.888V28.0943H112.878V31.7488H115.71V33.3933H110.868V21.3336ZM119.09 30.1956V24.3485C119.09 22.4299 120.004 21.1509 122.105 21.1509C124.298 21.1509 124.937 22.43 124.937 24.1658V25.6276H123.11V23.9831C123.11 23.2522 122.836 22.7954 122.105 22.7954C121.374 22.7954 121.1 23.3436 121.1 24.0744V30.5611C121.1 31.292 121.374 31.8401 122.105 31.8401C122.836 31.8401 123.11 31.3833 123.11 30.6524V28.4598H124.937V30.5611C124.937 32.297 124.206 33.576 122.105 33.576C119.912 33.4846 119.09 32.0228 119.09 30.1956ZM125.851 21.3336H127.861V33.3019H125.851V21.3336ZM128.592 21.3336H133.982V22.9781H132.338V33.3019H130.328V22.9781H128.683V21.3336H128.592ZM134.804 21.3336H136.814V33.3019H134.804V21.3336ZM137.911 21.3336H142.753V22.9781H139.921V26.4498H141.931V28.0943H139.921V31.7488H142.753V33.3933H137.911V21.3336ZM143.21 30.7438V29.0993H145.128V30.7438C145.128 31.3833 145.402 31.8401 146.133 31.8401C146.773 31.8401 147.047 31.3833 147.047 30.7438V30.287C147.047 29.5561 146.773 29.1907 146.133 28.5511L144.945 27.3635C143.758 26.2671 143.301 25.5362 143.301 24.1658V23.8003C143.301 22.3386 144.215 21.1509 146.133 21.1509C148.143 21.1509 148.965 22.1559 148.965 23.8917V24.8967H147.138V23.8917C147.138 23.1608 146.864 22.8867 146.224 22.8867C145.676 22.8867 145.311 23.1608 145.311 23.8917V24.1658C145.311 24.8053 145.676 25.2621 146.224 25.8103L147.504 27.0894C148.6 28.1857 149.148 28.9166 149.148 30.1956V30.7438C149.148 32.3883 148.234 33.576 146.224 33.576C144.215 33.576 143.21 32.2969 143.21 30.7438Z" fill="white"/>
<path d="M49.199 50.9347L51.483 38.9664H53.767L56.0511 50.9347H54.0411L53.6756 48.742H51.5743L51.2089 50.9347H49.199ZM51.7571 47.1889H53.4016L52.5793 42.3468L51.7571 47.1889ZM58.6092 43.4431V51.0261H56.8733V39.0578H58.8832L61.0759 45.9098V39.0578H62.7204V51.0261H60.9845L58.6092 43.4431ZM69.938 42.164V47.7371C69.938 49.5643 69.2071 50.9347 67.0144 50.9347H63.9081V38.9664H67.0144C69.1157 38.9664 69.938 40.3368 69.938 42.164ZM66.7403 49.2902C67.5626 49.2902 67.928 48.8334 67.928 48.1025V41.7986C67.928 41.0677 67.6539 40.6109 66.7403 40.6109H65.918V49.2902H66.7403ZM72.8615 47.8284V41.9813C72.8615 40.0627 73.7751 38.7837 75.8764 38.7837C78.0691 38.7837 78.7086 40.0627 78.7086 41.7986V43.2604H76.8814V41.7072C76.8814 40.9763 76.6073 40.5195 75.8764 40.5195C75.1455 40.5195 74.8714 41.0677 74.8714 41.7986V48.2852C74.8714 49.0161 75.1455 49.5643 75.8764 49.5643C76.6073 49.5643 76.8814 49.1075 76.8814 48.3766V46.1839H78.7086V48.2852C78.7086 50.0211 77.9777 51.3001 75.8764 51.3001C73.6838 51.1174 72.8615 49.747 72.8615 47.8284ZM79.8049 47.8284V41.9813C79.8049 40.0627 80.7185 38.7837 82.8199 38.7837C84.9212 38.7837 85.9262 40.1541 85.9262 41.9813V47.8284C85.9262 49.6557 85.0125 51.0261 82.8199 51.0261C80.7185 51.1174 79.8049 49.747 79.8049 47.8284ZM83.8248 48.1939V41.7072C83.8248 40.9763 83.5507 40.4282 82.8199 40.4282C82.089 40.4282 81.8149 40.9763 81.8149 41.7072V48.1939C81.8149 48.9248 82.089 49.4729 82.8199 49.4729C83.5507 49.3816 83.8248 48.9248 83.8248 48.1939ZM92.5955 43.169L91.1337 50.9347H90.2201L88.7583 43.169V50.9347H87.1138V38.9664H89.4892L90.7683 45.7271L91.956 38.9664H94.5141V50.9347H92.6868L92.5955 43.169ZM101.092 43.169L99.6303 50.9347H98.7167L97.2549 43.169V50.9347H95.6104V38.9664H97.9858L99.2649 45.7271L100.453 38.9664H103.011V50.9347H101.183V43.169H101.092ZM109.954 38.9664V48.0111C109.954 49.8384 109.132 51.1174 107.122 51.1174C105.021 51.1174 104.107 49.9297 104.107 48.0111V38.9664H106.117V48.2852C106.117 49.0161 106.391 49.4729 107.122 49.4729C107.853 49.4729 108.127 49.0161 108.127 48.2852V38.9664H109.954ZM112.695 43.4431V51.0261H110.959V39.0578H112.969L115.162 45.9098V39.0578H116.806V51.0261H115.07L112.695 43.4431ZM117.994 38.9664H120.004V50.9347H117.994V38.9664ZM120.917 38.9664H126.308V40.6109H124.663V50.9347H122.562V40.6109H120.917V38.9664ZM127.221 38.9664H129.231V50.9347H127.221V38.9664ZM130.328 38.9664H135.17V40.6109H132.338V44.0826H134.348V45.7271H132.338V49.3816H135.17V51.0261H130.328V38.9664ZM135.992 48.3766V46.7321H137.911V48.3766C137.911 49.0161 138.185 49.4729 138.916 49.4729C139.555 49.4729 139.829 49.0161 139.829 48.3766V47.9198C139.829 47.1889 139.555 46.8234 138.916 46.1839L137.728 44.9962C136.54 43.8999 136.083 43.169 136.083 41.7986V41.4332C136.083 39.9714 136.906 38.7837 138.916 38.7837C140.926 38.7837 141.748 39.7887 141.748 41.5245V42.5295H139.921V41.5245C139.921 40.7936 139.646 40.5195 139.007 40.5195C138.459 40.5195 138.093 40.7936 138.093 41.5245V41.7986C138.093 42.4381 138.459 42.8949 139.007 43.4431L140.286 44.7222C141.382 45.8185 141.931 46.5494 141.931 47.8284V48.3766C141.931 50.0211 141.017 51.2088 139.007 51.2088C136.814 51.1174 135.992 49.9297 135.992 48.3766Z" fill="white"/>
</g>
<defs>
<filter id="filter0_d_796_1643" x="0" y="0" width="167" height="167" filterUnits="userSpaceOnUse" color-interpolation-filters="sRGB">
<feFlood flood-opacity="0" result="BackgroundImageFix"/>
<feColorMatrix in="SourceAlpha" type="matrix" values="0 0 0 0 0 0 0 0 0 0 0 0 0 0 0 0 0 0 127 0" result="hardAlpha"/>
<feOffset dx="1" dy="1"/>
<feGaussianBlur stdDeviation="5"/>
<feComposite in2="hardAlpha" operator="out"/>
<feColorMatrix type="matrix" values="0 0 0 0 0 0 0 0 0 0 0 0 0 0 0 0 0 0 0.15 0"/>
<feBlend mode="normal" in2="BackgroundImageFix" result="effect1_dropShadow_796_1643"/>
<feBlend mode="normal" in="SourceGraphic" in2="effect1_dropShadow_796_1643" result="shape"/>
</filter>
</defs>
</svg>
