<svg width="167" height="167" viewBox="0 0 167 167" fill="none" xmlns="http://www.w3.org/2000/svg">
<g filter="url(#filter0_d_796_1669)">
<path d="M9 19C9 13.4771 13.4772 9 19 9H146C151.523 9 156 13.4772 156 19V146C156 151.523 151.523 156 146 156H19C13.4772 156 9 151.523 9 146V19Z" fill="#56C02B"/>
<path d="M19.7805 26.724V31.9316L23.2523 28.2772H23.3436V51.0261H28.2771V21.3337H24.3486L19.7805 26.724ZM40.1541 30.7439C38.1441 30.7439 36.7737 31.4748 35.9514 32.7539V25.3536H44.5394V21.3337H31.3834V38.0528H35.9514V37.4133C35.9514 35.6774 36.7737 34.6724 38.1441 34.6724C39.6972 34.6724 40.2454 35.6774 40.2454 37.3219V44.4481C40.2454 46.0012 39.6972 47.0975 38.1441 47.0975C36.4082 47.0975 35.8601 46.0012 35.8601 44.174V40.4282H31.292V43.8085C31.292 48.2852 33.1192 51.2088 38.1441 51.2088C43.169 51.2088 45.2703 48.5593 45.2703 44.4481V37.2305C45.2703 32.6625 42.8035 30.7439 40.1541 30.7439Z" fill="white"/>
<path d="M70.5773 108.401C70.76 108.401 70.9428 108.584 70.9428 108.766V119.455C70.9428 119.638 70.76 119.821 70.5773 119.821H66.2834C66.1007 119.821 65.9179 119.638 65.9179 119.455V108.766C65.9179 108.584 66.1007 108.401 66.2834 108.401H70.5773ZM118.176 124.389H46.8234C46.6407 124.389 46.458 124.572 46.458 124.754V129.14C46.458 129.323 46.6407 129.505 46.8234 129.505H118.176C118.359 129.505 118.542 129.323 118.542 129.14V124.754C118.542 124.572 118.359 124.389 118.176 124.389ZM118.176 133.068H46.8234C46.6407 133.068 46.458 133.251 46.458 133.434V137.819C46.458 138.002 46.6407 138.185 46.8234 138.185H118.176C118.359 138.185 118.542 138.002 118.542 137.819V133.434C118.542 133.251 118.359 133.068 118.176 133.068ZM104.564 96.6152C103.65 95.8843 101.275 94.3312 98.3511 94.3312C96.2498 94.3312 94.3312 95.1534 92.5954 96.7979C92.504 96.8893 92.4126 97.072 92.4126 97.2548V97.6202C92.4126 97.8029 92.504 97.9857 92.5954 98.077C92.7781 98.1684 92.8694 98.2597 93.1435 98.1684H93.2349C93.3263 98.077 93.5089 98.077 93.6003 97.9856C93.9657 97.7115 94.9708 97.3461 96.4325 97.3461C97.9857 97.3461 100.909 97.7116 103.833 100.452L103.924 100.544C104.107 100.726 104.29 100.818 104.564 100.818C104.746 100.818 105.02 100.726 105.203 100.544L105.295 100.452C108.218 97.8029 111.142 97.3461 112.695 97.3461C114.157 97.3461 115.162 97.7115 115.527 97.9856C115.618 98.077 115.71 98.1683 115.892 98.2597C115.984 98.2597 116.167 98.3511 116.349 98.2597C116.623 98.1683 116.806 97.9856 116.806 97.7116V97.3461C116.806 97.1634 116.715 96.9806 116.623 96.8893C114.887 95.2448 112.969 94.4226 110.776 94.4226C107.853 94.2399 105.477 95.8843 104.564 96.6152ZM100.178 68.1105C99.9956 68.2019 99.9042 68.2933 99.9042 68.476L99.8129 68.7501C99.7215 68.9328 99.8129 69.1156 99.9042 69.2983C99.9956 69.481 100.178 69.5724 100.361 69.5724H100.452C100.544 69.5724 100.726 69.5723 100.818 69.481C100.909 69.481 101.001 69.3896 101.275 69.3896C101.549 69.3896 104.472 69.481 106.391 72.6786V72.77C106.482 72.9527 106.665 73.044 106.848 73.1354H107.03C107.122 73.1354 107.305 73.1354 107.396 73.0441H107.487C108.492 72.4959 109.589 72.2218 110.685 72.2218C112.512 72.2218 113.7 72.9527 113.974 73.2268L114.248 73.5009C114.339 73.5009 114.431 73.5922 114.522 73.5922H114.705C114.796 73.5922 114.887 73.5922 114.979 73.5009C115.162 73.4095 115.253 73.3181 115.253 73.1354L115.344 72.9527V72.77C115.344 72.6786 115.344 72.5873 115.253 72.4959C113.882 70.1205 111.873 69.5724 110.411 69.5724C109.314 69.5724 108.401 69.8464 107.853 70.0292C107.213 69.1156 105.569 67.2883 103.011 67.2883C102.006 67.4711 101.092 67.6537 100.178 68.1105ZM85.1037 79.1653V79.5307C85.1037 79.7134 85.1951 79.8961 85.3778 79.9875C85.5605 80.0788 85.7433 80.0789 85.8346 80.0789H85.926C86.0174 79.9875 86.1087 79.9875 86.2001 79.8961C86.4742 79.7134 87.4791 79.2566 88.9409 79.2566C90.3113 79.2566 92.4126 79.622 94.6053 81.3579L94.6966 81.4493C94.8794 81.5407 95.0621 81.632 95.2448 81.632H95.3362C95.5189 81.632 95.793 81.5406 95.8843 81.3579L95.9757 81.2666C98.3511 78.7085 100.909 78.343 102.28 78.343C103.193 78.343 103.924 78.5257 104.107 78.7085C104.198 78.7998 104.29 78.8912 104.472 78.8912H104.929C105.203 78.7998 105.386 78.5257 105.295 78.2517V77.9776C105.295 77.7949 105.203 77.7035 105.112 77.5208C103.65 76.3331 102.188 75.6936 100.544 75.6936C98.077 75.6936 96.0671 77.1553 95.2448 77.8862C94.514 77.338 92.6867 76.333 90.4941 76.333C88.5755 76.333 86.931 77.1553 85.4692 78.7085C85.1038 78.7998 85.1037 78.9825 85.1037 79.1653ZM48.9248 84.8297C48.9248 80.5357 52.3965 77.064 56.6905 77.064H57.1473C57.5127 71.6737 62.0808 67.3797 67.5624 67.3797C73.3182 67.3797 78.0689 72.0391 78.0689 77.8862C78.0689 79.5307 77.7035 81.0838 76.9726 82.4542C82.1802 83.6419 86.1087 88.3014 86.1087 93.8744C86.1087 100.361 80.9011 105.569 74.4145 105.569C73.9577 105.569 58.7918 105.477 58.7918 105.477C54.2237 105.477 50.4779 101.731 50.4779 97.1634C50.4779 94.9707 51.3001 92.9608 52.7619 91.499C50.5693 90.22 48.9248 87.7532 48.9248 84.8297Z" fill="white"/>
<path d="M55.9595 21.3337H57.9694V31.6575H60.3448V33.302H55.9595V21.3337ZM61.5325 21.3337H63.5425V33.302H61.5325V21.3337ZM65.0042 21.3337H69.755V22.9782H67.0142V26.4499H69.0241V28.0944H67.0142V33.3934H65.0042V21.3337ZM70.8513 21.3337H75.6935V22.9782H72.8613V26.4499H74.8712V28.0944H72.8613V31.7489H75.6935V33.3934H70.8513V21.3337Z" fill="white"/>
<path d="M55.9595 47.92V42.0729C55.9595 40.1543 56.8731 38.8752 58.9744 38.8752C61.0757 38.8752 62.0807 40.2457 62.0807 42.0729V47.92C62.0807 49.7472 61.1671 51.1177 58.9744 51.1177C56.8731 51.1177 55.9595 49.7472 55.9595 47.92ZM60.0707 48.1941V41.7075C60.0707 40.9766 59.7966 40.4284 59.0657 40.4284C58.3349 40.4284 58.0608 40.9766 58.0608 41.7075V48.1941C58.0608 48.925 58.3349 49.4732 59.0657 49.4732C59.7053 49.4732 60.0707 48.925 60.0707 48.1941ZM64.9129 43.4433V51.0263H63.177V39.058H65.1869L67.3796 45.9101V39.058H69.0241V51.0263H67.2882L64.9129 43.4433ZM73.4094 38.9666H75.4194V49.2904H77.7948V50.9349H73.4094V38.9666ZM78.343 51.0263L80.627 39.058H82.911L85.195 51.0263H83.0937L82.7283 48.8336H80.627L80.2615 51.0263H78.343ZM80.9011 47.1891H82.5456L81.7233 42.347L80.9011 47.1891ZM87.7531 43.4433V51.0263H86.0173V39.058H88.0272L90.2199 45.9101V39.058H91.8644V51.0263H90.1285L87.7531 43.4433ZM99.2646 42.2556V47.8287C99.2646 49.6559 98.5337 51.0263 96.3411 51.0263H93.2348V39.058H96.3411C98.4424 38.9666 99.2646 40.337 99.2646 42.2556ZM96.067 49.3818C96.8892 49.3818 97.2547 48.925 97.2547 48.1941V41.8902C97.2547 41.1593 96.9806 40.7025 96.067 40.7025H95.2448V49.3818H96.067Z" fill="white"/>
</g>
<defs>
<filter id="filter0_d_796_1669" x="0" y="0" width="167" height="167" filterUnits="userSpaceOnUse" color-interpolation-filters="sRGB">
<feFlood flood-opacity="0" result="BackgroundImageFix"/>
<feColorMatrix in="SourceAlpha" type="matrix" values="0 0 0 0 0 0 0 0 0 0 0 0 0 0 0 0 0 0 127 0" result="hardAlpha"/>
<feOffset dx="1" dy="1"/>
<feGaussianBlur stdDeviation="5"/>
<feComposite in2="hardAlpha" operator="out"/>
<feColorMatrix type="matrix" values="0 0 0 0 0 0 0 0 0 0 0 0 0 0 0 0 0 0 0.15 0"/>
<feBlend mode="normal" in2="BackgroundImageFix" result="effect1_dropShadow_796_1669"/>
<feBlend mode="normal" in="SourceGraphic" in2="effect1_dropShadow_796_1669" result="shape"/>
</filter>
</defs>
</svg>
