<svg width="167" height="167" viewBox="0 0 167 167" fill="none" xmlns="http://www.w3.org/2000/svg">
<g filter="url(#filter0_d_796_1598)">
<path d="M9 19C9 13.4772 13.4772 9 19 9H146C151.523 9 156 13.4772 156 19V146C156 151.523 151.523 156 146 156H19C13.4772 156 9 151.523 9 146V19Z" fill="#DDA63A"/>
<path d="M36.4996 46.9148H28.3684V45.5443C28.3684 43.2603 29.1907 42.3467 30.4698 40.9763L33.6674 37.5959C36.2255 34.8551 36.7737 33.1192 36.7737 30.1043V27.2721C36.7737 23.0695 34.7637 21.0596 30.287 21.0596C25.9017 21.0596 23.709 23.3436 23.709 27.5462V31.1093H28.2771V27.3635C28.2771 25.5363 29.1907 25.0795 30.1957 25.0795C31.2006 25.0795 32.0229 25.4449 32.0229 27.2721V29.7389C32.0229 32.2056 31.8402 33.1192 30.1957 34.8551L27.3635 37.87C24.6227 40.7936 23.6177 42.7122 23.6177 45.6357V51.1174H36.5909L36.4996 46.9148Z" fill="white"/>
<path d="M69.7549 133.982V136.266C69.7549 136.814 70.2117 137.18 70.6685 137.18H94.8792C95.4273 137.18 95.7928 136.723 95.7928 136.175V133.799C109.406 129.323 119.638 118.268 121.922 104.746V104.655V104.564C121.922 104.016 121.465 103.559 120.917 103.559H43.6256C43.0774 103.559 42.6206 104.016 42.6206 104.564L42.712 105.02C45.3614 118.542 55.868 129.688 69.7549 133.982ZM95.9755 70.486C95.7014 70.9428 88.2098 81.7234 96.1582 90.4027C99.8127 94.4226 99.4472 97.8943 98.4422 100.27H103.558C104.563 96.798 104.198 92.3213 99.9954 87.8446C94.1483 81.4493 100.087 72.77 100.178 72.6787C100.909 71.6737 100.544 70.3946 99.3559 69.8465C98.1682 69.2069 96.7064 69.481 95.9755 70.486ZM83.0936 100.27H88.2098C89.2148 96.798 88.8493 92.3213 84.6467 87.8446C78.7996 81.4493 84.7381 72.77 84.8294 72.6787C85.5603 71.6737 85.1949 70.3946 84.0072 69.8465C82.8195 69.2983 81.3577 69.5724 80.6268 70.5773C80.2614 71.0342 72.8611 81.8148 80.8096 90.4941C84.464 94.4226 84.0986 97.8943 83.0936 100.27ZM65.1868 70.486C64.8214 70.9428 57.4211 81.7234 65.3695 90.4027C69.024 94.4226 68.6585 97.8943 67.6535 100.27H72.7698C73.7747 96.798 73.4093 92.3213 69.2067 87.8446C63.3596 81.4493 69.2981 72.77 69.3894 72.6787C70.1203 71.6737 69.7548 70.3946 68.5672 69.8465C67.4708 69.2069 65.9177 69.481 65.1868 70.486Z" fill="white"/>
<path d="M53.0359 31.7487H56.1422V33.3932H50.9346V31.7487L54.1322 23.0694H51.3V21.4249H56.3249V23.0694L53.0359 31.7487ZM57.4212 21.3336H62.2633V22.9781H59.4311V26.4498H61.4411V28.0943H59.4311V31.7487H62.2633V33.3932H57.4212V21.3336ZM65.5523 27.8202V33.3019H63.5424V21.3336H66.466C68.4759 21.3336 69.2068 22.3385 69.2068 23.983V25.5362C69.2068 26.8152 68.75 27.5461 67.5623 27.8202L69.4809 33.3019H67.3796L65.5523 27.8202ZM65.5523 22.9781V26.7239H66.1919C66.9228 26.7239 67.1968 26.3584 67.1968 25.7189V23.983C67.1968 23.3435 66.9228 22.9781 66.1919 22.9781H65.5523ZM70.4858 30.2869V24.4398C70.4858 22.5212 71.3995 21.2422 73.5008 21.2422C75.6021 21.2422 76.607 22.6126 76.607 24.4398V30.2869C76.607 32.1142 75.6934 33.4846 73.5008 33.4846C71.3995 33.4846 70.4858 32.1142 70.4858 30.2869ZM74.5971 30.561V24.0744C74.5971 23.3435 74.323 22.7953 73.5921 22.7953C72.8612 22.7953 72.5872 23.3435 72.5872 24.0744V30.561C72.5872 31.2919 72.8612 31.8401 73.5921 31.8401C74.323 31.8401 74.5971 31.2919 74.5971 30.561Z" fill="white"/>
<path d="M54.9546 45.6357H53.0361V50.9347H51.0261V38.9664H53.0361V44.0826H54.9546V38.9664H56.9646V50.9347H54.9546V45.6357ZM64.1821 38.9664V48.0111C64.1821 49.8383 63.3599 51.1174 61.3499 51.1174C59.2486 51.1174 58.335 49.9297 58.335 48.0111V38.9664H60.3449V48.2852C60.3449 49.0161 60.619 49.4729 61.3499 49.4729C62.0808 49.4729 62.3549 49.0161 62.3549 48.2852V38.9664H64.1821ZM67.197 43.4431V51.026H65.5525V39.0577H67.5625L69.7551 45.9098V39.0577H71.3996V51.026H69.6638L67.197 43.4431ZM75.785 44.5394H78.6172V50.9347H77.1554V49.6556C76.8813 50.5692 76.3331 51.1174 75.2368 51.1174C73.501 51.1174 72.6787 49.747 72.6787 47.9198V42.0726C72.6787 40.1541 73.5923 38.875 75.6936 38.875C77.8863 38.875 78.6172 40.1541 78.6172 41.8899V42.9862H76.7899V41.7986C76.7899 41.0677 76.5159 40.6109 75.785 40.6109C75.0541 40.6109 74.78 41.159 74.78 41.8899V48.3766C74.78 49.1075 75.0541 49.6556 75.785 49.6556C76.4245 49.6556 76.7899 49.2902 76.7899 48.4679V46.3666H75.8763V44.5394H75.785ZM79.9876 38.9664H84.8297V40.6109H81.9975V44.0826H84.0075V45.7271H81.9975V49.3815H84.8297V51.026H79.9876V38.9664ZM88.0274 45.453V50.9347H86.0174V38.9664H88.941C90.9509 38.9664 91.6818 39.9713 91.6818 41.6158V43.169C91.6818 44.448 91.225 45.1789 90.0373 45.453L91.9559 50.9347H89.8546L88.0274 45.453ZM88.0274 40.6109V44.3567H88.6669C89.3978 44.3567 89.6719 43.9912 89.6719 43.3517V41.6158C89.6719 40.9763 89.3978 40.6109 88.6669 40.6109H88.0274Z" fill="white"/>
</g>
<defs>
<filter id="filter0_d_796_1598" x="0" y="0" width="167" height="167" filterUnits="userSpaceOnUse" color-interpolation-filters="sRGB">
<feFlood flood-opacity="0" result="BackgroundImageFix"/>
<feColorMatrix in="SourceAlpha" type="matrix" values="0 0 0 0 0 0 0 0 0 0 0 0 0 0 0 0 0 0 127 0" result="hardAlpha"/>
<feOffset dx="1" dy="1"/>
<feGaussianBlur stdDeviation="5"/>
<feComposite in2="hardAlpha" operator="out"/>
<feColorMatrix type="matrix" values="0 0 0 0 0 0 0 0 0 0 0 0 0 0 0 0 0 0 0.15 0"/>
<feBlend mode="normal" in2="BackgroundImageFix" result="effect1_dropShadow_796_1598"/>
<feBlend mode="normal" in="SourceGraphic" in2="effect1_dropShadow_796_1598" result="shape"/>
</filter>
</defs>
</svg>
