<svg width="167" height="167" viewBox="0 0 167 167" fill="none" xmlns="http://www.w3.org/2000/svg">
<g filter="url(#filter0_d_796_1607)">
<path d="M9 19C9 13.4772 13.4772 9 19 9H146C151.523 9 156 13.4772 156 19V146C156 151.523 151.523 156 146 156H19C13.4772 156 9 151.523 9 146V19Z" fill="#4C9F38"/>
<path d="M29.9217 51.3915C34.9465 51.3915 37.1392 48.742 37.1392 44.6307V40.2454C37.1392 37.5046 35.9515 35.7687 33.4847 35.2205C35.4947 34.581 36.8651 32.9365 36.8651 30.3784V27.8203C36.8651 23.6177 34.8552 21.0596 30.2871 21.0596C25.1709 21.0596 23.3437 24.0745 23.3437 28.4598V31.1093H27.9117V28.0944C27.9117 26.2671 28.4599 25.1708 30.013 25.1708C31.5662 25.1708 32.1143 26.1758 32.1143 27.8203V31.0179C32.1143 32.5711 31.1094 33.3933 29.4649 33.3933H27.5463V37.2305H29.6476C31.3835 37.2305 32.1143 38.0527 32.1143 39.6059V44.5394C32.1143 46.0925 31.3834 47.1888 29.9217 47.1888C28.1858 47.1888 27.6376 46.0925 27.6376 44.2653V40.0627H23.0696V43.9912C23.0696 48.4679 24.8968 51.3915 29.9217 51.3915Z" fill="white"/>
<path d="M131.789 100.909C131.789 96.7981 129.14 93.4177 125.12 93.4177C123.11 93.4177 120.643 95.6104 119.364 96.9808C118.085 95.6104 115.801 93.4177 113.791 93.4177C109.771 93.4177 106.939 96.7981 106.939 100.909C106.939 103.011 107.761 104.838 109.041 106.208L119.364 116.532L129.688 106.208C130.967 104.838 131.789 103.011 131.789 100.909Z" fill="white"/>
<path d="M87.936 133.343C87.0224 133.251 86.3828 132.703 86.2915 131.972L81.0839 101.458L73.1355 116.167C72.7701 116.806 72.0392 117.172 71.3083 116.989C70.5774 116.898 70.0292 116.258 69.9379 115.527L66.5575 91.9561L60.4363 105.752C60.1622 106.391 59.5227 106.757 58.8832 106.757H34.9465C34.0329 106.757 33.2107 106.026 33.2107 105.021C33.2107 104.107 33.9416 103.285 34.9465 103.285H57.7868L65.918 85.104C66.192 84.3731 66.923 84.0077 67.6538 84.099C68.3847 84.1904 69.0242 84.8299 69.1156 85.5608L72.5873 109.863L80.4444 95.3364C80.8098 94.6969 81.4493 94.3315 82.1802 94.5142C82.9111 94.6056 83.4593 95.1537 83.5506 95.8846L88.3928 124.115L106.025 65.4614C106.208 64.8218 106.848 64.2737 107.487 64.2737C108.218 64.1823 108.858 64.6391 109.132 65.1873L118.451 84.4645C118.816 85.2867 118.542 86.2917 117.628 86.7485C116.806 87.1139 115.801 86.8399 115.344 85.9263L107.944 70.5776L89.4891 131.972C89.3064 132.886 88.6669 133.343 87.936 133.343Z" fill="white"/>
<path d="M54.0408 26.9066H56.873V33.3019H55.4113V32.0228C55.1372 32.9364 54.589 33.4846 53.4927 33.4846C51.7568 33.4846 50.9346 32.1142 50.9346 30.2869V24.4398C50.9346 22.5212 51.8482 21.2422 53.9495 21.2422C56.1422 21.2422 56.873 22.5212 56.873 24.2571V25.3534H55.0458V24.1658C55.0458 23.4349 54.7717 22.9781 54.0408 22.9781C53.31 22.9781 53.0359 23.5262 53.0359 24.2571V30.7438C53.0359 31.4746 53.31 32.0228 54.0408 32.0228C54.6804 32.0228 55.0458 31.6574 55.0458 30.8351V28.7338H54.1322V26.9066H54.0408ZM58.2435 30.2869V24.4398C58.2435 22.5212 59.1571 21.2422 61.2584 21.2422C63.3597 21.2422 64.3647 22.6126 64.3647 24.4398V30.2869C64.3647 32.1142 63.4511 33.4846 61.2584 33.4846C59.1571 33.4846 58.2435 32.1142 58.2435 30.2869ZM62.3547 30.561V24.0744C62.3547 23.3435 62.0806 22.7953 61.3497 22.7953C60.6188 22.7953 60.3448 23.3435 60.3448 24.0744V30.561C60.3448 31.2919 60.6188 31.8401 61.3497 31.8401C61.9893 31.8401 62.3547 31.2919 62.3547 30.561ZM65.6437 30.2869V24.4398C65.6437 22.5212 66.5573 21.2422 68.6586 21.2422C70.7599 21.2422 71.7649 22.6126 71.7649 24.4398V30.2869C71.7649 32.1142 70.8513 33.4846 68.6586 33.4846C66.5573 33.4846 65.6437 32.1142 65.6437 30.2869ZM69.755 30.561V24.0744C69.755 23.3435 69.4809 22.7953 68.75 22.7953C68.0191 22.7953 67.745 23.3435 67.745 24.0744V30.561C67.745 31.2919 68.0191 31.8401 68.75 31.8401C69.4809 31.8401 69.755 31.2919 69.755 30.561ZM79.1651 24.5312V30.1042C79.1651 31.9314 78.4342 33.3019 76.2416 33.3019H73.1353V21.3336H76.2416C78.3429 21.3336 79.1651 22.704 79.1651 24.5312ZM75.9675 31.6574C76.7898 31.6574 77.1552 31.2006 77.1552 30.4697V24.1658C77.1552 23.4349 76.8811 22.9781 75.9675 22.9781H75.1453V31.6574H75.9675ZM87.2049 28.0943H85.2863V33.3932H83.2764V21.4249H85.2863V26.5411H87.2049V21.4249H89.2149V33.3932H87.2049V28.0943ZM90.6767 21.3336H95.5188V22.9781H92.6866V26.4498H94.6965V28.0943H92.6866V31.7487H95.5188V33.3932H90.6767V21.3336ZM96.4324 33.3932L98.7164 21.4249H101L103.284 33.3932H101.183L100.818 31.2006H98.7164L98.351 33.3932H96.4324ZM98.9905 29.5561H100.635L99.8128 24.7139L98.9905 29.5561ZM104.289 21.3336H106.299V31.6574H108.675V33.3019H104.289V21.3336ZM108.401 21.3336H113.791V22.9781H112.147V33.3019H110.137V22.9781H108.492V21.3336H108.401ZM118.907 28.0943H116.989V33.3932H114.979V21.4249H116.989V26.5411H118.907V21.4249H120.917V33.3932H118.907V28.0943Z" fill="white"/>
<path d="M50.6606 50.9347L52.9447 38.9664H55.2287L57.5127 50.9347H55.4114L55.046 48.742H52.9447L52.5792 50.9347H50.6606ZM53.2187 47.1889H54.8633L54.041 42.3467L53.2187 47.1889ZM60.0708 43.4431V51.026H58.335V39.0577H60.3449L62.5376 45.9098V39.0577H64.1821V51.026H62.4462L60.0708 43.4431ZM71.6737 42.164V47.737C71.6737 49.5642 70.9428 50.9347 68.7501 50.9347H65.6439V38.9664H68.7501C70.9428 38.9664 71.6737 40.3368 71.6737 42.164ZM68.4761 49.2902C69.2983 49.2902 69.6637 48.8334 69.6637 48.1025V41.7986C69.6637 41.0677 69.3897 40.6109 68.4761 40.6109H67.6538V49.2902H68.4761ZM79.4394 43.5344L78.3431 50.9347H76.4245L74.78 38.9664H76.6985L77.6121 46.5493L78.6171 38.9664H80.2616L81.358 46.5493L82.2716 38.9664H84.0074L82.4543 50.9347H80.5357L79.4394 43.5344ZM85.1038 38.9664H89.9459V40.6109H87.1137V44.0826H89.1237V45.7271H87.1137V49.3815H89.9459V51.026H85.1038V38.9664ZM91.225 38.9664H93.2349V49.2902H95.6103V50.9347H91.225V38.9664ZM96.7066 38.9664H98.7166V49.2902H101.092V50.9347H96.7066V38.9664ZM100.909 43.8999H103.741V45.5444H100.909V43.8999ZM104.929 38.9664H107.853C109.863 38.9664 110.502 39.88 110.502 41.6158V42.8035C110.502 43.8085 110.137 44.448 109.314 44.7221C110.319 44.9962 110.776 45.6357 110.776 46.7321V48.2852C110.776 50.0211 110.045 50.9347 108.035 50.9347H104.929V38.9664ZM106.939 43.9912H107.67C108.309 43.9912 108.584 43.6258 108.584 42.9862V41.5245C108.584 40.885 108.31 40.5195 107.579 40.5195H106.848L106.939 43.9912ZM106.939 45.5444V49.2902H107.853C108.492 49.2902 108.858 48.9247 108.858 48.2852V46.458C108.858 45.8184 108.584 45.453 107.853 45.453H106.939V45.5444ZM112.055 38.9664H116.897V40.6109H114.065V44.0826H116.075V45.7271H114.065V49.3815H116.897V51.026H112.055V38.9664ZM118.085 38.9664H120.095V50.9347H118.085V38.9664ZM123.293 43.4431V51.026H121.557V39.0577H123.567L125.759 45.9098V39.0577H127.404V51.026H125.668L123.293 43.4431ZM131.881 44.5394H134.713V50.9347H133.251V49.6556C132.977 50.5692 132.429 51.1174 131.333 51.1174C129.597 51.1174 128.774 49.747 128.774 47.9198V42.0726C128.774 40.1541 129.688 38.875 131.789 38.875C133.982 38.875 134.713 40.1541 134.713 41.8899V42.9862H132.886V41.7986C132.886 41.0677 132.612 40.6109 131.881 40.6109C131.15 40.6109 130.876 41.159 130.876 41.8899V48.3766C130.876 49.1075 131.15 49.6556 131.881 49.6556C132.52 49.6556 132.886 49.2902 132.886 48.4679V46.3666H131.972V44.5394H131.881Z" fill="white"/>
</g>
<defs>
<filter id="filter0_d_796_1607" x="0" y="0" width="167" height="167" filterUnits="userSpaceOnUse" color-interpolation-filters="sRGB">
<feFlood flood-opacity="0" result="BackgroundImageFix"/>
<feColorMatrix in="SourceAlpha" type="matrix" values="0 0 0 0 0 0 0 0 0 0 0 0 0 0 0 0 0 0 127 0" result="hardAlpha"/>
<feOffset dx="1" dy="1"/>
<feGaussianBlur stdDeviation="5"/>
<feComposite in2="hardAlpha" operator="out"/>
<feColorMatrix type="matrix" values="0 0 0 0 0 0 0 0 0 0 0 0 0 0 0 0 0 0 0.15 0"/>
<feBlend mode="normal" in2="BackgroundImageFix" result="effect1_dropShadow_796_1607"/>
<feBlend mode="normal" in="SourceGraphic" in2="effect1_dropShadow_796_1607" result="shape"/>
</filter>
</defs>
</svg>
