<svg width="167" height="167" viewBox="0 0 167 167" fill="none" xmlns="http://www.w3.org/2000/svg">
<g filter="url(#filter0_d_796_1617)">
<path d="M9 19C9 13.4772 13.4772 9 19 9H146C151.523 9 156 13.4772 156 19V146C156 151.523 151.523 156 146 156H19C13.4772 156 9 151.523 9 146V19Z" fill="#C5192D"/>
<path d="M32.0231 51.0261H36.7739V46.184H38.7838V42.2554H36.7739V21.3337H31.8404L23.2524 43.0777V46.0926H32.0231V51.0261ZM27.6378 42.2554L32.1144 30.013V42.2554H27.6378Z" fill="white"/>
<path d="M73.5008 87.8445L47.0974 72.5872V121.922L73.5008 129.871V87.8445ZM76.333 87.9359V129.871L102.919 121.831V72.5872L76.333 87.9359ZM123.567 71.3995C123.567 69.6636 122.196 68.2932 120.46 68.2932C118.724 68.2932 117.354 69.6636 117.354 71.3995V74.7799H123.567V71.3995ZM117.354 121.009L120.46 131.881L123.567 121.009V77.1553H117.354V121.009Z" fill="white"/>
<path d="M108.583 74.7799L105.751 72.4958V123.201L76.4241 132.703H73.5006L44.2651 124.572V72.4958L41.4329 74.7799V126.49L73.3179 135.352H76.6069L105.934 126.033L108.583 125.211V74.7799Z" fill="white"/>
<path d="M51.0261 38.9664H55.8683V40.6109H53.0361V44.0826H55.046V45.7271H53.0361V49.3816H55.8683V51.0261H51.0261V38.9664ZM63.0858 42.164V47.7371C63.0858 49.5643 62.3549 50.9347 60.1622 50.9347H57.056V38.9664H60.1622C62.3549 38.9664 63.0858 40.3368 63.0858 42.164ZM59.8882 49.2902C60.7104 49.2902 61.0758 48.8334 61.0758 48.1025V41.7986C61.0758 41.0677 60.8018 40.6109 59.8882 40.6109H59.0659V49.2902H59.8882ZM70.3033 38.9664V48.0112C70.3033 49.8384 69.4811 51.1174 67.4711 51.1174C65.3698 51.1174 64.4562 49.9297 64.4562 48.0112V38.9664H66.4662V48.2852C66.4662 49.0161 66.7402 49.4729 67.4711 49.4729C68.202 49.4729 68.4761 49.0161 68.4761 48.2852V38.9664H70.3033ZM71.5824 47.8284V41.9813C71.5824 40.0627 72.496 38.7837 74.5973 38.7837C76.7899 38.7837 77.4295 40.0627 77.4295 41.7986V43.2604H75.6023V41.7072C75.6023 40.9764 75.3282 40.5195 74.5973 40.5195C73.8664 40.5195 73.5923 41.0677 73.5923 41.7986V48.2852C73.5923 49.0161 73.8664 49.5643 74.5973 49.5643C75.3282 49.5643 75.6023 49.1075 75.6023 48.3766V46.1839H77.4295V48.2852C77.4295 50.0211 76.6986 51.3002 74.5973 51.3002C72.496 51.1174 71.5824 49.747 71.5824 47.8284ZM78.1604 50.9347L80.4444 38.9664H82.7284L85.0125 50.9347H82.9112L82.5457 48.742H80.4444L80.0789 50.9347H78.1604ZM80.6271 47.1889H82.2716L81.4494 42.3468L80.6271 47.1889ZM84.7384 38.9664H90.1287V40.6109H88.4842V50.9347H86.4742V40.6109H84.8297V38.9664H84.7384ZM91.225 38.9664H93.235V50.9347H91.225V38.9664ZM94.6054 47.8284V41.9813C94.6054 40.0627 95.519 38.7837 97.6203 38.7837C99.7216 38.7837 100.727 40.1541 100.727 41.9813V47.8284C100.727 49.6557 99.813 51.0261 97.6203 51.0261C95.519 51.1174 94.6054 49.747 94.6054 47.8284ZM98.7166 48.1939V41.7072C98.7166 40.9764 98.4426 40.4282 97.7117 40.4282C96.9808 40.4282 96.7067 40.9764 96.7067 41.7072V48.1939C96.7067 48.9248 96.9808 49.4729 97.7117 49.4729C98.3512 49.3816 98.7166 48.9248 98.7166 48.1939ZM103.741 43.4431V51.0261H102.006V39.0578H104.016L106.208 45.9098V39.0578H107.853V51.0261H106.117L103.741 43.4431Z" fill="white"/>
<path d="M53.3102 34.1244V33.3022C51.6657 33.0281 51.0261 31.8404 51.0261 30.1959V24.3488C51.0261 22.4302 51.9397 21.1511 54.041 21.1511C56.1423 21.1511 57.1473 22.5215 57.1473 24.3488V30.1959C57.1473 31.4749 56.6905 32.5713 55.6856 33.0281L57.1473 33.3022V34.7639L53.3102 34.1244ZM55.1374 30.6527V24.0747C55.1374 23.3438 54.8633 22.7956 54.1324 22.7956C53.4015 22.7956 53.1274 23.3438 53.1274 24.0747V30.6527C53.1274 31.3836 53.4015 31.9317 54.1324 31.9317C54.772 31.9317 55.1374 31.3836 55.1374 30.6527ZM64.2735 21.3338V30.3786C64.2735 32.2058 63.4513 33.4849 61.4413 33.4849C59.34 33.4849 58.4264 32.2972 58.4264 30.3786V21.3338H60.4363V30.6527C60.4363 31.3836 60.7104 31.8404 61.4413 31.8404C62.1722 31.8404 62.4463 31.3836 62.4463 30.6527V21.3338H64.2735ZM65.0958 33.3022L67.3798 21.3338H69.6638L71.9478 33.3022H69.8465L69.4811 31.1095H67.3798L67.0143 33.3022H65.0958ZM67.5625 29.5563H69.207L68.3847 24.7142L67.5625 29.5563ZM72.8614 21.3338H74.8714V31.6576H77.2468V33.3022H72.8614V21.3338ZM78.2517 21.3338H80.2617V33.3022H78.2517V21.3338ZM81.2667 21.3338H86.657V22.9783H85.0125V33.3022H83.0025V22.9783H81.358L81.2667 21.3338ZM91.4991 28.7341V33.3022H89.4892V28.7341L87.2052 21.3338H89.3064L90.4941 25.9019L91.6818 21.3338H93.6004L91.4991 28.7341Z" fill="white"/>
</g>
<defs>
<filter id="filter0_d_796_1617" x="0" y="0" width="167" height="167" filterUnits="userSpaceOnUse" color-interpolation-filters="sRGB">
<feFlood flood-opacity="0" result="BackgroundImageFix"/>
<feColorMatrix in="SourceAlpha" type="matrix" values="0 0 0 0 0 0 0 0 0 0 0 0 0 0 0 0 0 0 127 0" result="hardAlpha"/>
<feOffset dx="1" dy="1"/>
<feGaussianBlur stdDeviation="5"/>
<feComposite in2="hardAlpha" operator="out"/>
<feColorMatrix type="matrix" values="0 0 0 0 0 0 0 0 0 0 0 0 0 0 0 0 0 0 0.15 0"/>
<feBlend mode="normal" in2="BackgroundImageFix" result="effect1_dropShadow_796_1617"/>
<feBlend mode="normal" in="SourceGraphic" in2="effect1_dropShadow_796_1617" result="shape"/>
</filter>
</defs>
</svg>
