<svg width="167" height="167" viewBox="0 0 167 167" fill="none" xmlns="http://www.w3.org/2000/svg">
<g filter="url(#filter0_d_796_1762)">
<path d="M9 19C9 13.4772 13.4772 9 19 9H146C151.523 9 156 13.4772 156 19V146C156 151.523 151.523 156 146 156H19C13.4772 156 9 151.523 9 146V19Z" fill="#FF3A21"/>
<path d="M32.3884 30.7439C30.3785 30.7439 29.0081 31.4748 28.1858 32.7538V25.3536H36.7737V21.2423H23.6178V37.9614H28.1858V37.3219C28.1858 35.586 29.008 34.581 30.3785 34.581C31.9316 34.581 32.4798 35.6774 32.4798 37.2305V44.3567C32.4798 45.9098 31.9316 47.0062 30.3785 47.0062C28.6426 47.0062 28.0944 45.9098 28.0944 44.0826V40.3368H23.5264V43.7171C23.5264 48.1938 25.3536 51.1174 30.3785 51.1174C35.4033 51.1174 37.5047 48.4679 37.5047 44.3567V37.3219C37.5047 32.5711 35.1292 30.7439 32.3884 30.7439Z" fill="white"/>
<path d="M116.075 64.6388H97.803C97.7116 64.6388 97.5288 64.7302 97.5288 64.9129V70.9427C97.5288 71.0341 97.6203 71.2168 97.803 71.2168H105.112L97.072 79.2566C92.9608 76.0589 87.8446 74.1403 82.2716 74.1403C69.1156 74.1403 58.335 84.921 58.335 98.077C58.335 110.228 67.4711 120.278 79.1653 121.831V128.866H71.9477C71.8564 128.866 71.6737 128.957 71.6737 129.14V135.626C71.6737 135.718 71.765 135.9 71.9477 135.9H79.1653V142.753C79.1653 142.844 79.2566 143.027 79.4394 143.027H85.926C86.0174 143.027 86.2001 142.935 86.2001 142.753V135.9H93.4176C93.509 135.9 93.6917 135.809 93.6917 135.626V129.14C93.6917 129.048 93.6003 128.866 93.4176 128.866H86.2001V121.739C97.5289 119.912 106.208 110.045 106.208 98.1683C106.208 93.0521 104.564 88.3013 101.823 84.3728L109.771 76.4244V83.1851C109.771 83.2765 109.863 83.4592 110.045 83.4592H116.075C116.167 83.4592 116.349 83.3678 116.349 83.1851V64.9129C116.349 64.7302 116.167 64.6388 116.075 64.6388ZM82.2716 115.71C72.5873 115.71 64.6388 107.761 64.6388 98.077C64.6388 88.3927 72.4959 80.4443 82.2716 80.4443C91.9559 80.4443 99.9043 88.3013 99.9043 98.077C99.9043 107.761 91.9559 115.71 82.2716 115.71Z" fill="white"/>
<path d="M93.1435 90.8594H71.8563C71.765 90.8594 71.5823 90.9507 71.5823 91.0421V96.2497C71.5823 96.341 71.6736 96.4324 71.8563 96.4324H93.2349C93.3262 96.4324 93.5089 96.341 93.5089 96.2497V91.0421C93.4176 90.9507 93.3262 90.8594 93.1435 90.8594ZM93.1435 100.087H71.8563C71.765 100.087 71.5823 100.178 71.5823 100.27V105.477C71.5823 105.569 71.6736 105.66 71.8563 105.66H93.2349C93.3262 105.66 93.5089 105.569 93.5089 105.477V100.27C93.4176 100.178 93.3262 100.087 93.1435 100.087Z" fill="white"/>
<path d="M50.9346 38.9665H55.7768V40.611H52.9445V44.0827H54.9545V45.7273H52.9445V49.3817H55.7768V51.0262H50.9346V38.9665ZM58.9744 51.7571V50.9348C57.3299 50.6607 56.6904 49.4731 56.6904 47.8286V41.9815C56.6904 40.0629 57.604 38.7838 59.7053 38.7838C61.8066 38.7838 62.8115 40.1542 62.8115 41.9815V47.8286C62.8115 49.1076 62.3547 50.204 61.3498 50.6608L62.8115 50.9348V52.3966L58.9744 51.7571ZM60.8016 48.2854V41.7074C60.8016 40.9765 60.5275 40.4283 59.7966 40.4283C59.0657 40.4283 58.7917 40.9765 58.7917 41.7074V48.2854C58.7917 49.0163 59.0657 49.5644 59.7966 49.5644C60.5275 49.5644 60.8016 49.0163 60.8016 48.2854ZM70.0291 38.9665V48.0113C70.0291 49.8385 69.2068 51.1176 67.1969 51.1176C65.0956 51.1176 64.1819 49.9299 64.1819 48.0113V38.9665H66.1919V48.2854C66.1919 49.0163 66.466 49.4731 67.1969 49.4731C67.9278 49.4731 68.2018 49.0163 68.2018 48.2854V38.9665H70.0291ZM71.034 50.9348L73.318 38.9665H75.6021L77.8861 50.9348H75.7848L75.4194 48.7422H73.318L72.9526 50.9348H71.034ZM73.5922 47.189H75.2367L74.4144 42.3469L73.5922 47.189ZM78.8911 38.9665H80.9011V49.2903H83.2764V50.9348H78.8911V38.9665ZM84.3728 38.9665H86.3827V50.9348H84.3728V38.9665ZM87.479 38.9665H92.8693V40.611H91.2249V50.9348H89.2149V40.611H87.5704V38.9665H87.479ZM97.8942 46.3668V50.9348H95.8842V46.3668L93.6002 38.9665H95.7015L96.8893 43.5346L98.0769 38.9665H99.9955L97.8942 46.3668Z" fill="white"/>
<path d="M54.0409 26.9067H56.873V33.302H55.4113V32.0229C55.1372 32.9365 54.5891 33.4847 53.4927 33.4847C51.7569 33.4847 50.9346 32.1143 50.9346 30.2871V24.4399C50.9346 22.5214 51.8482 21.2423 53.9495 21.2423C56.1422 21.2423 56.873 22.5214 56.873 24.2572V25.3536H55.0458V24.1659C55.0458 23.435 54.7718 22.9782 54.0409 22.9782C53.31 22.9782 53.0359 23.5263 53.0359 24.2572V30.7439C53.0359 31.4748 53.31 32.0229 54.0409 32.0229C54.6804 32.0229 55.0458 31.6575 55.0458 30.8352V28.7339H54.1322V26.9067H54.0409ZM58.2435 21.3337H63.0856V22.9782H60.2534V26.4499H62.2634V28.0944H60.2534V31.7488H63.0856V33.3933H58.2435V21.3337ZM66.0092 25.8104V33.3933H64.2733V21.425H66.2833L68.4759 28.2771V21.425H70.1204V33.3933H68.3846L66.0092 25.8104ZM77.5207 24.5313V30.1043C77.5207 31.9316 76.7898 33.302 74.5971 33.302H71.4908V21.3337H74.5971C76.7898 21.3337 77.5207 22.7041 77.5207 24.5313ZM74.323 31.6575C75.1453 31.6575 75.5107 31.2007 75.5107 30.4698V24.1659C75.5107 23.435 75.2367 22.9782 74.323 22.9782H73.5008V31.6575H74.323ZM78.8911 21.3337H83.7332V22.9782H80.9011V26.4499H82.911V28.0944H80.9011V31.7488H83.7332V33.3933H78.8911V21.3337ZM86.9309 27.8203V33.302H84.9209V21.3337H87.8445C89.8544 21.3337 90.5853 22.3386 90.5853 23.9831V25.5363C90.5853 26.8153 90.1285 27.5462 88.9408 27.8203L90.8594 33.302H88.7581L86.9309 27.8203ZM86.9309 22.9782V26.724H87.5704C88.3013 26.724 88.5754 26.3585 88.5754 25.719V23.9831C88.5754 23.3436 88.3013 22.9782 87.5704 22.9782H86.9309Z" fill="white"/>
</g>
<defs>
<filter id="filter0_d_796_1762" x="0" y="0" width="167" height="167" filterUnits="userSpaceOnUse" color-interpolation-filters="sRGB">
<feFlood flood-opacity="0" result="BackgroundImageFix"/>
<feColorMatrix in="SourceAlpha" type="matrix" values="0 0 0 0 0 0 0 0 0 0 0 0 0 0 0 0 0 0 127 0" result="hardAlpha"/>
<feOffset dx="1" dy="1"/>
<feGaussianBlur stdDeviation="5"/>
<feComposite in2="hardAlpha" operator="out"/>
<feColorMatrix type="matrix" values="0 0 0 0 0 0 0 0 0 0 0 0 0 0 0 0 0 0 0.15 0"/>
<feBlend mode="normal" in2="BackgroundImageFix" result="effect1_dropShadow_796_1762"/>
<feBlend mode="normal" in="SourceGraphic" in2="effect1_dropShadow_796_1762" result="shape"/>
</filter>
</defs>
</svg>
