<svg width="167" height="167" viewBox="0 0 167 167" fill="none" xmlns="http://www.w3.org/2000/svg">
<g filter="url(#filter0_d_796_1627)">
<path d="M9 19C9 13.4772 13.4772 9 19 9H146C151.523 9 156 13.4772 156 19V146C156 151.523 151.523 156 146 156H19C13.4772 156 9 151.523 9 146V19Z" fill="#26BDE2"/>
<path d="M31.292 51.3915C36.591 51.3915 38.6009 48.4679 38.6009 43.8998V39.5145C38.6009 34.6724 36.6824 32.2056 33.1193 32.2056C31.018 32.2056 29.7389 33.2106 29.008 34.581V28.1857C29.008 26.3585 29.5562 25.0795 31.3834 25.0795C33.2106 25.0795 33.6674 26.1758 33.6674 28.003V30.013H38.2355V28.4598C38.2355 24.0745 36.7737 21.0596 31.292 21.0596C26.0845 21.0596 24.0745 24.4399 24.0745 29.0993V43.5344C23.9831 48.0111 25.9931 51.3915 31.292 51.3915ZM29.008 38.875C29.0994 37.2305 29.8302 36.1342 31.3834 36.1342C33.1192 36.1342 33.7588 37.1391 33.7588 39.1491V44.2653C33.7588 46.1839 33.0279 47.2802 31.3834 47.2802C29.7389 47.2802 29.0994 46.1839 29.0994 44.2653L29.008 38.875ZM109.68 68.476C109.588 68.3846 109.406 68.2933 109.223 68.2933H55.8682C55.6855 68.2933 55.5028 68.3846 55.4114 68.476C55.32 68.6587 55.2286 68.8414 55.3199 69.0241L64.2734 123.201C64.3647 123.475 64.5474 123.749 64.9129 123.749H75.8762L76.6071 132.611H71.9477L82.7283 143.392L93.5089 132.611H88.8495L89.5804 123.841H100.726C101.001 123.841 101.275 123.658 101.366 123.293L109.771 69.1155C109.863 68.7501 109.771 68.5674 109.68 68.476ZM89.1236 111.873C89.1236 111.873 86.6568 114.339 82.7283 114.065C78.7998 114.339 76.333 111.873 76.333 111.873C72.3131 107.853 73.775 102.919 75.1454 100.361C75.9676 98.7165 82.1801 89.489 82.6369 88.7581C83.1851 89.5804 89.3064 98.8079 90.1286 100.361C91.6818 102.919 93.0521 107.853 89.1236 111.873ZM106.025 79.8961C104.564 79.2566 102.736 79.5307 101 80.1702C94.4225 82.8197 89.8545 83.8246 82.9111 81.632C78.5257 80.2616 74.4145 77.4294 69.5724 79.1652C66.3747 80.3529 63.3598 81.4493 59.7053 81.3579L57.604 70.5773H107.487L106.025 79.8961Z" fill="white"/>
<path d="M50.8433 50.9347L53.1273 38.9664H55.4114L57.6954 50.9347H55.594L55.2286 48.742H53.1273L52.7619 50.9347H50.8433ZM53.4014 47.1889H55.0459L54.2236 42.3468L53.4014 47.1889ZM60.2534 43.4431V51.0261H58.5176V39.0578H60.5276L62.7203 45.9098V39.0578H64.3647V51.0261H62.6288L60.2534 43.4431ZM71.8564 42.164V47.7371C71.8564 49.5643 71.1254 50.9347 68.9327 50.9347H65.8264V38.9664H68.9327C71.1254 38.9664 71.8564 40.3368 71.8564 42.164ZM68.7501 49.2902C69.5723 49.2902 69.9377 48.8334 69.9377 48.1025V41.7986C69.9377 41.0677 69.6637 40.6109 68.7501 40.6109H67.9278V49.2902H68.7501ZM76.4244 48.3766V46.7321H78.343V48.3766C78.343 49.0161 78.617 49.4729 79.3479 49.4729C79.9875 49.4729 80.2615 49.0161 80.2615 48.3766V47.9198C80.2615 47.1889 79.9875 46.8235 79.3479 46.1839L78.1602 44.9962C76.9725 43.8999 76.5158 43.169 76.5158 41.7986V41.4332C76.5158 39.9714 77.4294 38.7837 79.3479 38.7837C81.3579 38.7837 82.1801 39.7887 82.1801 41.5245V42.5295H80.3529V41.5245C80.3529 40.7936 80.0788 40.5195 79.4393 40.5195C78.8911 40.5195 78.5257 40.7936 78.5257 41.5245V41.7986C78.5257 42.4381 78.8911 42.8949 79.4393 43.4431L80.7184 44.7222C81.8147 45.8185 82.3629 46.5494 82.3629 47.8284V48.3766C82.3629 50.0211 81.4492 51.2088 79.4393 51.2088C77.1552 51.1174 76.4244 49.9297 76.4244 48.3766ZM82.8197 50.9347L85.1037 38.9664H87.3878L89.6718 50.9347H87.5704L87.205 48.742H85.1037L84.7383 50.9347H82.8197ZM85.2864 47.1889H86.931L86.1087 42.3468L85.2864 47.1889ZM92.3212 43.4431V51.0261H90.5854V39.0578H92.5953L94.788 45.9098V39.0578H96.4324V51.0261H94.6966L92.3212 43.4431ZM98.077 38.9664H100.087V50.9347H98.077V38.9664ZM101.092 38.9664H106.482V40.6109H104.838V50.9347H102.828V40.6109H101.183L101.092 38.9664ZM105.934 50.9347L108.218 38.9664H110.502L112.786 50.9347H110.685L110.319 48.742H108.218L107.853 50.9347H105.934ZM108.492 47.1889H110.137L109.314 42.3468L108.492 47.1889ZM112.147 38.9664H117.537V40.6109H115.892V50.9347H113.882V40.6109H112.238L112.147 38.9664ZM118.633 38.9664H120.643V50.9347H118.633V38.9664ZM121.922 47.8284V41.9813C121.922 40.0627 122.836 38.7837 124.937 38.7837C127.038 38.7837 128.043 40.1541 128.043 41.9813V47.8284C128.043 49.6557 127.13 51.0261 124.937 51.0261C122.927 51.1174 121.922 49.747 121.922 47.8284ZM126.033 48.1939V41.7072C126.033 40.9764 125.759 40.4282 125.028 40.4282C124.298 40.4282 124.024 40.9764 124.024 41.7072V48.1939C124.024 48.9248 124.298 49.4729 125.028 49.4729C125.759 49.3816 126.033 48.9248 126.033 48.1939ZM131.15 43.4431V51.0261H129.414V39.0578H131.424L133.616 45.9098V39.0578H135.261V51.0261H133.525L131.15 43.4431Z" fill="white"/>
<path d="M51.1177 30.1043V24.2572C51.1177 22.3386 52.0313 21.0596 54.1326 21.0596C56.3253 21.0596 56.9648 22.3386 56.9648 24.0745V25.5363H55.1376V23.9831C55.1376 23.2522 54.8635 22.7954 54.1326 22.7954C53.4017 22.7954 53.1276 23.3436 53.1276 24.0745V30.5611C53.1276 31.292 53.4017 31.8402 54.1326 31.8402C54.8635 31.8402 55.1376 31.3834 55.1376 30.6525V28.4598H56.9648V30.5611C56.9648 32.297 56.2339 33.576 54.1326 33.576C51.94 33.3933 51.1177 32.0229 51.1177 30.1043ZM58.2439 21.2423H60.2538V31.5661H62.6292V33.2106H58.2439V21.2423ZM63.7256 21.2423H68.5676V22.8868H65.7355V26.3585H67.7455V28.003H65.7355V31.6575H68.5676V33.302H63.7256V21.2423ZM69.4812 33.2106L71.7653 21.2423H74.0493L76.3333 33.2106H74.2321L73.8666 31.0179H71.7653L71.3999 33.2106H69.4812ZM72.0394 29.4648H73.6839L72.8617 24.6227L72.0394 29.4648ZM79.0742 25.719V33.302H77.3384V21.3337H79.3483L81.541 28.1857V21.3337H83.1854V33.302H81.4496L79.0742 25.719ZM91.8647 25.8103L90.7684 33.2106H88.8499L87.2053 21.2423H89.1239L90.0375 28.8253L91.0425 21.2423H92.687L93.7834 28.8253L94.697 21.2423H96.4328L94.8797 33.2106H92.9611L91.8647 25.8103ZM96.5242 33.2106L98.8082 21.2423H101.092L103.376 33.2106H101.275L100.909 31.0179H98.8082L98.4428 33.2106H96.5242ZM98.9909 29.4648H100.635L99.8132 24.6227L98.9909 29.4648ZM103.102 21.2423H108.492V22.8868H106.848V33.2106H104.838V22.8868H103.194L103.102 21.2423ZM109.406 21.2423H114.248V22.8868H111.416V26.3585H113.426V28.003H111.416V31.6575H114.248V33.302H109.406V21.2423ZM117.354 27.7289V33.2106H115.345V21.2423H118.268C120.278 21.2423 121.009 22.2473 121.009 23.8918V25.4449C121.009 26.724 120.552 27.4548 119.364 27.7289L121.283 33.2106H119.182L117.354 27.7289ZM117.354 22.8868V26.6326H117.994C118.725 26.6326 118.999 26.2672 118.999 25.6276V23.8918C118.999 23.2522 118.725 22.8868 117.994 22.8868H117.354Z" fill="white"/>
</g>
<defs>
<filter id="filter0_d_796_1627" x="0" y="0" width="167" height="167" filterUnits="userSpaceOnUse" color-interpolation-filters="sRGB">
<feFlood flood-opacity="0" result="BackgroundImageFix"/>
<feColorMatrix in="SourceAlpha" type="matrix" values="0 0 0 0 0 0 0 0 0 0 0 0 0 0 0 0 0 0 127 0" result="hardAlpha"/>
<feOffset dx="1" dy="1"/>
<feGaussianBlur stdDeviation="5"/>
<feComposite in2="hardAlpha" operator="out"/>
<feColorMatrix type="matrix" values="0 0 0 0 0 0 0 0 0 0 0 0 0 0 0 0 0 0 0.15 0"/>
<feBlend mode="normal" in2="BackgroundImageFix" result="effect1_dropShadow_796_1627"/>
<feBlend mode="normal" in="SourceGraphic" in2="effect1_dropShadow_796_1627" result="shape"/>
</filter>
</defs>
</svg>
