<svg width="167" height="167" viewBox="0 0 167 167" fill="none" xmlns="http://www.w3.org/2000/svg">
<g filter="url(#filter0_d_796_1634)">
<path d="M9 19C9 13.4772 13.4772 9 19 9H146C151.523 9 156 13.4772 156 19V146C156 151.523 151.523 156 146 156H19C13.4772 156 9 151.523 9 146V19Z" fill="#FCC30B"/>
<path d="M24.0745 25.3536H31.7488L25.0794 50.9347H30.0129L36.5909 25.9018V21.3337H24.0745V25.3536Z" fill="white"/>
<path d="M50.6606 33.3019L52.9447 21.3336H55.2287L57.5127 33.3019H55.4114L55.046 31.1092H52.9447L52.5792 33.3019H50.6606ZM53.2188 29.4647H54.8633L54.041 24.6226L53.2188 29.4647ZM58.2436 21.3336H62.9944V22.9781H60.2536V26.4498H62.2635V28.0943H60.2536V33.3933H58.2436V21.3336ZM63.8167 21.3336H68.5674V22.9781H65.8266V26.4498H67.8365V28.0943H65.8266V33.3933H63.8167V21.3336ZM69.1156 30.1956V24.3485C69.1156 22.4299 70.0292 21.1509 72.1305 21.1509C74.2318 21.1509 75.2368 22.5213 75.2368 24.3485V30.1956C75.2368 32.0228 74.3232 33.3933 72.1305 33.3933C70.0292 33.4846 69.1156 32.0228 69.1156 30.1956ZM73.2268 30.5611V24.0744C73.2268 23.3436 72.9528 22.7954 72.2219 22.7954C71.491 22.7954 71.2169 23.3436 71.2169 24.0744V30.5611C71.2169 31.292 71.491 31.8401 72.2219 31.8401C72.9528 31.7488 73.2268 31.292 73.2268 30.5611ZM78.3431 27.8203V33.3019H76.3331V21.3336H79.2567C81.2666 21.3336 81.9975 22.3386 81.9975 23.9831V25.5362C81.9975 26.8153 81.5407 27.5462 80.353 27.8203L82.2716 33.3019H80.1703L78.3431 27.8203ZM78.3431 22.9781V26.7239H78.9826C79.7135 26.7239 79.9876 26.3585 79.9876 25.7189V23.9831C79.9876 23.3436 79.7135 22.9781 78.9826 22.9781H78.3431ZM89.1237 24.5313V30.1043C89.1237 31.9315 88.3928 33.3019 86.2001 33.3019H83.0938V21.3336H86.2001C88.3014 21.3336 89.1237 22.704 89.1237 24.5313ZM85.926 31.6574C86.7483 31.6574 87.1137 31.2006 87.1137 30.4697V24.1658C87.1137 23.4349 86.8396 22.9781 85.926 22.9781H85.1038V31.6574H85.926ZM89.5805 33.3019L91.8645 21.3336H94.1485L96.4326 33.3019H94.3313L93.9658 31.1092H91.8645L91.4991 33.3019H89.5805ZM92.1386 29.4647H93.7831L92.9608 24.6226L92.1386 29.4647ZM97.1635 21.3336H100.087C102.097 21.3336 102.736 22.2472 102.736 23.9831V25.1708C102.736 26.1757 102.371 26.8153 101.549 27.0894C102.554 27.3634 103.011 28.003 103.011 29.0993V30.6524C103.011 32.3883 102.28 33.3019 100.27 33.3019H97.1635V21.3336ZM99.1734 26.3585H99.9043C100.544 26.3585 100.818 25.993 100.818 25.3535V23.8917C100.818 23.2522 100.544 22.8867 99.8129 22.8867H99.082V26.3585H99.1734ZM99.1734 27.9116V31.6574H100.087C100.727 31.6574 101.092 31.292 101.092 30.6524V28.8252C101.092 28.1857 100.818 27.8203 100.087 27.8203H99.1734V27.9116ZM104.016 21.3336H106.025V31.6574H108.401V33.3019H104.016V21.3336ZM109.314 21.3336H114.157V22.9781H111.324V26.4498H113.334V28.0943H111.324V31.7488H114.157V33.3933H109.314V21.3336ZM116.532 33.3019L118.816 21.3336H121.1L123.384 33.3019H121.283L120.917 31.1092H118.816L118.451 33.3019H116.532ZM119.09 29.4647H120.735L119.912 24.6226L119.09 29.4647ZM125.851 25.7189V33.3019H124.115V21.3336H126.125L128.318 28.1857V21.3336H129.962V33.3019H128.226L125.851 25.7189ZM137.088 24.5313V30.1043C137.088 31.9315 136.357 33.3019 134.165 33.3019H131.058V21.3336H134.165C136.357 21.3336 137.088 22.704 137.088 24.5313ZM133.982 31.6574C134.804 31.6574 135.17 31.2006 135.17 30.4697V24.1658C135.17 23.4349 134.896 22.9781 133.982 22.9781H133.16V31.6574H133.982Z" fill="white"/>
<path d="M50.9351 47.8284V42.0726C50.9351 40.2454 51.8487 38.875 53.95 38.875C56.1426 38.875 56.7822 40.1541 56.7822 41.8899V43.2603H54.955V41.7072C54.955 40.9763 54.6809 40.5195 53.95 40.5195C53.2191 40.5195 52.945 41.0677 52.945 41.7986V48.1938C52.945 48.9247 53.2191 49.4729 53.95 49.4729C54.6809 49.4729 54.955 49.0161 54.955 48.2852V46.0925H56.7822V48.1938C56.7822 49.9297 56.0513 51.2087 53.95 51.2087C51.8487 51.1174 50.9351 49.747 50.9351 47.8284ZM58.0612 38.9664H60.0712V49.2902H62.4466V50.9347H58.0612V38.9664ZM63.5429 38.9664H68.2937V40.6109H65.5528V43.9912H67.5628V45.6357H65.5528V49.2902H68.2937V50.9347H63.5429V38.9664ZM69.2986 50.9347L71.5827 38.9664H73.8667L76.1507 50.9347H74.0494L73.684 48.742H71.5827L71.2172 50.9347H69.2986ZM71.8568 47.1889H73.5012L72.679 42.3467L71.8568 47.1889ZM78.8002 43.4431V50.9347H77.0643V38.9664H79.0743L81.2669 45.8184V38.9664H82.9114V50.9347H81.1756L78.8002 43.4431ZM88.3018 38.9664H93.0525V40.6109H90.3117V43.9912H92.3216V45.6357H90.3117V49.2902H93.0525V50.9347H88.3018V38.9664ZM95.9761 43.4431V50.9347H94.2402V38.9664H96.2502L98.4428 45.8184V38.9664H100.087V50.9347H98.3515L95.9761 43.4431ZM101.458 38.9664H106.209V40.6109H103.468V43.9912H105.478V45.6357H103.468V49.2902H106.209V50.9347H101.458V38.9664ZM109.498 45.453V50.9347H107.488V38.9664H110.411C112.421 38.9664 113.152 39.9713 113.152 41.6158V43.169C113.152 44.448 112.695 45.1789 111.507 45.453L113.426 50.8433H111.325L109.498 45.453ZM109.498 40.6109V44.3567H110.137C110.868 44.3567 111.142 43.9912 111.142 43.3517V41.6158C111.142 40.9763 110.868 40.6109 110.137 40.6109H109.498ZM117.446 44.5394H120.278V50.9347H118.816V49.6556C118.542 50.5692 117.994 51.1174 116.898 51.1174C115.162 51.1174 114.34 49.747 114.34 47.9198V42.164C114.34 40.3368 115.253 38.9664 117.355 38.9664C119.547 38.9664 120.187 40.2454 120.187 41.9813V43.0776H118.36V41.8899C118.36 41.159 118.085 40.7022 117.355 40.7022C116.624 40.7022 116.35 41.2504 116.35 41.9813V48.3766C116.35 49.1075 116.624 49.6556 117.355 49.6556C117.994 49.6556 118.36 49.2902 118.36 48.4679V46.3666H117.446V44.5394ZM125.486 46.3666V50.9347H123.476V46.3666L121.192 38.9664H123.293L124.481 43.5344L125.668 38.9664H127.587L125.486 46.3666Z" fill="white"/>
<path d="M82.6374 139.098C83.6423 139.098 84.3732 138.276 84.3732 137.454V128.044C84.3732 127.221 83.551 126.399 82.6374 126.399C81.6324 126.399 80.9015 127.313 80.9015 128.044V137.454C80.9015 138.185 81.7237 139.098 82.6374 139.098ZM82.4546 80.2617C70.5777 80.2617 60.8934 89.946 60.8934 101.823C60.8934 113.7 70.5777 123.384 82.4546 123.384C94.3316 123.384 104.016 113.7 104.016 101.823C104.016 89.8546 94.4229 80.2617 82.4546 80.2617ZM80.9015 88.7583C80.9015 88.0274 81.6324 87.2965 82.546 87.2965C83.4596 87.2965 84.0991 88.1187 84.0991 88.7583V96.1585C84.0991 96.8894 83.3682 97.6203 82.546 97.6203C81.6324 97.6203 80.9015 96.798 80.9015 96.1585V88.7583ZM82.4546 112.786C76.2421 112.786 71.2172 107.761 71.2172 101.549C71.2172 96.524 74.5062 92.23 79.0743 90.8596V95.0622C76.6989 96.2499 75.0544 98.7166 75.0544 101.549C75.0544 105.569 78.3434 108.858 82.3633 108.858C86.3832 108.858 89.6722 105.569 89.6722 101.549C89.6722 98.7166 88.0277 96.2499 85.6523 94.9708V90.7682C90.2203 92.1386 93.5093 96.4326 93.5093 101.457C93.6921 107.761 88.6672 112.786 82.4546 112.786ZM57.7871 101.549C57.7871 100.544 56.9649 99.813 56.1426 99.813H46.6411C45.8188 99.813 44.9966 100.635 44.9966 101.549C44.9966 102.554 45.9102 103.285 46.6411 103.285H56.0513C56.8735 103.376 57.7871 102.554 57.7871 101.549ZM120.004 101.549C120.004 100.544 119.182 99.813 118.36 99.813H108.949C108.127 99.813 107.305 100.635 107.305 101.549C107.305 102.554 108.218 103.285 108.949 103.285H118.36C119.09 103.376 120.004 102.554 120.004 101.549ZM82.4546 76.8813C83.4596 76.8813 84.1905 76.0591 84.1905 75.2368V65.8266C84.1905 65.0044 83.3682 64.1821 82.4546 64.1821C81.4497 64.1821 80.7188 65.0957 80.7188 65.8266V75.1455C80.7188 75.9677 81.541 76.8813 82.4546 76.8813ZM60.9848 89.3064C61.4416 88.4842 61.0761 87.2965 60.4366 86.931L52.2141 82.2716C51.4832 81.9062 50.3869 82.0889 49.9301 83.0025C49.4733 83.8248 49.8387 85.0125 50.4782 85.3779L58.7007 90.0373C59.3403 90.4028 60.528 90.1287 60.9848 89.3064ZM115.071 120.186C115.527 119.364 115.162 118.177 114.522 117.811L106.3 113.152C105.569 112.786 104.473 112.969 104.016 113.883C103.559 114.705 103.924 115.893 104.564 116.258L112.787 120.917C113.426 121.283 114.522 121.1 115.071 120.186ZM94.7884 80.079C95.6106 80.5358 96.707 80.1703 97.1638 79.5308L101.823 71.3083C102.189 70.5774 102.006 69.4811 101.092 69.0243C100.27 68.5675 99.0824 68.9329 98.7169 69.5724L94.0575 77.7949C93.692 78.5258 93.9661 79.6221 94.7884 80.079ZM63.817 134.165C64.6392 134.622 65.7355 134.256 66.1924 133.617L70.8518 125.394C71.2172 124.663 71.0345 123.567 70.1209 123.11C69.2986 122.653 68.1109 123.019 67.7455 123.658L63.0861 131.881C62.7206 132.52 62.9947 133.617 63.817 134.165ZM70.1209 80.1703C70.9431 79.7135 71.2172 78.5258 70.8518 77.8863L66.1924 69.6638C65.8269 68.9329 64.6392 68.5675 63.817 69.1156C62.9947 69.5724 62.7206 70.7601 63.0861 71.491L67.7455 79.7135C68.2023 80.2617 69.2986 80.6271 70.1209 80.1703ZM101.184 134.073C102.006 133.617 102.28 132.429 101.915 131.789L97.2551 123.567C96.8897 122.836 95.702 122.471 94.8797 123.019C94.0575 123.475 93.7834 124.663 94.1489 125.394L98.8083 133.617C99.1737 134.256 100.361 134.622 101.184 134.073ZM103.924 89.2151C104.381 90.0373 105.569 90.3114 106.209 89.946L114.431 85.2865C115.162 84.9211 115.527 83.7334 114.979 82.9112C114.522 82.0889 113.335 81.8148 112.604 82.1803L104.381 86.8397C103.833 87.2965 103.468 88.3928 103.924 89.2151ZM50.0214 120.278C50.4782 121.1 51.6659 121.374 52.3055 121.009L60.528 116.349C61.2589 115.984 61.6243 114.796 61.0761 113.974C60.6193 113.152 59.4316 112.878 58.7007 113.243L50.4782 117.902C49.8387 118.268 49.4733 119.456 50.0214 120.278Z" fill="white"/>
</g>
<defs>
<filter id="filter0_d_796_1634" x="0" y="0" width="167" height="167" filterUnits="userSpaceOnUse" color-interpolation-filters="sRGB">
<feFlood flood-opacity="0" result="BackgroundImageFix"/>
<feColorMatrix in="SourceAlpha" type="matrix" values="0 0 0 0 0 0 0 0 0 0 0 0 0 0 0 0 0 0 127 0" result="hardAlpha"/>
<feOffset dx="1" dy="1"/>
<feGaussianBlur stdDeviation="5"/>
<feComposite in2="hardAlpha" operator="out"/>
<feColorMatrix type="matrix" values="0 0 0 0 0 0 0 0 0 0 0 0 0 0 0 0 0 0 0.15 0"/>
<feBlend mode="normal" in2="BackgroundImageFix" result="effect1_dropShadow_796_1634"/>
<feBlend mode="normal" in="SourceGraphic" in2="effect1_dropShadow_796_1634" result="shape"/>
</filter>
</defs>
</svg>
