<svg width="167" height="167" viewBox="0 0 167 167" fill="none" xmlns="http://www.w3.org/2000/svg">
<g filter="url(#filter0_d_796_1713)">
<path d="M9 19C9 13.4772 13.4772 9 19 9H146C151.523 9 156 13.4772 156 19V146C156 151.523 151.523 156 146 156H19C13.4772 156 9 151.523 9 146V19Z" fill="#A21942"/>
<path d="M37.5961 43.7171V40.4281C37.5961 37.5959 36.5912 35.4946 34.3071 34.4897C36.3171 33.4847 37.2307 31.7488 37.2307 29.3734V28.1858C37.2307 23.5263 34.8553 21.0596 30.1959 21.0596C25.6278 21.0596 23.2525 23.5263 23.2525 28.1858V29.3734C23.2525 31.7488 24.166 33.5761 26.0846 34.4897C23.8006 35.4946 22.7957 37.5959 22.7957 40.4281V43.6258C22.7957 48.1025 24.8969 51.3001 30.1959 51.3001C35.4035 51.3915 37.5961 48.1938 37.5961 43.7171ZM27.9119 27.8203C27.9119 25.9931 28.5514 24.9881 30.1045 24.9881C31.749 24.9881 32.3886 25.9931 32.3886 27.8203V29.8302C32.3886 31.6575 31.749 32.6624 30.1045 32.6624C28.46 32.6624 27.9119 31.5661 27.9119 29.8302V27.8203ZM32.5713 44.2653C32.5713 46.0925 31.9318 47.3716 30.1045 47.3716C28.3687 47.3716 27.7291 46.0925 27.7291 44.2653V39.4232C27.7291 37.5959 28.3687 36.4083 30.1045 36.4083C31.9318 36.4083 32.5713 37.6873 32.5713 39.4232V44.2653Z" fill="white"/>
<path d="M111.05 81.3578L96.0669 95.6101C95.5188 96.1583 95.2447 96.6151 95.2447 97.7114V137.545C95.2447 138.002 95.6101 138.367 96.0669 138.367H111.507C111.964 138.367 112.329 138.002 112.329 137.545V81.7232C112.421 81.1751 112.055 80.3528 111.05 81.3578ZM68.0191 99.8127L53.0359 114.065C52.4877 114.613 52.2136 115.07 52.2136 116.166V137.454C52.2136 137.91 52.5791 138.276 53.0359 138.276H68.4759C68.9327 138.276 69.2982 137.91 69.2982 137.454V100.178C69.3895 99.7214 69.0241 98.8991 68.0191 99.8127Z" fill="white"/>
<path d="M117.902 64.0906C117.902 63.9992 117.902 63.8165 117.811 63.7252C117.72 63.6338 117.628 63.6338 117.537 63.6338H117.354L105.934 66.1919H105.751C105.66 66.1919 105.569 66.2833 105.569 66.2833C105.386 66.466 105.386 66.7401 105.569 66.9228L105.66 67.0142L108.31 69.6636L82.363 95.6102L70.3947 83.6419C70.3033 83.5505 70.0292 83.5505 69.9379 83.6419L66.6489 86.9309L47.4631 106.117C47.3717 106.208 47.3717 106.482 47.4631 106.574L50.752 109.863C50.8434 109.954 51.1175 109.954 51.2088 109.863L70.212 90.9508L78.8913 99.6301L82.1803 102.919C82.2716 103.01 82.5457 103.01 82.6371 102.919L112.055 73.5008L114.796 76.2416C114.979 76.4244 115.253 76.4244 115.436 76.2416C115.527 76.1503 115.527 76.0589 115.527 75.9675L118.085 64.2733L117.902 64.0906Z" fill="white"/>
<path d="M89.6716 102.371L82.4541 109.68C82.2714 109.771 82.0886 109.771 81.9973 109.68L75.4193 103.01C74.2316 101.823 73.9575 102.828 73.9575 103.284V137.636C73.9575 138.093 74.323 138.458 74.7798 138.458H90.2198C90.6766 138.458 91.042 138.093 91.042 137.636V102.736C91.042 102.097 90.6766 101.274 89.6716 102.371Z" fill="white"/>
<path d="M54.5889 24.5313V30.1043C54.5889 31.9315 53.858 33.3019 51.6654 33.3019H48.5591V21.3336H51.6654C53.858 21.3336 54.5889 22.704 54.5889 24.5313ZM51.3913 31.6574C52.2135 31.6574 52.579 31.2006 52.579 30.4697V24.1658C52.579 23.4349 52.3049 22.9781 51.3913 22.9781H50.569V31.6574H51.3913ZM55.868 21.3336H60.7101V22.9781H57.8779V26.4498H59.8879V28.0943H57.8779V31.7488H60.7101V33.3933H55.868V21.3336ZM61.7151 30.1956V24.3485C61.7151 22.4299 62.6287 21.1509 64.73 21.1509C66.9227 21.1509 67.5622 22.43 67.5622 24.1658V25.6276H65.735V23.9831C65.735 23.2522 65.4609 22.7954 64.73 22.7954C63.9991 22.7954 63.725 23.3436 63.725 24.0744V30.5611C63.725 31.292 63.9991 31.8401 64.73 31.8401C65.4609 31.8401 65.735 31.3833 65.735 30.6524V28.4598H67.5622V30.5611C67.5622 32.2969 66.8313 33.576 64.73 33.576C62.6287 33.4846 61.7151 32.0228 61.7151 30.1956ZM68.8413 21.3336H73.6834V22.9781H70.8512V26.4498H72.8611V28.0943H70.8512V31.7488H73.6834V33.3933H68.8413V21.3336ZM76.5156 25.7189V33.3019H74.7797V21.3336H76.7897L78.9823 28.1857V21.3336H80.6268V33.3019H78.891L76.5156 25.7189ZM81.7232 21.3336H87.1135V22.9781H85.469V33.3019H83.459V22.9781H81.8145V21.3336H81.7232ZM94.5137 25.9017L93.4174 33.3019H91.4988L89.8543 21.3336H91.7729L92.6865 28.9166L93.6915 21.3336H95.336L96.4323 28.9166L97.3459 21.3336H99.0818L97.5286 33.3019H95.7014L94.5137 25.9017ZM99.904 30.1956V24.3485C99.904 22.4299 100.818 21.1509 102.919 21.1509C105.02 21.1509 106.025 22.5213 106.025 24.3485V30.1956C106.025 32.0228 105.112 33.3933 102.919 33.3933C100.818 33.4846 99.904 32.0228 99.904 30.1956ZM103.924 30.5611V24.0744C103.924 23.3436 103.65 22.7954 102.919 22.7954C102.188 22.7954 101.914 23.3436 101.914 24.0744V30.5611C101.914 31.292 102.188 31.8401 102.919 31.8401C103.65 31.7488 103.924 31.292 103.924 30.5611ZM109.314 27.8203V33.3019H107.304V21.3336H110.228C112.238 21.3336 112.969 22.3386 112.969 23.9831V25.5362C112.969 26.8153 112.512 27.5462 111.324 27.8203L113.243 33.3019H111.141L109.314 27.8203ZM109.314 22.9781V26.7239H109.954C110.685 26.7239 110.959 26.3585 110.959 25.7189V23.9831C110.959 23.3436 110.685 22.9781 109.954 22.9781H109.314ZM116.258 27.4548V33.3019H114.248V21.3336H116.258V26.6325L118.45 21.3336H120.46L118.085 26.7239L120.46 33.3019H118.359L116.258 27.4548ZM123.292 33.3019L125.576 21.3336H127.861L130.145 33.3019H128.043L127.678 31.1092H125.576L125.211 33.3019H123.292ZM125.851 29.4647H127.495L126.673 24.6226L125.851 29.4647ZM132.52 25.7189V33.3019H130.784V21.3336H132.794L134.987 28.1857V21.3336H136.631V33.3019H134.895L132.52 25.7189ZM144.031 24.5313V30.1043C144.031 31.9315 143.301 33.3019 141.108 33.3019H138.002V21.3336H141.108C143.301 21.3336 144.031 22.704 144.031 24.5313ZM140.834 31.6574C141.656 31.6574 142.021 31.2006 142.021 30.4697V24.1658C142.021 23.4349 141.747 22.9781 140.834 22.9781H140.012V31.6574H140.834Z" fill="white"/>
<path d="M48.5591 38.9664H53.4012V40.6109H50.569V44.0826H52.579V45.7271H50.569V49.3816H53.4012V51.0261H48.5591V38.9664ZM54.2235 47.8284V41.9813C54.2235 40.0627 55.1371 38.7837 57.2384 38.7837C59.4311 38.7837 60.0706 40.0627 60.0706 41.7986V43.2604H58.2434V41.7072C58.2434 40.9763 57.9693 40.5195 57.2384 40.5195C56.5075 40.5195 56.2334 41.0677 56.2334 41.7986V48.2852C56.2334 49.0161 56.5075 49.5643 57.2384 49.5643C57.9693 49.5643 58.2434 49.1075 58.2434 48.3766V46.1839H60.0706V48.2852C60.0706 50.0211 59.3397 51.3001 57.2384 51.3001C55.1371 51.1174 54.2235 49.747 54.2235 47.8284ZM61.1669 47.8284V41.9813C61.1669 40.0627 62.0805 38.7837 64.1818 38.7837C66.2831 38.7837 67.2881 40.1541 67.2881 41.9813V47.8284C67.2881 49.6557 66.3745 51.0261 64.1818 51.0261C62.1719 51.1174 61.1669 49.747 61.1669 47.8284ZM65.2782 48.1939V41.7072C65.2782 40.9763 65.0041 40.4282 64.2732 40.4282C63.5423 40.4282 63.2682 40.9763 63.2682 41.7072V48.1939C63.2682 48.9248 63.5423 49.4729 64.2732 49.4729C65.0041 49.3816 65.2782 48.9248 65.2782 48.1939ZM70.2117 43.4431V51.0261H68.4758V39.0578H70.4857L72.6784 45.9098V39.0578H74.3229V51.0261H72.5871L70.2117 43.4431ZM75.5106 47.8284V41.9813C75.5106 40.0627 76.4242 38.7837 78.5255 38.7837C80.6268 38.7837 81.6318 40.1541 81.6318 41.9813V47.8284C81.6318 49.6557 80.7182 51.0261 78.5255 51.0261C76.4242 51.1174 75.5106 49.747 75.5106 47.8284ZM79.5305 48.1939V41.7072C79.5305 40.9763 79.2564 40.4282 78.5255 40.4282C77.7947 40.4282 77.5206 40.9763 77.5206 41.7072V48.1939C77.5206 48.9248 77.7947 49.4729 78.5255 49.4729C79.2564 49.3816 79.5305 48.9248 79.5305 48.1939ZM88.3012 43.169L86.8394 50.9347H85.9258L84.464 43.169V50.9347H82.8195V38.9664H85.1949L86.4739 45.7271L87.6616 38.9664H90.2197V50.9347H88.3925L88.3012 43.169ZM91.3161 38.9664H93.326V50.9347H91.3161V38.9664ZM94.4224 47.8284V41.9813C94.4224 40.0627 95.336 38.7837 97.4373 38.7837C99.6299 38.7837 100.269 40.0627 100.269 41.7986V43.2604H98.4422V41.7072C98.4422 40.9763 98.1682 40.5195 97.4373 40.5195C96.7064 40.5195 96.4323 41.0677 96.4323 41.7986V48.2852C96.4323 49.0161 96.7064 49.5643 97.4373 49.5643C98.1682 49.5643 98.4422 49.1075 98.4422 48.3766V46.1839H100.269V48.2852C100.269 50.0211 99.5386 51.3001 97.4373 51.3001C95.336 51.1174 94.4224 49.747 94.4224 47.8284ZM106.847 44.5394H109.68V50.9347H108.218V49.6557C107.944 50.5693 107.396 51.1174 106.299 51.1174C104.563 51.1174 103.741 49.747 103.741 47.9198V42.0727C103.741 40.1541 104.655 38.875 106.756 38.875C108.949 38.875 109.68 40.1541 109.68 41.89V42.9863H107.852V41.7986C107.852 41.0677 107.578 40.6109 106.847 40.6109C106.117 40.6109 105.843 41.1591 105.843 41.89V48.3766C105.843 49.1075 106.117 49.6557 106.847 49.6557C107.487 49.6557 107.852 49.2902 107.852 48.4679V46.3667H106.939V44.5394H106.847ZM113.06 45.453V50.9347H111.05V38.9664H113.974C115.984 38.9664 116.714 39.9714 116.714 41.6159V43.169C116.714 44.4481 116.258 45.179 115.07 45.453L116.989 50.9347H114.887L113.06 45.453ZM113.06 40.6109V44.3567H113.7C114.43 44.3567 114.705 43.9913 114.705 43.3517V41.6159C114.705 40.9763 114.43 40.6109 113.7 40.6109H113.06ZM117.628 47.8284V41.9813C117.628 40.0627 118.542 38.7837 120.643 38.7837C122.744 38.7837 123.749 40.1541 123.749 41.9813V47.8284C123.749 49.6557 122.836 51.0261 120.643 51.0261C118.542 51.1174 117.628 49.747 117.628 47.8284ZM121.739 48.1939V41.7072C121.739 40.9763 121.465 40.4282 120.734 40.4282C120.003 40.4282 119.729 40.9763 119.729 41.7072V48.1939C119.729 48.9248 120.003 49.4729 120.734 49.4729C121.465 49.3816 121.739 48.9248 121.739 48.1939ZM128.957 43.5345L127.861 50.9347H125.942L124.297 38.9664H126.216L127.13 46.5494L128.135 38.9664H129.779L130.875 46.5494L131.789 38.9664H133.525L131.972 50.9347H130.053L128.957 43.5345ZM134.256 38.9664H139.646V40.6109H138.002V50.9347H135.9V40.6109H134.256V38.9664ZM144.214 45.6358H142.296V50.9347H140.286V38.9664H142.296V44.0826H144.214V38.9664H146.224V50.9347H144.214V45.6358Z" fill="white"/>
</g>
<defs>
<filter id="filter0_d_796_1713" x="0" y="0" width="167" height="167" filterUnits="userSpaceOnUse" color-interpolation-filters="sRGB">
<feFlood flood-opacity="0" result="BackgroundImageFix"/>
<feColorMatrix in="SourceAlpha" type="matrix" values="0 0 0 0 0 0 0 0 0 0 0 0 0 0 0 0 0 0 127 0" result="hardAlpha"/>
<feOffset dx="1" dy="1"/>
<feGaussianBlur stdDeviation="5"/>
<feComposite in2="hardAlpha" operator="out"/>
<feColorMatrix type="matrix" values="0 0 0 0 0 0 0 0 0 0 0 0 0 0 0 0 0 0 0.15 0"/>
<feBlend mode="normal" in2="BackgroundImageFix" result="effect1_dropShadow_796_1713"/>
<feBlend mode="normal" in="SourceGraphic" in2="effect1_dropShadow_796_1713" result="shape"/>
</filter>
</defs>
</svg>
