<svg width="167" height="167" viewBox="0 0 167 167" fill="none" xmlns="http://www.w3.org/2000/svg">
<g filter="url(#filter0_d_796_1724)">
<path d="M9 19C9 13.4771 13.4772 9 19 9H146C151.523 9 156 13.4772 156 19V146C156 151.523 151.523 156 146 156H19C13.4772 156 9 151.523 9 146V19Z" fill="#FD6925"/>
<path d="M35.9517 28.734C35.9517 24.166 33.9418 20.7856 28.7342 20.7856C23.4352 20.7856 21.4253 23.7092 21.4253 28.2772V32.6626C21.4253 37.5047 23.3439 39.9715 26.907 39.9715C29.0083 39.9715 30.2873 38.9665 31.0182 37.5961V43.9914C31.0182 45.8186 30.2873 47.0063 28.5514 47.0063C26.7242 47.0063 26.0847 46.0013 26.0847 44.0827V42.0728H21.5166V43.6259C21.5166 48.0113 23.0698 51.0262 28.6428 51.0262C33.8504 51.0262 35.9517 47.6458 35.9517 42.9864V28.734ZM31.0182 33.3021C30.9268 34.9466 30.196 36.0429 28.6428 36.0429C26.907 36.0429 26.2674 35.038 26.2674 33.028V27.9118C26.2674 25.9932 26.9983 24.8969 28.6428 24.8969C30.2873 24.8969 30.9268 25.9932 30.9268 27.9118V33.3021H31.0182ZM119.273 105.66L101.823 95.6104V75.4196C101.823 74.9628 101.64 74.5973 101.184 74.4146L83.094 63.9994C82.7286 63.8167 82.2718 63.8167 81.9064 63.9994L63.8168 74.4146C63.4514 74.5973 63.1773 75.0541 63.1773 75.4196V95.6104L45.7273 105.66C45.3619 105.843 45.0878 106.3 45.0878 106.665V127.495C45.0878 127.952 45.2705 128.318 45.7273 128.5L63.8168 138.916C63.9996 139.007 64.1823 139.098 64.4563 139.098C64.6391 139.098 64.9132 139.007 65.0959 138.916L82.5458 128.866L99.9958 138.916C100.179 139.007 100.361 139.098 100.635 139.098C100.909 139.098 101.092 139.007 101.275 138.916L119.364 128.5C119.73 128.318 120.004 127.861 120.004 127.495V106.665C119.821 106.208 119.638 105.843 119.273 105.66ZM81.2668 125.485L66.7404 117.08L81.2668 108.675V125.485ZM98.1686 96.2499L83.6422 104.655V87.9361L98.1686 96.2499ZM81.2668 104.564L66.7404 96.1586L81.2668 87.7533V104.564ZM84.9213 106.665L100.635 97.6203L116.349 106.665L100.635 115.71L84.9213 106.665ZM99.3563 94.1486L84.8299 85.7434L99.3563 77.3382V94.1486ZM80.0791 85.8347L65.5527 94.24V77.5209L80.0791 85.8347ZM63.2687 135.901L47.5545 126.856V108.766L63.2687 117.811V135.901ZM65.6441 135.901V119.182L80.1705 127.587L65.6441 135.901ZM117.446 126.856L101.732 135.901V117.811L117.446 108.766V126.856Z" fill="white"/>
<path d="M43.7173 21.5167H45.6359V32.6627H43.7173V21.5167ZM48.2853 25.7193V32.7541H46.7322V21.608H48.5594L50.5694 28.0033V21.608H52.1225V32.7541H50.478L48.2853 25.7193ZM58.8832 24.5316V29.7392C58.8832 31.475 58.1523 32.7541 56.1424 32.7541H53.2188V21.608H56.1424C58.2437 21.5167 58.8832 22.7957 58.8832 24.5316ZM55.9597 31.2009C56.6906 31.2009 57.056 30.7441 57.056 30.1046V24.2575C57.056 23.618 56.7819 23.1612 55.9597 23.1612H55.1374V31.2923L55.9597 31.2009ZM65.5526 21.5167V29.9219C65.5526 31.6578 64.8217 32.7541 62.9031 32.7541C60.8932 32.7541 60.0709 31.6578 60.0709 29.9219V21.5167H61.9895V30.1046C61.9895 30.7441 62.2636 31.2009 62.9031 31.2009C63.5426 31.2009 63.8167 30.7441 63.8167 30.1046V21.5167H65.5526ZM66.5576 30.2873V28.8255H68.2934V30.3787C68.2934 31.0182 68.5675 31.3837 69.207 31.3837C69.7552 31.3837 70.0293 31.0182 70.0293 30.3787V29.9219C70.0293 29.2824 69.7552 28.9169 69.207 28.3687L68.1107 27.2724C67.0143 26.1761 66.5576 25.5365 66.5576 24.2575V23.8921C66.5576 22.5216 67.3798 21.4253 69.207 21.4253C71.1256 21.4253 71.8565 22.3389 71.8565 23.9834V24.897H70.1206V23.8921C70.1206 23.2525 69.8466 22.9784 69.207 22.9784C68.6589 22.9784 68.2934 23.2525 68.2934 23.8921V24.1661C68.2934 24.8057 68.6589 25.1711 69.207 25.7193L70.3947 26.907C71.3997 27.9119 71.9479 28.5515 71.9479 29.8305V30.3787C71.9479 31.9318 71.1256 33.0282 69.207 33.0282C67.2884 32.8454 66.5576 31.7491 66.5576 30.2873ZM72.4047 21.5167H77.4295V23.0698H75.8764V32.6627H73.9578V23.0698H72.4047V21.5167ZM80.1704 27.5465V32.6627H78.3431V21.5167H81.084C83.0026 21.5167 83.6421 22.4303 83.6421 23.9834V25.4452C83.6421 26.6329 83.1853 27.3638 82.1803 27.6379L84.0075 32.6627H81.9976L80.1704 27.5465ZM80.1704 23.0698V26.5415H80.8099C81.4494 26.5415 81.7235 26.1761 81.7235 25.6279V23.9834C81.7235 23.3439 81.4494 23.0698 80.8099 23.0698H80.1704ZM88.0274 28.4601V32.6627H86.1088V28.4601L84.0075 21.5167H85.9261L87.0224 25.7193L88.1188 21.5167H89.946L88.0274 28.4601ZM91.956 31.0182L91.0424 33.5763H89.946L90.2201 30.9269H91.956V31.0182ZM94.9709 21.5167H96.8894V32.6627H94.9709V21.5167ZM99.5389 25.7193V32.7541H97.9858V21.608H99.813L101.823 28.0033V21.608H103.376V32.7541H101.732L99.5389 25.7193ZM106.117 25.7193V32.7541H104.564V21.608H106.391L108.401 28.0033V21.608H109.954V32.7541H108.31L106.117 25.7193ZM111.142 29.8305V24.4402C111.142 22.7044 111.964 21.4253 113.974 21.4253C115.984 21.4253 116.806 22.7044 116.806 24.4402V29.8305C116.806 31.5664 115.984 32.8454 113.974 32.8454C111.964 32.8454 111.142 31.5664 111.142 29.8305ZM114.979 30.1046V24.0748C114.979 23.4353 114.705 22.8871 113.974 22.8871C113.334 22.8871 113.06 23.3439 113.06 24.0748V30.1046C113.06 30.7441 113.334 31.2923 113.974 31.2923C114.613 31.2923 114.979 30.8355 114.979 30.1046ZM124.024 21.5167L121.922 32.6627H119.912L117.811 21.5167H119.73L121.009 29.2824L122.288 21.5167H124.024ZM123.75 32.6627L125.851 21.5167H127.952L130.053 32.6627H128.135L127.769 30.6528H125.851L125.485 32.6627H123.75ZM126.034 29.191H127.495L126.765 24.7143L126.034 29.191ZM129.871 21.5167H134.896V23.0698H133.343V32.6627H131.424V23.0698H129.871V21.5167ZM135.809 21.5167H137.728V32.6627H135.809V21.5167ZM138.916 29.8305V24.4402C138.916 22.7044 139.738 21.4253 141.748 21.4253C143.758 21.4253 144.58 22.7044 144.58 24.4402V29.8305C144.58 31.5664 143.758 32.8454 141.748 32.8454C139.738 32.8454 138.916 31.5664 138.916 29.8305ZM142.661 30.1046V24.0748C142.661 23.4353 142.387 22.8871 141.656 22.8871C141.017 22.8871 140.743 23.3439 140.743 24.0748V30.1046C140.743 30.7441 141.017 31.2923 141.656 31.2923C142.387 31.2923 142.661 30.8355 142.661 30.1046ZM147.321 25.7193V32.7541H145.768V21.608H147.595L149.605 28.0033V21.608H151.158V32.7541H149.513L147.321 25.7193Z" fill="white"/>
<path d="M43.3518 50.3866L45.4531 39.2406H47.5544L49.6557 50.3866H47.7371L47.3717 48.3767H45.4531L45.0877 50.3866H43.3518ZM45.7272 46.8236H47.189L46.4581 42.3469L45.7272 46.8236ZM52.0311 43.3518V50.3866H50.478V39.2406H52.3052L54.3151 45.6358V39.2406H55.8683V50.3866H54.2238L52.0311 43.3518ZM62.629 42.1641V47.3717C62.629 49.1076 61.8981 50.3866 59.8881 50.3866H56.9646V39.2406H59.8881C61.8981 39.2406 62.629 40.5196 62.629 42.1641ZM59.7054 48.8335C60.4363 48.8335 60.8018 48.3767 60.8018 47.7372V41.8901C60.8018 41.2505 60.5277 40.7937 59.7054 40.7937H58.8832V48.9248L59.7054 48.8335ZM65.5525 39.2406H67.4711V50.3866H65.5525V39.2406ZM70.212 43.3518V50.3866H68.6588V39.2406H70.486L72.496 45.6358V39.2406H74.0491V50.3866H72.4046L70.212 43.3518ZM75.2368 39.2406H79.6222V40.7937H77.064V43.9914H78.9826V45.5445H77.064V50.478H75.1455L75.2368 39.2406ZM82.363 45.2704V50.3866H80.4444V39.2406H83.1852C85.1038 39.2406 85.7433 40.1542 85.7433 41.7073V43.1691C85.7433 44.3568 85.2865 45.0877 84.2816 45.3618L86.1088 50.3866H84.0988L82.363 45.2704ZM82.363 40.7023V44.1741H83.0025C83.642 44.1741 83.9161 43.8086 83.9161 43.2605V41.616C83.9161 40.9764 83.642 40.7023 83.0025 40.7023H82.363ZM86.6569 50.3866L88.7583 39.2406H90.8596L92.9609 50.3866H91.0423L90.6768 48.3767H88.6669L88.3015 50.3866H86.6569ZM88.941 46.8236H90.4028L89.6719 42.3469L88.941 46.8236ZM93.6004 47.9199V46.4581H95.3362V48.0112C95.3362 48.6508 95.6103 49.0162 96.2498 49.0162C96.798 49.0162 97.0721 48.6508 97.0721 48.0112V47.5544C97.0721 46.9149 96.798 46.5495 96.2498 46.0013L95.1536 44.905C94.0572 43.8086 93.6004 43.1691 93.6004 41.8901V41.5246C93.6004 40.1542 94.4226 39.0579 96.2498 39.0579C98.1684 39.0579 98.8993 39.9715 98.8993 41.616V42.5296H97.1635V41.5246C97.1635 40.8851 96.8894 40.611 96.2498 40.611C95.7017 40.611 95.3362 40.8851 95.3362 41.5246V41.7987C95.3362 42.4382 95.7017 42.8036 96.2498 43.3518L97.4376 44.5395C98.4426 45.5445 98.9907 46.184 98.9907 47.4631V48.0112C98.9907 49.5644 98.1684 50.6607 96.2498 50.6607C94.3313 50.6607 93.6004 49.3816 93.6004 47.9199ZM99.5389 39.2406H104.564V40.7937H103.011V50.3866H101.092V40.7937H99.5389V39.2406ZM107.396 45.2704V50.3866H105.477V39.2406H108.218C110.137 39.2406 110.776 40.1542 110.776 41.7073V43.1691C110.776 44.3568 110.319 45.0877 109.315 45.3618L111.142 50.3866H109.132L107.396 45.2704ZM107.396 40.7023V44.1741H108.035C108.675 44.1741 108.949 43.8086 108.949 43.2605V41.616C108.949 40.9764 108.675 40.7023 108.035 40.7023H107.396ZM117.354 39.2406V47.6458C117.354 49.3817 116.623 50.478 114.705 50.478C112.695 50.478 111.873 49.3817 111.873 47.6458V39.2406H113.791V47.8285C113.791 48.4681 114.065 48.9248 114.705 48.9248C115.344 48.9248 115.618 48.4681 115.618 47.8285V39.2406H117.354ZM118.542 47.4631V42.0728C118.542 40.3369 119.364 39.0579 121.374 39.0579C123.475 39.0579 124.024 40.2456 124.024 41.8901V43.1691H122.288V41.7073C122.288 40.9764 122.014 40.611 121.374 40.611C120.735 40.611 120.461 41.0678 120.461 41.7987V47.8285C120.461 48.4681 120.735 49.0162 121.374 49.0162C122.014 49.0162 122.288 48.5594 122.288 47.9199V45.8186H124.024V47.7372C124.024 49.2903 123.384 50.478 121.374 50.478C119.364 50.478 118.542 49.1989 118.542 47.4631ZM124.389 39.2406H129.414V40.7937H127.861V50.3866H125.942V40.7937H124.389V39.2406ZM135.809 39.2406V47.6458C135.809 49.3817 135.078 50.478 133.16 50.478C131.15 50.478 130.328 49.3817 130.328 47.6458V39.2406H132.246V47.8285C132.246 48.4681 132.52 48.9248 133.16 48.9248C133.799 48.9248 134.073 48.4681 134.073 47.8285V39.2406H135.809ZM138.824 45.2704V50.3866H136.906V39.2406H139.646C141.565 39.2406 142.205 40.1542 142.205 41.7073V43.1691C142.205 44.3568 141.748 45.0877 140.743 45.3618L142.57 50.3866H140.56L138.824 45.2704ZM138.824 40.7023V44.1741H139.464C140.103 44.1741 140.377 43.8086 140.377 43.2605V41.616C140.377 40.9764 140.103 40.7023 139.464 40.7023H138.824ZM143.392 39.2406H147.869V40.7937H145.311V43.9914H147.138V45.5445H145.311V48.9248H147.869V50.478H143.392V39.2406Z" fill="white"/>
</g>
<defs>
<filter id="filter0_d_796_1724" x="0" y="0" width="167" height="167" filterUnits="userSpaceOnUse" color-interpolation-filters="sRGB">
<feFlood flood-opacity="0" result="BackgroundImageFix"/>
<feColorMatrix in="SourceAlpha" type="matrix" values="0 0 0 0 0 0 0 0 0 0 0 0 0 0 0 0 0 0 127 0" result="hardAlpha"/>
<feOffset dx="1" dy="1"/>
<feGaussianBlur stdDeviation="5"/>
<feComposite in2="hardAlpha" operator="out"/>
<feColorMatrix type="matrix" values="0 0 0 0 0 0 0 0 0 0 0 0 0 0 0 0 0 0 0.15 0"/>
<feBlend mode="normal" in2="BackgroundImageFix" result="effect1_dropShadow_796_1724"/>
<feBlend mode="normal" in="SourceGraphic" in2="effect1_dropShadow_796_1724" result="shape"/>
</filter>
</defs>
</svg>
