<svg width="60" height="59" viewBox="0 0 60 59" fill="none" xmlns="http://www.w3.org/2000/svg">
<path d="M50.9707 0C50.9707 0 50.8534 0 50.7752 0L41.2769 2.32881C40.7296 2.48407 40.3778 3.02745 40.5342 3.57084C40.6906 4.11423 41.2378 4.46355 41.785 4.3083L48.8208 2.60051C40.8078 17.3885 23.4528 27.4023 3.79153 28.4115C3.20521 28.4115 2.77524 28.9161 2.81433 29.4983C2.81433 30.0805 3.32248 30.5074 3.90879 30.4686C24.1564 29.4206 42.1368 19.1351 50.5798 3.68728L52.1433 10.7513C52.2606 11.2947 52.8078 11.6441 53.355 11.5276C53.9023 11.4112 54.2541 10.8678 54.1368 10.3244L52.0261 0.815084C51.9088 0.310508 51.4397 0 50.9316 0L50.9707 0ZM47.4137 17.3108C46.8274 17.3108 46.3583 17.7766 46.3583 18.32V56.8618H42.4886V27.9845C42.4886 27.4023 42.0195 26.9754 41.4332 26.9754H32.9511C32.3648 26.9754 31.9349 27.4412 31.9349 27.9845V56.8618H28.0261V33.4961C28.0261 32.9139 27.557 32.4869 27.0098 32.4869H18.5277C17.9414 32.4869 17.5114 32.9527 17.5114 33.4961V56.8618H13.6417V36.834C13.6417 36.2518 13.1726 35.8249 12.5863 35.8249H4.10423C3.51792 35.8249 3.04886 36.2906 3.04886 36.834V56.8618H1.05537C0.469055 56.8618 0 57.3276 0 57.9098C0 58.492 0.469055 58.9189 1.05537 58.9189H58.9837C59.57 58.9189 60 58.4532 60 57.9098C60 57.3276 59.5309 56.8618 58.9837 56.8618H56.9511V18.3588C56.9511 17.7766 56.4821 17.3496 55.9349 17.3496H47.4528L47.4137 17.3108ZM48.43 19.3679H54.8404V56.8618H48.43V19.3679ZM34.0065 29.0325H40.4169V56.9006H34.0065V29.0325ZM19.5831 34.544H25.9935V56.9006H19.5831V34.544ZM5.12052 37.882H11.5309V56.8618H5.12052V37.882Z" fill="#EBA900"/>
</svg>
