<svg width="75" height="65" viewBox="0 0 75 65" fill="none" stroke="#DC4646" xmlns="http://www.w3.org/2000/svg">
<path d="M53.4629 2C45.0273 2 39.7552 7.32727 37.4024 10.4276C35.0259 7.34301 29.7065 2 21.3576 2C10.1444 2 2 10.8289 2 22.9943C2 24.0015 2.39345 47.868 36.7571 62.8662C36.9696 62.9607 37.1899 63 37.4102 63C37.6305 63 37.8587 62.9528 38.0633 62.8662C72.427 47.8602 72.8204 24.0015 72.8204 22.9865C72.8204 10.8289 64.6761 2 53.4629 2Z" stroke="#DC4646" stroke-width="3" stroke-linecap="round" stroke-linejoin="round"/>
<path d="M25.8349 37.6463H32.2639V44.0752C32.2639 44.7834 32.8383 45.3578 33.5465 45.3578H41.2659C41.9741 45.3578 42.5486 44.7834 42.5486 44.0752V37.6463H48.9775C49.6857 37.6463 50.2601 37.0718 50.2601 36.3636V28.6442C50.2601 27.936 49.6857 27.3616 48.9775 27.3616H42.5486V20.9326C42.5486 20.2244 41.9741 19.65 41.2659 19.65H33.5465C32.8383 19.65 32.2639 20.2244 32.2639 20.9326V27.3616H25.8349C25.1267 27.3616 24.5523 27.936 24.5523 28.6442V36.3636C24.5523 37.0718 25.1267 37.6463 25.8349 37.6463ZM27.1176 29.9268H33.5465C34.2547 29.9268 34.8291 29.3524 34.8291 28.6442V22.2153H39.9754V28.6442C39.9754 29.3524 40.5499 29.9268 41.2581 29.9268H47.687V35.0731H41.2581C40.5499 35.0731 39.9754 35.6476 39.9754 36.3558V42.7847H34.8291V36.3558C34.8291 35.6476 34.2547 35.0731 33.5465 35.0731H27.1176V29.9268Z" fill="#DC4646"/>
</svg>
