<svg width="65" height="51" viewBox="0 0 65 51" fill="none" xmlns="http://www.w3.org/2000/svg">
    <path fill-rule="evenodd" clip-rule="evenodd" d="M36.2123 10.8853C36.2484 10.9647 36.2773 11.0441 36.2917 11.1236C36.9706 14.3736 38.6173 17.3419 41.0295 19.6314C43.3334 21.8269 46.3017 23.2063 49.465 23.5602L52.4984 23.5025C55.8495 23.5025 59.0417 24.9036 61.3239 27.3591C63.6928 29.8869 65 33.2235 64.9783 36.683L65 46.9313C65 46.9819 65 47.0324 64.9928 47.083C64.8556 48.0724 64.3789 48.9824 63.6422 49.6541C62.1617 51.0191 59.8795 51.0191 58.3989 49.6541C57.8933 49.1991 57.5106 48.6213 57.2722 47.9858H41.665C41.1089 47.9713 40.6684 47.5091 40.6828 46.953V29.7424C38.9206 28.8902 37.2956 27.7852 35.8512 26.4636C34.5873 25.3008 33.4678 23.9936 32.5145 22.5708L32.2978 22.8886C30.2612 25.8208 27.5023 28.1824 24.2884 29.7424L24.2451 46.8663V46.953C24.2595 47.5091 23.819 47.9713 23.2629 47.9858H7.69177C7.46788 48.6285 7.09233 49.2063 6.594 49.6685C5.89344 50.3185 4.97622 50.6796 4.01567 50.6796C3.04789 50.6796 2.109 50.3113 1.394 49.6541C0.657339 48.9824 0.180673 48.0724 0.0434511 47.083C0.0434511 47.0324 0.0362288 46.9819 0.0362288 46.9313L0.000117796 36.6902C-0.0143266 33.2308 1.30012 29.8941 3.67622 27.3736C5.97289 24.918 9.17233 23.5169 12.5379 23.5025L15.3979 23.4808C18.7418 22.4191 21.8256 20.6641 24.4473 18.3386C26.5706 16.4536 28.0656 13.9619 28.7301 11.1958C28.7806 10.5169 29.0045 9.86692 29.3801 9.29637C29.7701 8.71137 30.3117 8.23471 30.9473 7.92415C31.5612 7.62082 32.2545 7.50526 32.9334 7.58471C33.6195 7.66415 34.2695 7.94582 34.8039 8.37915C35.3528 8.82693 35.7717 9.41193 36.0101 10.0836C36.1039 10.3436 36.1689 10.6036 36.2123 10.878V10.8853ZM39.7223 21.1697C38.0034 19.5447 36.6239 17.6019 35.6489 15.4497C35.2084 17.2625 34.5367 19.0175 33.6556 20.6641C34.6089 22.2386 35.7862 23.6686 37.1367 24.9108C38.5884 26.2397 40.2423 27.323 42.0406 28.1174C42.4089 28.2908 42.6473 28.6591 42.6473 29.0708V45.9202H57.0556V38.3008C57.0267 37.7591 57.4528 37.2969 57.9945 37.268C58.5361 37.2391 58.9983 37.6652 59.0272 38.2069C59.0272 38.2358 59.0272 38.2719 59.0272 38.3008V46.9674C59.1211 47.4007 59.3522 47.798 59.6845 48.1013C60.4428 48.7874 61.5983 48.7874 62.3567 48.1013C62.7178 47.7691 62.9561 47.3285 63.0356 46.8446L63.0139 36.6974C63.0356 33.7797 61.9306 30.963 59.9372 28.8252C58.0161 26.7597 55.3222 25.5897 52.5056 25.5825L49.4795 25.633C49.4289 25.633 49.3784 25.633 49.3278 25.633C45.7239 25.243 42.3512 23.6758 39.7295 21.1769L39.7223 21.1697ZM5.95122 38.2935C5.92233 37.7519 6.34844 37.2897 6.89011 37.2608C7.43177 37.2319 7.89399 37.658 7.92288 38.1997C7.92288 38.2285 7.92288 38.2647 7.92288 38.2935V45.913H22.2806L22.324 29.0563C22.324 28.6519 22.5551 28.2763 22.9234 28.103C26.0578 26.7019 28.7517 24.4775 30.709 21.6536C32.7167 18.7719 33.9373 15.4064 34.2551 11.9108L34.2695 11.8241C34.3273 11.4847 34.2984 11.1453 34.1756 10.8203C34.0601 10.5025 33.8651 10.228 33.6051 10.0186C33.0923 9.59248 32.3701 9.50581 31.7706 9.80192C31.4528 9.95359 31.1784 10.1919 30.9834 10.488C30.8028 10.7553 30.6945 11.0658 30.6801 11.3908C30.6801 11.463 30.6656 11.5353 30.6512 11.6075C29.9073 14.8069 28.1884 17.703 25.7401 19.8841C22.8729 22.4336 19.5001 24.3475 15.8384 25.4958C15.7301 25.5319 15.6218 25.5463 15.5134 25.5391L12.5379 25.568C9.70677 25.5825 7.00566 26.7597 5.07011 28.8252C3.06956 30.9486 1.95734 33.7652 1.97178 36.683L2.00789 46.823C2.08734 47.3069 2.32567 47.7546 2.68678 48.0869C3.05511 48.4191 3.53178 48.6069 4.02289 48.5996C4.49955 48.5996 4.95455 48.4263 5.30844 48.1013C5.65511 47.7691 5.88622 47.3358 5.95844 46.8663V38.2863L5.95122 38.2935ZM37.2306 8.01804L40.235 4.86193C40.6178 4.45027 40.6178 3.80749 40.235 3.40305C39.8739 3.02027 39.2745 2.9986 38.8917 3.35971C38.8773 3.37416 38.8628 3.3886 38.8484 3.40305L35.8439 6.55193C35.4612 6.9636 35.4612 7.60637 35.8439 8.01804C36.2051 8.40082 36.8045 8.42248 37.1873 8.06137C37.2017 8.04693 37.2162 8.03248 37.2306 8.01804ZM29.149 6.55193L26.1445 3.40305C25.7834 3.02027 25.184 2.9986 24.794 3.35971C24.7795 3.37416 24.7651 3.3886 24.7506 3.40305C24.3679 3.81471 24.3679 4.45027 24.7506 4.86193L27.7551 8.01804C28.1162 8.40082 28.7156 8.42248 29.1056 8.06137C29.1201 8.04693 29.1345 8.03248 29.149 8.01804C29.5317 7.60637 29.5317 6.9636 29.149 6.55193ZM33.4751 5.56249C33.5039 6.10415 33.0778 6.56638 32.5362 6.59526C31.9945 6.62415 31.5323 6.19804 31.5034 5.65638C31.5034 5.62749 31.5034 5.59138 31.5034 5.56249V1.03416C31.4745 0.492497 31.9006 0.0302756 32.4423 0.00138672C32.9839 -0.0275021 33.4462 0.398608 33.4751 0.940274C33.4751 0.969163 33.4751 1.00527 33.4751 1.03416V5.56249ZM56.4561 13.0808C56.4633 11.463 55.8495 9.90304 54.7445 8.72582C52.6067 6.43638 49.0173 6.30638 46.7278 8.44415C46.6339 8.53082 46.54 8.6247 46.4461 8.72582C44.1567 11.1814 44.1567 14.9875 46.4461 17.4358C48.5839 19.7252 52.1734 19.8552 54.4628 17.7175C54.5567 17.6308 54.6506 17.5369 54.7445 17.4358C55.8567 16.2586 56.4706 14.6986 56.4634 13.0808H56.4561ZM56.1311 7.25971C53.2784 4.19749 48.4828 4.03138 45.4206 6.88415C45.2906 7.00693 45.1678 7.12971 45.045 7.25971C41.9828 10.5386 41.9828 15.623 45.045 18.8947C47.8978 21.9569 52.6934 22.123 55.7484 19.2702C55.8784 19.1475 56.0011 19.0247 56.1239 18.8947C59.1861 15.6158 59.1861 10.5314 56.1239 7.25971H56.1311ZM20.309 13.0808C20.3162 11.463 19.7023 9.90304 18.5901 8.72582C16.4523 6.43638 12.8629 6.30638 10.5734 8.44415C10.4795 8.53082 10.3857 8.6247 10.2918 8.72582C8.00233 11.1814 8.00233 14.9875 10.2918 17.4358C12.4295 19.7252 16.019 19.8552 18.3084 17.7175C18.4023 17.6308 18.4962 17.5369 18.5901 17.4358C19.7023 16.2586 20.3162 14.6986 20.309 13.0808ZM19.984 7.25971C17.1312 4.19749 12.3357 4.03138 9.27343 6.88415C9.14344 7.00693 9.02066 7.12971 8.89788 7.25971C5.83566 10.5386 5.83566 15.623 8.89788 18.8947C11.7507 21.9569 16.5462 22.123 19.6084 19.2702C19.7384 19.1475 19.8612 19.0247 19.984 18.8947C23.0462 15.6158 23.0462 10.5314 19.984 7.25971Z" fill="#D545BE"/>
</svg>
