<svg width="61" height="61" viewBox="0 0 61 61" fill="none" xmlns="http://www.w3.org/2000/svg">
<path d="M30.4876 55.4533C24.8742 55.4621 19.4228 53.5695 15.0235 50.0841C14.5037 49.6979 14.3952 48.9634 14.7808 48.4437C15.1672 47.924 15.9017 47.8155 16.4215 48.2011C16.4406 48.2158 16.4596 48.2304 16.478 48.2458C24.6909 54.7306 36.282 54.7306 44.495 48.2458C45.003 47.8441 45.7412 47.9299 46.143 48.4379C46.5447 48.9458 46.459 49.6839 45.9509 50.0856C41.5508 53.5702 36.1002 55.4621 30.4868 55.4533H30.4876Z" fill="#1E33F4"/>
<path d="M49.1457 46.4134C48.4977 46.4119 47.9742 45.8849 47.9757 45.2376C47.9757 44.9745 48.0651 44.7201 48.2286 44.5134C51.3956 40.534 53.1111 35.593 53.0913 30.5075C53.0913 19.0325 44.5081 9.38202 33.1267 8.06117C32.4859 7.96588 32.0439 7.36923 32.1392 6.7286C32.2301 6.11655 32.7807 5.68116 33.3972 5.73247C47.0776 7.32598 56.8763 19.7069 55.2818 33.3859C54.7459 37.9847 52.9403 42.3431 50.0665 45.9736C49.8429 46.2528 49.5035 46.4148 49.1457 46.4134Z" fill="#1E33F4"/>
<path d="M11.8294 46.4133C11.4709 46.4133 11.1322 46.2499 10.9093 45.9684C2.36941 35.1553 4.2139 19.4679 15.0286 10.9301C18.6509 8.07066 22.9953 6.27118 27.5786 5.73243C28.2245 5.67892 28.7905 6.15976 28.844 6.80479C28.8946 7.4205 28.4591 7.96951 27.8484 8.06114C16.4677 9.38198 7.88455 19.0318 7.88455 30.5075C7.86475 35.5929 9.57948 40.5333 12.7465 44.5134C13.1482 45.0214 13.0617 45.7588 12.5537 46.1604C12.3477 46.3232 12.0926 46.4126 11.8294 46.4133Z" fill="#1E33F4"/>
<path d="M15.7522 50.337C15.1042 50.337 14.5793 49.8122 14.5793 49.1643C14.5793 48.8535 14.7024 48.5551 14.9224 48.3352L29.6577 33.6022C30.1159 33.144 30.8586 33.144 31.3167 33.6022L46.0521 48.3352C46.5103 48.7934 46.5103 49.5359 46.0521 49.994C45.5939 50.4521 44.8513 50.4521 44.3931 49.994L30.4876 36.0892L16.5806 49.994C16.3607 50.2132 16.0631 50.337 15.7522 50.337Z" fill="#1E33F4"/>
<path d="M11.8287 46.4133C11.1806 46.4133 10.6557 45.8878 10.6564 45.2398C10.6564 44.929 10.7803 44.6315 10.9995 44.4116L26.5413 28.8722V6.89645C26.5413 6.24848 27.0662 5.72366 27.7143 5.72366C28.3624 5.72366 28.8873 6.24848 28.8873 6.89645V29.3589C28.8873 29.6697 28.7634 29.968 28.5434 30.1879L12.6585 46.0703C12.4386 46.2909 12.1402 46.4141 11.8287 46.4133Z" fill="#1E33F4"/>
<path d="M49.1465 46.4133C48.8357 46.4133 48.5366 46.2902 48.3174 46.0696L32.4325 30.1879C32.2126 29.968 32.0887 29.6697 32.0887 29.3589V6.89645C32.0887 6.24848 32.6136 5.72366 33.2617 5.72366C33.9097 5.72366 34.4346 6.24848 34.4346 6.89645V28.8729L49.9764 44.4123C50.4339 44.8711 50.4331 45.6137 49.9742 46.071C49.7543 46.2902 49.4567 46.4133 49.1465 46.4133Z" fill="#1E33F4"/>
<path d="M30.4876 60.9999C13.6401 60.9904 -0.00952536 47.3275 4.98761e-06 30.4834C0.00660292 18.2381 7.33764 7.18389 18.6164 2.41213C34.1355 -4.14299 52.0313 3.12167 58.5874 18.6383C65.1436 34.155 57.8778 52.0479 42.3587 58.6031C38.603 60.1922 34.5658 61.008 30.4876 60.9999ZM30.4876 2.36082C14.9648 2.36082 2.33641 14.9873 2.33641 30.5076C2.33641 46.0279 14.9648 58.6544 30.4876 58.6544C46.0103 58.6544 58.6388 46.0279 58.6388 30.5076C58.6388 14.9873 46.0103 2.36082 30.4876 2.36082Z" fill="#1E33F4"/>
</svg>
