<svg width="62" height="65" viewBox="0 0 62 65" fill="none" xmlns="http://www.w3.org/2000/svg">
<path d="M61.7127 30.8193C61.7127 27.271 61.1163 23.7823 59.9336 20.4626L58.065 21.1285C59.1682 24.2296 59.7348 27.4896 59.7348 30.8093C59.7348 46.0462 47.8475 58.5497 32.869 59.5635L34.9066 57.526L33.5052 56.1245L29.0723 60.5674L33.5052 65.0003L34.9066 63.5988L32.869 61.5613C48.9507 60.5475 61.7226 47.1494 61.7226 30.8193H61.7127Z" fill="#35CA55"/>
<path d="M16.4893 5.86157C29.6886 -1.75188 46.4561 2.28345 54.815 14.7572L52.032 14.0117L51.5152 15.93L57.5781 17.5501L59.1982 11.4872L57.2799 10.9703L56.5345 13.7533C52.3898 7.50154 46.1778 3.01895 38.8625 1.06092C30.9211 -1.06607 22.6218 0.027242 15.4954 4.14208C12.4242 5.9212 9.70086 8.17741 7.42477 10.861L8.93554 12.1531C11.0725 9.64841 13.607 7.53136 16.4893 5.87151V5.86157Z" fill="#35CA55"/>
<path d="M3.05134 38.2833C1.23246 31.4849 1.93815 24.3982 5.01931 18.1465L5.76475 20.9294L7.68302 20.4126L6.06293 14.3497L0 15.9698L0.51684 17.888L3.29982 17.1426C-0.0496961 23.8714 -0.824956 31.4849 1.13307 38.8002C3.26007 46.7515 8.35889 53.3909 15.4853 57.5058C18.5565 59.2849 21.8762 60.5074 25.345 61.1336L25.7028 59.1756C22.4626 58.5792 19.3616 57.4362 16.4792 55.7764C9.81001 51.9299 5.03919 45.7179 3.05134 38.2734V38.2833Z" fill="#35CA55"/>
<path d="M51.167 27.6483V27.6185C49.7258 17.4009 40.8699 9.69803 30.5729 9.69803C27.2631 9.69803 24.0627 10.4733 21.061 12.0039C16.2803 14.449 12.6823 18.6235 10.933 23.7322V23.7918C10.1577 25.9089 9.78003 28.1552 9.78003 30.4809C9.78003 35.7289 11.748 40.7283 15.3162 44.5748L15.4255 44.7239H15.4553C19.441 48.948 24.8081 51.2837 30.5828 51.2837C42.0527 51.2837 51.3757 41.9508 51.3757 30.4909C51.3757 29.7057 51.316 28.841 51.1769 27.8371L51.2365 27.7079L51.1769 27.6483H51.167ZM36.1687 16.6257C36.3675 16.2877 36.4668 15.8902 36.4668 15.4429C36.447 14.9658 36.3575 14.5384 36.278 14.2005C36.2283 13.962 36.1786 13.7532 36.1687 13.5644C36.2084 13.4749 36.3476 13.2463 36.5165 13.0376C36.6159 12.9183 36.7352 12.7891 36.8445 12.6897C39.5381 13.6439 41.9235 15.1348 43.9312 17.1127C46.1675 19.4583 47.8075 22.301 48.6821 25.3523C48.6821 25.3523 48.6623 25.3523 48.6523 25.3523L48.1554 25.3026C47.5193 25.3026 46.9925 25.4616 46.5154 25.6107C46.416 25.6405 46.3166 25.6704 46.2172 25.7002C45.8892 25.7797 45.5513 25.8691 45.3624 25.8691L44.8953 25.7896C44.8059 25.7598 44.6667 25.6704 44.5077 25.571C44.4282 25.5213 44.3387 25.4616 44.2393 25.402C43.9511 25.233 43.5535 24.9945 42.9373 24.9945H42.9174L42.2217 25.1535C41.7843 25.3523 41.4365 25.7598 41.3271 26.1673C41.1979 26.5251 41.1979 26.8531 41.1979 27.1612V27.7775C41.1979 27.9564 41.188 28.0757 41.1681 28.1452H41.1283C41.0091 28.1452 40.7805 28.0955 40.5419 28.0359C40.1941 27.9464 39.7567 27.8371 39.2697 27.8172C38.8125 27.8172 38.4249 27.9166 38.1068 28.1253C37.421 28.5726 37.1725 29.328 37.1725 29.8846C37.1725 30.471 37.3514 31.0077 37.6894 31.445C38.1764 32.0812 38.7926 32.429 39.2796 32.7173C39.4089 32.7968 39.5381 32.8664 39.6275 32.9161L39.9555 33.1944V33.2242L39.8362 33.6516C39.7269 33.8404 39.5381 34.0392 39.3194 34.2678C39.1703 34.4368 39.0013 34.6157 38.8324 34.8144C37.8086 36.0867 37.4707 37.5875 37.1725 38.9293C36.8644 40.3208 36.5762 41.4439 35.9301 42.2589C35.4829 42.8354 34.7275 43.2429 34.1411 43.2429L33.5348 43.1634C33.1372 42.9547 32.7794 42.4577 32.6204 41.8912C32.5607 41.6029 32.511 41.3048 32.511 41.0066C32.511 40.609 32.5707 40.1717 32.6204 39.7741C32.68 39.5157 32.7396 39.1678 32.7396 38.7802C32.7396 38.2634 32.5905 37.8062 32.2824 37.3788L31.7855 36.9116L31.7656 36.8023C31.7656 36.6134 31.7656 36.3053 31.6662 35.9177C31.4177 35.043 30.6723 34.3771 29.6684 34.1286C29.2808 34.0491 28.8932 34.0094 28.4459 34.0094H27.6806C26.4183 34.0094 25.2852 33.6217 24.5795 32.9359C24.013 32.3694 23.6552 31.4848 23.6552 30.6201C23.6552 30.312 23.685 30.0536 23.7645 29.7951C24.0329 28.7118 24.8976 27.7178 26.0207 27.2109C26.6966 26.9227 27.452 26.7935 28.4161 26.7935C29.1913 26.7935 30.0063 26.8829 30.8711 26.9823C31.8053 27.0917 32.7794 27.201 33.7733 27.201C34.151 27.201 34.5685 27.1712 35.0058 27.1414C35.5624 27.0619 36.0593 26.9227 36.4867 26.704C37.0831 26.4059 37.5204 25.9188 37.7291 25.2927L37.8484 24.5969C37.8186 23.6229 37.2719 22.7482 36.3675 22.2513C35.453 21.7642 34.5088 21.7245 33.7137 21.6947H33.6342C32.8191 21.6649 31.9644 21.635 31.1195 21.5754C30.6425 21.5456 30.1554 21.5158 29.7976 21.3766C29.6982 21.3468 29.6287 21.317 29.5591 21.2872C30.4039 20.8797 30.8711 20.2137 31.2885 19.6273L31.4177 19.4484C31.8352 18.8521 32.2129 18.3452 32.6303 18.1563C32.8291 18.0669 33.1869 18.0072 33.5646 17.9476C33.7336 17.9178 33.9125 17.8879 34.0914 17.8581C34.4691 17.7886 34.807 17.6892 35.1151 17.55C35.4829 17.381 35.8506 17.0531 36.0991 16.6356L36.1687 16.6257ZM17.2543 17.1723C17.9501 16.4766 18.6955 15.8405 19.5403 15.2342C19.4708 15.6019 19.441 15.9498 19.441 16.2877L19.4708 16.8642C19.5304 17.3314 19.5602 17.7587 19.5602 18.1762C19.5602 18.8024 19.441 19.2596 19.2024 19.5478C19.0036 19.8062 18.5564 20.0547 18.2284 20.2137C17.7612 20.4622 17.304 20.7107 16.8468 20.9592C16.3797 21.2076 15.9225 21.4561 15.4454 21.7146C14.9981 21.963 14.3024 22.2711 13.4575 22.5991C14.3918 20.6014 15.6641 18.7825 17.2543 17.1922V17.1723ZM17.3736 40.7283C17.314 41.1755 17.2643 41.5731 17.1649 41.9011C17.145 41.9707 16.9263 42.2987 16.5983 42.567C16.4989 42.6565 16.3896 42.7261 16.2902 42.7956C13.3383 39.3567 11.7082 35.0132 11.7082 30.5406C11.7381 29.7951 11.7878 29.0895 11.8573 28.4335C11.9269 28.4235 12.0064 28.4136 12.076 28.4136C13.0202 28.4136 13.8949 28.841 14.044 29.2385C14.1533 29.4771 14.203 29.8349 14.2626 30.2523C14.2825 30.4412 14.3123 30.63 14.3521 30.8388C14.5906 32.3793 15.3261 33.8702 16.4393 35.043C16.5785 35.1822 16.7176 35.3114 16.8468 35.4406C17.3935 35.9674 17.8606 36.4246 17.9799 36.8122L18.0594 37.3291C18.0594 37.7167 17.9302 38.1938 17.7811 38.7404C17.6917 39.0784 17.5923 39.4461 17.5127 39.8338C17.4531 40.1518 17.4134 40.4599 17.3736 40.7482V40.7283ZM30.5729 49.3257C28.3763 49.3555 26.1897 48.9679 24.0925 48.1827C25.1659 47.5963 26.3785 47.2782 27.5315 47.2782C27.8098 47.2782 28.108 47.3081 28.3763 47.3379C29.8076 47.5068 31.2289 48.1926 32.3421 49.2462C31.696 49.3058 31.1295 49.3356 30.5629 49.3356L30.5729 49.3257ZM43.8914 43.8393C41.3569 46.3738 38.1665 48.133 34.6579 48.9182C33.1571 46.99 30.9605 45.7277 28.6248 45.4395C28.257 45.3798 27.8893 45.3798 27.5315 45.3798C25.5238 45.3798 23.5558 46.0557 21.9655 47.2981C20.4249 46.5129 18.9738 45.4892 17.6519 44.2567C17.7314 44.207 17.801 44.1474 17.8606 44.0877C18.447 43.5808 18.8247 43.0739 19.0136 42.5372C19.1825 42.0005 19.2422 41.4837 19.3018 41.0265C19.3416 40.7482 19.3714 40.4798 19.431 40.2214C19.4807 39.963 19.5602 39.6847 19.6397 39.3865C19.8087 38.7901 19.9976 38.1143 20.0174 37.339C20.0174 36.9116 19.9677 36.5538 19.8584 36.2656C19.5105 35.2617 18.8446 34.6256 18.3178 34.1286C18.1489 33.9696 17.9898 33.8205 17.8407 33.6615C17.0257 32.8167 16.4691 31.7035 16.2703 30.5207C16.2505 30.3915 16.2306 30.2523 16.2206 30.1033C16.161 29.6162 16.1014 29.0199 15.8131 28.3937C15.2267 27.2209 13.9048 26.5053 12.1853 26.4456C12.2847 25.9884 12.4139 25.5113 12.573 25.0144C13.7657 24.6367 15.3162 23.9906 16.3896 23.4241C17.2941 22.9271 18.2284 22.4302 19.1428 21.963L19.2819 21.8835C19.7292 21.635 20.2758 21.3269 20.7331 20.7902C21.2897 20.1044 21.5481 19.2695 21.5481 18.1762C21.5481 17.6395 21.4884 17.1326 21.4288 16.6654L21.399 16.2679C21.399 15.7311 21.4884 15.1149 21.6475 14.608C21.7866 14.1409 22.0252 13.783 22.1345 13.6737C24.7584 12.3319 27.5911 11.6561 30.5629 11.6561C31.9644 11.6561 33.3559 11.8151 34.7175 12.1431C34.4492 12.491 34.2007 12.8885 34.151 13.5147V13.6141C34.1709 14.1309 34.2703 14.5782 34.3498 14.936C34.3995 15.1745 34.4492 15.3733 34.4492 15.4628L34.4094 15.7013L34.2405 15.8504C34.0417 15.9299 33.7236 15.9995 33.326 16.0591C32.8887 16.1188 32.3818 16.1784 31.8749 16.4269C30.9406 16.8543 30.4238 17.5699 29.9765 18.1961L29.8374 18.3948C29.5193 18.8918 29.0919 19.4782 28.6546 19.6174L28.108 19.8659C27.9688 19.9454 27.5116 20.2435 27.3526 20.8001V20.83V21.2275L27.4222 21.6649L27.5017 21.9133C27.9291 22.7582 28.6944 23.1359 29.251 23.2949C29.8871 23.5036 30.5132 23.5434 31.1096 23.5732H31.1891C32.0141 23.603 32.8589 23.6328 33.6839 23.6925C34.3498 23.7223 35.0356 23.762 35.4829 24.0204C35.7711 24.1596 35.95 24.5174 35.9401 24.5969V24.6665L35.6021 24.9945C35.4232 25.074 35.135 25.1535 34.8169 25.2132C33.7435 25.3125 32.5607 25.2132 31.2984 25.074C30.3741 24.9647 29.4199 24.8553 28.4558 24.8553C27.2929 24.8553 26.2593 25.0442 25.2852 25.4318C23.6254 26.1673 22.373 27.6184 21.9258 29.328C21.8264 29.815 21.7767 30.2225 21.7767 30.6102C21.7767 32.0414 22.3233 33.3633 23.3173 34.3274C24.3907 35.371 25.971 35.9475 27.7601 35.9475H28.5254C28.8335 35.9475 29.082 35.9773 29.2907 35.9972C29.6386 36.0767 29.8175 36.2755 29.8274 36.3252L29.8672 36.9812C29.8871 37.2396 29.9268 37.5875 30.1654 37.9851L30.7518 38.6013L30.7915 38.7802L30.712 39.3964C30.6126 39.963 30.5629 40.4997 30.5629 40.9867C30.5629 41.5135 30.6126 41.9409 30.712 42.2987C30.9903 43.4815 31.7258 44.4356 32.7198 44.9226C33.167 45.1413 33.6441 45.2407 34.0914 45.2109C35.3338 45.2109 36.5563 44.5847 37.4508 43.4814C38.3951 42.2788 38.7131 40.8575 39.0013 39.6052L39.051 39.3765C39.3293 38.1043 39.6375 36.9017 40.3233 36.0469C40.4227 35.9177 40.5519 35.7786 40.6811 35.6394C40.9296 35.371 41.2178 35.0629 41.4762 34.6554C41.7545 34.2082 41.8937 33.7211 41.8937 33.2043C41.8937 32.767 41.7645 32.3396 41.516 31.9619L41.3569 31.773L40.8699 31.3755L40.3928 31.0872C39.9356 30.8189 39.5381 30.5803 39.3393 30.3319L39.2001 29.8945L39.2399 29.7753L39.3393 29.7554C39.4685 29.7554 39.6971 29.8051 39.9456 29.8647C40.2835 29.9542 40.7109 30.0635 41.188 30.0734C41.3967 30.0734 42.1322 30.0337 42.6292 29.497C43.2255 28.8708 43.2255 28.0856 43.2255 27.7178V27.042L43.4144 27.1513C43.6131 27.2805 43.8616 27.4495 44.1697 27.5688C44.5176 27.7178 44.9251 27.7974 45.3525 27.7974C45.8197 27.7974 46.257 27.698 46.6347 27.6185L46.8036 27.5787C47.3404 27.4197 47.8473 27.2706 48.1951 27.2706H48.3542L48.9903 27.4892C49.0897 27.5489 49.1791 27.6582 49.2586 27.9266C49.3978 28.9304 49.4574 29.7454 49.4574 30.4909C49.4276 35.54 47.4596 40.2611 43.9113 43.8094L43.8914 43.8393Z" fill="#35CA55"/>
</svg>
