<svg width="292" height="112" viewBox="0 0 292 112" fill="none" xmlns="http://www.w3.org/2000/svg">
    <circle cx="86.4078" cy="51.2473" r="33.8526" fill="#00A3FF" stroke="#49F0E6"/>
    <path d="M92.6025 57.4419L143.85 107" stroke="#00A3FF" stroke-width="13"/>
    <path d="M268.055 80.419C260.772 80.419 254.802 78.8422 250.147 75.6885C245.491 72.5348 242.675 68.0295 241.699 62.1727L254.765 58.7937C255.29 61.4218 256.154 63.4867 257.355 64.9885C258.632 66.4902 260.171 67.579 261.973 68.2548C263.85 68.8555 265.878 69.1558 268.055 69.1558C271.359 69.1558 273.799 68.5927 275.376 67.4664C276.953 66.265 277.741 64.8008 277.741 63.0737C277.741 61.3467 276.991 60.0327 275.489 59.1316C273.987 58.1555 271.584 57.3671 268.28 56.7664L265.127 56.2032C261.222 55.4523 257.655 54.4387 254.427 53.1622C251.198 51.8106 248.607 49.9709 246.655 47.6432C244.703 45.3155 243.727 42.312 243.727 38.6327C243.727 33.0762 245.754 28.8337 249.809 25.9053C253.864 22.9018 259.195 21.4001 265.803 21.4001C272.035 21.4001 277.216 22.7892 281.346 25.5674C285.475 28.3457 288.179 31.9874 289.455 36.4927L276.277 40.5474C275.677 37.6941 274.438 35.6667 272.56 34.4653C270.758 33.2639 268.506 32.6632 265.803 32.6632C263.099 32.6632 261.034 33.1513 259.608 34.1274C258.181 35.0285 257.468 36.305 257.468 37.9569C257.468 39.759 258.219 41.1106 259.72 42.0116C261.222 42.8376 263.25 43.4758 265.803 43.9264L268.956 44.4895C273.161 45.2404 276.953 46.2541 280.332 47.5306C283.786 48.732 286.489 50.4965 288.441 52.8243C290.469 55.0769 291.483 58.1555 291.483 62.0601C291.483 67.9169 289.343 72.4597 285.063 75.6885C280.858 78.8422 275.188 80.419 268.055 80.419Z" fill="black"/>
    <path d="M181.53 101.368V88.9786H211.941C214.043 88.9786 215.095 87.8523 215.095 85.5997V71.5207H213.067C212.467 72.7972 211.528 74.0737 210.252 75.3502C208.975 76.6267 207.248 77.6779 205.071 78.5039C202.893 79.3299 200.115 79.7429 196.736 79.7429C192.381 79.7429 188.551 78.7667 185.247 76.8144C182.019 74.7871 179.503 72.0088 177.701 68.4797C175.899 64.9506 174.998 60.8958 174.998 56.3155V22.9765H189.189V55.1892C189.189 59.3941 190.203 62.5478 192.23 64.6502C194.333 66.7527 197.299 67.8039 201.128 67.8039C205.483 67.8039 208.862 66.3772 211.265 63.5239C213.668 60.5955 214.869 56.5407 214.869 51.3597V22.9765H229.061V88.7534C229.061 92.5829 227.935 95.6239 225.682 97.8765C223.429 100.204 220.426 101.368 216.672 101.368H181.53Z" fill="black"/>
    <path d="M145.482 78.842C141.803 78.842 138.799 77.7157 136.472 75.463C134.219 73.1353 133.093 70.0567 133.093 66.2272V34.6904H119.126V22.9767H133.093V5.63144H147.284V22.9767H162.602V34.6904H147.284V63.7493C147.284 66.002 148.335 67.1283 150.438 67.1283H161.251V78.842H145.482Z" fill="black"/>
    <path d="M86.2916 80.419C80.7351 80.419 75.8169 79.2551 71.5369 76.9274C67.3319 74.5246 64.0281 71.1832 61.6253 66.9032C59.2976 62.5481 58.1337 57.4422 58.1337 51.5853V50.2337C58.1337 44.3769 59.2976 39.3085 61.6253 35.0285C63.953 30.6734 67.2193 27.332 71.4242 25.0043C75.6291 22.6015 80.5098 21.4001 86.0663 21.4001C91.5477 21.4001 96.3158 22.639 100.371 25.1169C104.425 27.5197 107.579 30.8987 109.832 35.2537C112.084 39.5337 113.211 44.5271 113.211 50.2337V55.0769H72.5505C72.7007 58.9064 74.1274 62.0225 76.8305 64.4253C79.5337 66.8281 82.8376 68.0295 86.7421 68.0295C90.7218 68.0295 93.6502 67.166 95.5274 65.439C97.4046 63.712 98.8312 61.7972 99.8074 59.6948L111.408 65.7769C110.357 67.7292 108.818 69.8692 106.791 72.1969C104.838 74.4495 102.21 76.4018 98.9063 78.0537C95.6025 79.6306 91.3976 80.419 86.2916 80.419ZM72.6632 44.4895H98.7937C98.4933 41.2608 97.1793 38.6702 94.8516 36.718C92.599 34.7657 89.633 33.7895 85.9537 33.7895C82.1242 33.7895 79.0832 34.7657 76.8305 36.718C74.5779 38.6702 73.1888 41.2608 72.6632 44.4895Z" fill="black"/>
    <path d="M22.9768 78.8421V13.5158H0V0H60.821V13.5158H37.8442V78.8421H22.9768Z" fill="black"/>
</svg>
