<svg width="156" height="60" viewBox="0 0 156 60" fill="none" xmlns="http://www.w3.org/2000/svg">
<circle cx="46.0303" cy="27.3" r="17.8" fill="#00A3FF" stroke="#00A3FF"/>
<path d="M49.3303 30.5996L76.6303 56.9996" stroke="#00A3FF" stroke-width="7"/>
<path d="M142.796 42.8399C138.916 42.8399 135.736 41.9999 133.256 40.3199C130.776 38.6399 129.276 36.2399 128.756 33.1199L135.716 31.3199C135.996 32.7199 136.456 33.8199 137.096 34.6199C137.776 35.4199 138.596 35.9999 139.556 36.3599C140.556 36.6799 141.636 36.8399 142.796 36.8399C144.556 36.8399 145.856 36.5399 146.696 35.9399C147.536 35.2999 147.956 34.5199 147.956 33.5999C147.956 32.6799 147.556 31.9799 146.756 31.4999C145.956 30.9799 144.676 30.5599 142.916 30.2399L141.236 29.9399C139.156 29.5399 137.256 28.9999 135.536 28.3199C133.816 27.5999 132.436 26.6199 131.396 25.3799C130.356 24.1399 129.836 22.5399 129.836 20.5799C129.836 17.6199 130.916 15.3599 133.076 13.7999C135.236 12.1999 138.076 11.3999 141.596 11.3999C144.916 11.3999 147.676 12.1399 149.876 13.6199C152.076 15.0999 153.516 17.0399 154.196 19.4399L147.176 21.5999C146.856 20.0799 146.196 18.9999 145.196 18.3599C144.236 17.7199 143.036 17.3999 141.596 17.3999C140.156 17.3999 139.056 17.6599 138.296 18.1799C137.536 18.6599 137.156 19.3399 137.156 20.2199C137.156 21.1799 137.556 21.8999 138.356 22.3799C139.156 22.8199 140.236 23.1599 141.596 23.3999L143.276 23.6999C145.516 24.0999 147.536 24.6399 149.336 25.3199C151.176 25.9599 152.616 26.8999 153.656 28.1399C154.736 29.3399 155.276 30.9799 155.276 33.0599C155.276 36.1799 154.136 38.5999 151.856 40.3199C149.616 41.9999 146.596 42.8399 142.796 42.8399Z" fill="black"/>
<path d="M96.7033 53.9997V47.3997H112.903C114.023 47.3997 114.583 46.7997 114.583 45.5997V38.0997H113.503C113.183 38.7797 112.683 39.4597 112.003 40.1397C111.323 40.8197 110.403 41.3797 109.243 41.8197C108.083 42.2597 106.603 42.4797 104.803 42.4797C102.483 42.4797 100.443 41.9597 98.6833 40.9197C96.9633 39.8397 95.6233 38.3597 94.6633 36.4797C93.7033 34.5997 93.2233 32.4397 93.2233 29.9997V12.2397H100.783V29.3997C100.783 31.6397 101.323 33.3197 102.403 34.4397C103.523 35.5597 105.103 36.1197 107.143 36.1197C109.463 36.1197 111.263 35.3597 112.543 33.8397C113.823 32.2797 114.463 30.1197 114.463 27.3597V12.2397H122.023V47.2797C122.023 49.3197 121.423 50.9397 120.223 52.1397C119.023 53.3797 117.423 53.9997 115.423 53.9997H96.7033Z" fill="black"/>
<path d="M77.4998 42C75.5398 42 73.9398 41.4 72.6998 40.2C71.4998 38.96 70.8998 37.32 70.8998 35.28V18.48H63.4598V12.24H70.8998V3H78.4598V12.24H86.6198V18.48H78.4598V33.96C78.4598 35.16 79.0198 35.76 80.1398 35.76H85.8998V42H77.4998Z" fill="black"/>
<path d="M45.9684 42.8399C43.0084 42.8399 40.3884 42.2199 38.1084 40.9799C35.8684 39.6999 34.1084 37.9199 32.8284 35.6399C31.5884 33.3199 30.9684 30.5999 30.9684 27.4799V26.7599C30.9684 23.6399 31.5884 20.9399 32.8284 18.6599C34.0684 16.3399 35.8084 14.5599 38.0484 13.3199C40.2884 12.0399 42.8884 11.3999 45.8484 11.3999C48.7684 11.3999 51.3084 12.0599 53.4684 13.3799C55.6284 14.6599 57.3084 16.4599 58.5084 18.7799C59.7084 21.0599 60.3084 23.7199 60.3084 26.7599V29.3399H38.6484C38.7284 31.3799 39.4884 33.0399 40.9284 34.3199C42.3684 35.5999 44.1284 36.2399 46.2084 36.2399C48.3284 36.2399 49.8884 35.7799 50.8884 34.8599C51.8884 33.9399 52.6484 32.9199 53.1684 31.7999L59.3484 35.0399C58.7884 36.0799 57.9684 37.2199 56.8884 38.4599C55.8484 39.6599 54.4484 40.6999 52.6884 41.5799C50.9284 42.4199 48.6884 42.8399 45.9684 42.8399ZM38.7084 23.6999H52.6284C52.4684 21.9799 51.7684 20.5999 50.5284 19.5599C49.3284 18.5199 47.7484 17.9999 45.7884 17.9999C43.7484 17.9999 42.1284 18.5199 40.9284 19.5599C39.7284 20.5999 38.9884 21.9799 38.7084 23.6999Z" fill="black"/>
<path d="M12.24 42V7.2H0V0H32.4V7.2H20.16V42H12.24Z" fill="black"/>
</svg>
